<svg id="Group_4726" data-name="Group 4726" xmlns="http://www.w3.org/2000/svg" width="35.486" height="33.223" viewBox="0 0 35.486 33.223">
  <g id="Group_4725" data-name="Group 4725" transform="translate(0 0)">
    <g id="Group_4720" data-name="Group 4720" transform="translate(0 6.741)">
      <g id="Group_4718" data-name="Group 4718" transform="translate(0 0)">
        <path id="Path_9260" data-name="Path 9260" d="M167.465,258.613a4.09,4.09,0,0,1,4.141,4.116v17.077a5.3,5.3,0,0,1-5.29,5.288H163.47a6.446,6.446,0,0,1-6.351-7.613c.876-4.695,2.809-11.486,7.039-17.181A4.1,4.1,0,0,1,167.465,258.613Zm-1.149,24.895a3.706,3.706,0,0,0,3.7-3.7V262.729a2.535,2.535,0,0,0-4.588-1.482c-4.05,5.451-5.907,12-6.753,16.526a4.816,4.816,0,0,0,1.035,3.972,4.868,4.868,0,0,0,3.756,1.762Z" transform="translate(-157.009 -258.613)" fill="#39bca9"/>
        <path id="Path_9261" data-name="Path 9261" d="M163.677,277.853a.794.794,0,0,1-.235-1.552,7.389,7.389,0,0,0,2.225-1.283,6.7,6.7,0,0,0,2.453-4.747.794.794,0,1,1,1.581.136,8.34,8.34,0,0,1-3.075,5.877,8.83,8.83,0,0,1-2.717,1.534A.794.794,0,0,1,163.677,277.853Z" transform="translate(-155.107 -255.074)" fill="#39bca9"/>
        <path id="Path_9262" data-name="Path 9262" d="M165.654,267.505a.794.794,0,0,1-.213-1.558,3.573,3.573,0,0,0,2.1-1.75.794.794,0,0,1,1.455.635,5.143,5.143,0,0,1-3.134,2.645A.8.8,0,0,1,165.654,267.505Z" transform="translate(-154.467 -256.959)" fill="#39bca9"/>
      </g>
      <g id="Group_4719" data-name="Group 4719" transform="translate(20.889 0)">
        <path id="Path_9263" data-name="Path 9263" d="M176.931,258.613h0a4.1,4.1,0,0,1,3.308,1.688c4.23,5.695,6.163,12.487,7.039,17.181a6.446,6.446,0,0,1-6.351,7.613H178.08a5.3,5.3,0,0,1-5.29-5.288V262.729a4.038,4.038,0,0,1,1.294-3.012A4.248,4.248,0,0,1,176.931,258.613Zm4,24.895a4.868,4.868,0,0,0,3.756-1.763,4.816,4.816,0,0,0,1.035-3.972c-.845-4.53-2.7-11.075-6.753-16.526a2.492,2.492,0,0,0-2.034-1.047h0a2.643,2.643,0,0,0-1.773.685,2.429,2.429,0,0,0-.781,1.844v17.077a3.706,3.706,0,0,0,3.7,3.7Z" transform="translate(-172.79 -258.613)" fill="#39bca9"/>
        <path id="Path_9264" data-name="Path 9264" d="M178.818,277.853a.8.8,0,0,1-.233-.035,8.83,8.83,0,0,1-2.717-1.534,8.34,8.34,0,0,1-3.075-5.877.794.794,0,1,1,1.581-.136,6.7,6.7,0,0,0,2.453,4.747,7.386,7.386,0,0,0,2.225,1.283.793.793,0,0,1-.234,1.552Z" transform="translate(-172.79 -255.074)" fill="#39bca9"/>
        <path id="Path_9265" data-name="Path 9265" d="M176.2,267.505a.8.8,0,0,1-.21-.028,5.14,5.14,0,0,1-3.135-2.646.794.794,0,0,1,1.455-.634,3.571,3.571,0,0,0,2.1,1.75.793.793,0,0,1-.212,1.558Z" transform="translate(-172.79 -256.959)" fill="#39bca9"/>
      </g>
    </g>
    <g id="Group_4724" data-name="Group 4724" transform="translate(13.004)">
      <path id="Path_9266" data-name="Path 9266" d="M175.522,276.07a.793.793,0,0,1-.558-.229l-3.39-3.352-3.39,3.352a.794.794,0,0,1-1.351-.566l.012-4.489a.793.793,0,0,1,.238-.565l2.112-2.071V254.313a.794.794,0,0,1,.794-.794h3.166a.794.794,0,0,1,.794.793l0,13.838,2.113,2.071a.793.793,0,0,1,.238.565l.012,4.489a.794.794,0,0,1-.793.8Zm-3.948-5.49a.791.791,0,0,1,.558.229l2.591,2.562-.006-2.25-2.113-2.071a.793.793,0,0,1-.238-.566l0-13.377h-1.579v13.377a.794.794,0,0,1-.238.567l-2.113,2.071-.006,2.249,2.591-2.562A.791.791,0,0,1,171.574,270.58Z" transform="translate(-166.833 -253.52)" fill="#39bca9"/>
      <g id="Group_4723" data-name="Group 4723" transform="translate(1.049 3.597)">
        <g id="Group_4721" data-name="Group 4721" transform="translate(1.314 0)">
          <path id="Line_19" data-name="Line 19" d="M2.959.587H-.206A.794.794,0,0,1-1-.206.794.794,0,0,1-.206-1H2.959a.794.794,0,0,1,.794.794A.794.794,0,0,1,2.959.587Z" transform="translate(1 1)" fill="#39bca9"/>
          <path id="Line_20" data-name="Line 20" d="M2.959.587H-.206A.794.794,0,0,1-1-.206.794.794,0,0,1-.206-1H2.959a.794.794,0,0,1,.794.794A.794.794,0,0,1,2.959.587Z" transform="translate(1 5.286)" fill="#39bca9"/>
          <path id="Line_21" data-name="Line 21" d="M2.959.587H-.206A.794.794,0,0,1-1-.206.794.794,0,0,1-.206-1H2.959a.794.794,0,0,1,.794.794A.794.794,0,0,1,2.959.587Z" transform="translate(1 9.571)" fill="#39bca9"/>
        </g>
        <g id="Group_4722" data-name="Group 4722" transform="translate(0 11.958)">
          <path id="Line_22" data-name="Line 22" d="M1.93,2.724a.791.791,0,0,1-.561-.232L-.768.355a.794.794,0,0,1,0-1.122.794.794,0,0,1,1.122,0L2.491,1.369A.794.794,0,0,1,1.93,2.724Z" transform="translate(1 1)" fill="#39bca9"/>
          <path id="Line_23" data-name="Line 23" d="M-.206,2.724a.791.791,0,0,1-.561-.232.794.794,0,0,1,0-1.122L1.369-.768a.794.794,0,0,1,1.122,0,.794.794,0,0,1,0,1.122L.355,2.491A.791.791,0,0,1-.206,2.724Z" transform="translate(4.661 1)" fill="#39bca9"/>
        </g>
      </g>
    </g>
  </g>
</svg>
