<svg xmlns="http://www.w3.org/2000/svg" xmlns:xlink="http://www.w3.org/1999/xlink" width="165" height="165" viewBox="0 0 165 165">
  <defs>
    <filter id="Ellipse_51" x="0" y="0" width="165" height="165" filterUnits="userSpaceOnUse">
      <feOffset dy="9" input="SourceAlpha"/>
      <feGaussianBlur stdDeviation="15" result="blur"/>
      <feFlood flood-opacity="0.161"/>
      <feComposite operator="in" in2="blur"/>
      <feComposite in="SourceGraphic"/>
    </filter>
  </defs>
  <g id="Group_4832" data-name="Group 4832" transform="translate(18 -133.923)">
    <g transform="matrix(1, 0, 0, 1, -18, 133.92)" filter="url(#Ellipse_51)">
      <circle id="Ellipse_51-2" data-name="Ellipse 51" cx="37.5" cy="37.5" r="37.5" transform="translate(45 36)" fill="#fff"/>
    </g>
    <g id="Group_4825" data-name="Group 4825" transform="translate(37.787 188.212)">
      <path id="Union_3" data-name="Union 3" d="M41.193,38.674a39.886,39.886,0,0,0-9.217-2.267A43.482,43.482,0,0,0,10.913,38.7a1.725,1.725,0,0,1-2.1-.74C5.226,31.841.822,21.576.5,20.823a6.207,6.207,0,0,1,.493-5.809,10.024,10.024,0,0,1,5.732-3.762,24.241,24.241,0,0,1,3.321-.737V6.906A6.907,6.907,0,0,1,16.954,0H35.948a6.906,6.906,0,0,1,6.906,6.906v3.522c4.515.675,7.531,2.139,8.976,4.36.951,1.462,1.674,3.986-.294,7.71-5.954,11.27-8.123,15.355-8.145,15.395a1.727,1.727,0,0,1-2.2.78ZM7.8,14.536A7.05,7.05,0,0,0,3.913,16.86a2.76,2.76,0,0,0-.274,2.521c.014.026.011.023.026.058.042.1,4.014,9.393,7.415,15.527a45.107,45.107,0,0,1,11.034-2.274A48.847,48.847,0,0,1,32.557,33a46.7,46.7,0,0,1,8.492,1.944c1.049-1.981,3.352-6.33,7.435-14.058,1.431-2.709.695-3.842.454-4.213-.978-1.5-3.8-2.566-7.948-3a43.166,43.166,0,0,0-6.558-.151,1.726,1.726,0,1,1-.239-3.444,45.158,45.158,0,0,1,5.209,0V6.906a3.458,3.458,0,0,0-3.453-3.453H16.954A3.458,3.458,0,0,0,13.5,6.906v3.24q2.674-.172,5.86-.073a1.727,1.727,0,1,1-.109,3.453q-1.13-.035-2.188-.035A33.4,33.4,0,0,0,7.8,14.536Zm5.7-7.629h0Z" fill="#39bca9"/>
      <path id="Path_9310" data-name="Path 9310" d="M8.984-13.442v7.37H1.8v4.635h7.18v7.37H14v-7.37h7.18V-6.072H14v-7.37Z" transform="translate(15.464 23.803)" fill="#39bca9" opacity="0.5"/>
    </g>
  </g>
</svg>
