<svg xmlns="http://www.w3.org/2000/svg" xmlns:xlink="http://www.w3.org/1999/xlink" width="84" height="84" viewBox="0 0 84 84">
  <defs>
    <filter id="Ellipse_16">
      <feOffset input="SourceAlpha"/>
      <feGaussianBlur stdDeviation="3" result="blur"/>
      <feFlood flood-opacity="0.451" result="color"/>
      <feComposite operator="out" in="SourceGraphic" in2="blur"/>
      <feComposite operator="in" in="color"/>
      <feComposite operator="in" in2="SourceGraphic"/>
    </filter>
  </defs>
  <g id="Group_4625" data-name="Group 4625" transform="translate(-59 -678)">
    <g data-type="innerShadowGroup">
      <circle id="Ellipse_16-2" data-name="Ellipse 16" cx="42" cy="42" r="42" transform="translate(59 678)" fill="#fff"/>
      <g transform="matrix(1, 0, 0, 1, 59, 678)" filter="url(#Ellipse_16)">
        <circle id="Ellipse_16-3" data-name="Ellipse 16" cx="42" cy="42" r="42" fill="#fff"/>
      </g>
      <g id="Ellipse_16-4" data-name="Ellipse 16" transform="translate(59 678)" fill="none" stroke="#707070" stroke-width="1">
        <circle cx="42" cy="42" r="42" stroke="none"/>
        <circle cx="42" cy="42" r="41.5" fill="none"/>
      </g>
    </g>
    <g id="Group_4386" data-name="Group 4386" transform="translate(364.437 -554.629)">
      <g id="Group_4366" data-name="Group 4366" transform="translate(-286.383 1251.739)">
        <g id="Group_4362" data-name="Group 4362" transform="translate(18.975 14.795)">
          <path id="Path_7837" data-name="Path 7837" d="M233.124,298.689a.783.783,0,0,1-.751-.59c-.158-.41-.3-.831-.432-1.238q-.083-.25-.167-.5c-.024-.07-.049-.141-.073-.211-.052-.147-.105-.3-.152-.454a10.286,10.286,0,0,0-1.318.029c-.378.024-.769.049-1.163.039a.954.954,0,0,1-.827-.408c-.694-.934-1.448-1.912-2.447-3.17a.616.616,0,0,1-.158-.47.631.631,0,0,1,.272-.413q.466-.352.936-.7c.663-.491,1.349-1,2-1.526a2.7,2.7,0,0,1,1.793-.544,9.854,9.854,0,0,0,2.561-.44,12.854,12.854,0,0,0,3.553-1.657,10.588,10.588,0,0,0,1.349-1.056,13.511,13.511,0,0,0,2.574-3.147,13.365,13.365,0,0,0,1.347-3.388,12.674,12.674,0,0,0,.3-3.944,11.059,11.059,0,0,0-.632-3.065.578.578,0,0,1,.041-.564.555.555,0,0,1,.52-.156,6.571,6.571,0,0,1,1.15.29c.156.05.313.1.471.144.625.174,1.438.405,2.267.67.238-.815.47-1.646.7-2.45l.146-.523q.1-.367.2-.735l.156-.57.6-.039.244.873c.126.452.253.9.377,1.356q.148.539.292,1.078c.139.516.278,1.031.421,1.546.2.014.4.03.6.047.318.027.646.055.965.067.186.007.367.027.542.046.149.016.289.032.43.04a.921.921,0,0,1,.7.36,1.188,1.188,0,0,1,.151,1,3.231,3.231,0,0,0-.064.548c-.008.125-.015.249-.03.373-.071.591-.11,1.2-.148,1.789-.02.311-.04.622-.064.932-.086,1.09-.18,2.182-.262,3.12a.945.945,0,0,1-.412.682.851.851,0,0,1-.716.132,2.33,2.33,0,0,0-.524-.062c-.124-.006-.252-.012-.384-.029-.25-.032-.5-.05-.766-.069-.188-.013-.382-.027-.575-.046a19.562,19.562,0,0,1-.945,2.48l1.713,1.316a.589.589,0,0,1,.086.056.959.959,0,0,1,.182,1.556q-.5.642-1,1.281c-.548.7-1.114,1.422-1.66,2.14-.465.612-.969,1.248-1.586,2a.835.835,0,0,1-1.325.192c-.389-.267-.758-.564-1.115-.852-.142-.115-.284-.229-.427-.342l-.061-.048c-.086-.067-.174-.136-.26-.214a15.691,15.691,0,0,1-2.235,1.593l-.037.023a.426.426,0,0,0,.016.047c.278.721.521,1.464.765,2.226a.877.877,0,0,1-.635,1.212l-1.284.444q-1.46.506-2.922,1.006c-.642.219-1.3.433-1.931.639l-.535.175A1.269,1.269,0,0,1,233.124,298.689Zm-1.426-3.683a.467.467,0,0,1,.47.368c.049.182.112.361.179.55.026.073.051.145.076.218.057.168.113.336.169.5.132.4.269.813.421,1.208.049.127.085.151.085.151s.046.017.206-.036l.536-.175c.631-.206,1.284-.419,1.922-.636q1.461-.5,2.919-1.006l1.284-.444c.277-.1.271-.157.207-.356-.251-.781-.48-1.484-.752-2.189a.668.668,0,0,1,.313-.906,15,15,0,0,0,2.19-1.569.533.533,0,0,1,.794.007,3.082,3.082,0,0,0,.277.233l.064.05c.146.114.29.231.434.347.347.28.7.569,1.072.82a.667.667,0,0,0,.222.123.755.755,0,0,0,.187-.185c.611-.747,1.111-1.376,1.571-1.982.549-.722,1.117-1.447,1.666-2.148q.5-.638,1-1.278c.248-.32.244-.354-.069-.6a.545.545,0,0,1-.076-.048l-1.807-1.389a.517.517,0,0,1-.149-.677,19.026,19.026,0,0,0,.987-2.585.478.478,0,0,1,.536-.385c.231.028.472.044.7.06.264.018.536.037.806.073.1.013.212.018.327.024a2.865,2.865,0,0,1,.681.088.18.18,0,0,0,.141-.038.27.27,0,0,0,.119-.178c.082-.937.176-2.028.261-3.115.024-.307.044-.615.063-.922.038-.6.078-1.218.152-1.828.013-.11.02-.221.026-.332a3.79,3.79,0,0,1,.081-.665.544.544,0,0,0-.033-.432.23.23,0,0,0-.194-.087c-.16-.009-.316-.026-.468-.043-.17-.019-.331-.036-.493-.042-.336-.013-.672-.041-1-.069-.228-.019-.456-.039-.684-.053a.528.528,0,0,1-.5-.435c-.149-.535-.293-1.072-.438-1.609q-.145-.539-.292-1.076-.124-.453-.251-.905l-.007.024-.146.523c-.232.829-.471,1.685-.717,2.526l-.006.023a.552.552,0,0,1-.253.385.545.545,0,0,1-.45.027c-.865-.279-1.726-.524-2.378-.706-.166-.046-.33-.1-.495-.151a7.927,7.927,0,0,0-.781-.221,11.576,11.576,0,0,1,.592,3.03,13.3,13.3,0,0,1-.325,4.152,14.035,14.035,0,0,1-1.417,3.559,14.188,14.188,0,0,1-2.7,3.305,11.279,11.279,0,0,1-1.436,1.124,13.547,13.547,0,0,1-3.742,1.743,10.765,10.765,0,0,1-2.737.466,2.02,2.02,0,0,0-1.372.39c-.659.537-1.351,1.05-2.02,1.546q-.442.328-.882.658c.984,1.24,1.731,2.21,2.42,3.137.082.11.123.129.3.133.363.009.723-.014,1.1-.038a10.957,10.957,0,0,1,1.4-.029l.015,0A.766.766,0,0,1,231.7,295.006Zm8.319-2.116Z" transform="translate(-225.269 -267.524)"/>
          <path id="Path_7837_-_Outline" data-name="Path 7837 - Outline" d="M232.735,298.643a1.133,1.133,0,0,1-1.089-.823c-.159-.413-.3-.832-.432-1.238l-.005-.016c-.045-.137-.105-.317-.166-.5-.023-.069-.048-.138-.072-.207s-.052-.147-.078-.223h-.114c-.3,0-.612.02-.915.04-.325.021-.661.042-1.007.042l-.189,0a1.311,1.311,0,0,1-1.109-.554c-.693-.933-1.446-1.908-2.44-3.161a.924.924,0,0,1,.18-1.4c.315-.239.632-.473.939-.7.657-.487,1.337-.99,1.982-1.516a3.052,3.052,0,0,1,2.016-.625,9.513,9.513,0,0,0,2.468-.427,12.5,12.5,0,0,0,3.453-1.611,10.226,10.226,0,0,0,1.3-1.02,13.154,13.154,0,0,0,2.507-3.063,13.009,13.009,0,0,0,1.309-3.3,12.335,12.335,0,0,0,.293-3.834,10.7,10.7,0,0,0-.612-2.964.9.9,0,0,1,.1-.912.832.832,0,0,1,.672-.3,1.318,1.318,0,0,1,.176.013,6.842,6.842,0,0,1,1.21.3h0c.142.045.3.1.458.14.535.149,1.216.343,1.926.562.2-.7.4-1.405.591-2.091l.146-.523c.07-.252.138-.5.2-.733l.224-.819,1.147-.075.346,1.239c.117.417.238.849.354,1.275.1.365.2.728.292,1.08l.008.031c.112.415.227.843.344,1.266l.319.026.029,0c.313.027.637.054.948.066.2.008.4.029.568.048.136.015.277.031.411.038a1.277,1.277,0,0,1,.974.5,1.541,1.541,0,0,1,.213,1.3,2.933,2.933,0,0,0-.054.486c-.007.121-.016.258-.032.4-.07.579-.108,1.182-.146,1.765v0c-.02.306-.04.623-.065.938-.085,1.087-.18,2.182-.262,3.123a1.31,1.31,0,0,1-.568.948,1.244,1.244,0,0,1-.707.226,1.141,1.141,0,0,1-.314-.044,2.057,2.057,0,0,0-.441-.049c-.125-.006-.266-.012-.414-.031-.237-.031-.479-.048-.736-.066h-.01l-.3-.021a19.843,19.843,0,0,1-.749,1.984l1.463,1.124a.907.907,0,0,1,.112.076,1.312,1.312,0,0,1,.242,2.061c-.329.424-.665.853-.99,1.268l-.018.023c-.545.7-1.108,1.414-1.651,2.128-.466.612-.972,1.252-1.594,2.011a1.292,1.292,0,0,1-.991.568,1.477,1.477,0,0,1-.819-.307c-.4-.275-.776-.577-1.138-.869-.135-.109-.278-.224-.424-.339l-.06-.047-.036-.028a16.056,16.056,0,0,1-1.829,1.3c.244.654.462,1.323.682,2.007a1.235,1.235,0,0,1-.861,1.664l-1.284.444c-.957.331-1.948.674-2.924,1.007-.634.216-1.279.427-1.9.631l-.566.185A1.632,1.632,0,0,1,232.735,298.643Zm-1.426-4.407a.824.824,0,0,1,.819.635c.045.169.106.341.17.523.026.075.053.149.078.223.06.176.121.359.169.507.116.351.236.711.365,1.058l.427-.139c.629-.205,1.279-.417,1.917-.635.958-.327,1.931-.663,2.871-.989l1.286-.445c-.238-.741-.459-1.414-.719-2.088a1.025,1.025,0,0,1,.468-1.349,14.645,14.645,0,0,0,2.137-1.531.971.971,0,0,1,.638-.261.912.912,0,0,1,.647.286,2.847,2.847,0,0,0,.244.2l.064.05c.144.113.284.226.438.351l.008.006c.325.262.66.532,1,.767.594-.726,1.082-1.342,1.532-1.933.547-.719,1.111-1.44,1.658-2.137l.012-.015c.291-.371.652-.832,1-1.277l.044-.057-.029-.023a.884.884,0,0,1-.093-.062l-1.808-1.389a.879.879,0,0,1-.253-1.124,18.724,18.724,0,0,0,.967-2.536.847.847,0,0,1,.815-.639.936.936,0,0,1,.107.006c.225.027.46.043.688.059h.007c.267.019.543.038.821.074.088.011.189.016.3.021a3.851,3.851,0,0,1,.578.057c.079-.906.168-1.944.248-2.966.023-.3.043-.6.061-.89l0-.031c.039-.6.078-1.226.153-1.845.011-.094.017-.191.023-.295v-.016a4.136,4.136,0,0,1,.09-.727.669.669,0,0,0,.014-.08c-.141-.01-.275-.025-.4-.039h-.007c-.161-.018-.313-.034-.459-.04-.341-.013-.679-.041-1.005-.069h-.009c-.209-.018-.445-.038-.676-.052a.887.887,0,0,1-.826-.7c-.14-.5-.279-1.02-.414-1.518l-.025-.093c-.063-.232-.128-.476-.2-.723-.169.6-.341,1.211-.518,1.813l0,.015a.867.867,0,0,1-1.167.671c-.868-.279-1.719-.522-2.364-.7-.176-.049-.352-.105-.507-.155l-.134-.043a11.539,11.539,0,0,1,.417,2.489,13.644,13.644,0,0,1-.337,4.262,14.392,14.392,0,0,1-1.455,3.65,14.547,14.547,0,0,1-2.769,3.389,11.649,11.649,0,0,1-1.482,1.161,13.908,13.908,0,0,1-3.843,1.789,11.1,11.1,0,0,1-2.83.48,1.694,1.694,0,0,0-1.149.309c-.667.543-1.361,1.058-2.033,1.556l-.03.023-.553.411c.87,1.1,1.552,1.987,2.186,2.841h.024l.156,0c.293,0,.589-.019.9-.039h.02c.323-.021.657-.042,1-.042.143,0,.276,0,.405.011A1.07,1.07,0,0,1,231.309,294.236Z" transform="translate(-224.88 -267.116)"/>
        </g>
        <g id="Group_4363" data-name="Group 4363" transform="translate(7.281)">
          <path id="Path_7838" data-name="Path 7838" d="M187.918,198.1a1.618,1.618,0,0,1-.427-.084c-.291-.083-.582-.168-.873-.253-.877-.256-1.784-.521-2.683-.726a1.479,1.479,0,0,1-.9-.668c-.035-.048-.071-.1-.108-.141A13.3,13.3,0,0,0,180.8,194.1a12.468,12.468,0,0,0-2.377-1.493,12.742,12.742,0,0,0-3.5-1.083,14.245,14.245,0,0,0-1.489-.121l-.181-.009a11.8,11.8,0,0,0-4.556.707,12.454,12.454,0,0,0-3.642,2.026,10.388,10.388,0,0,0-1.627,1.555.449.449,0,0,1-.462.205.491.491,0,0,1-.387-.4q-.1-.5-.21-1c-.149-.71-.3-1.42-.442-2.131-.021-.106-.047-.211-.072-.316-.043-.177-.086-.358-.114-.548-.2.041-.4.091-.615.144-.161.04-.321.08-.482.116q-1.066.238-2.136.471l-1.193.262-.073-.334a.591.591,0,0,1,.242-.613.409.409,0,0,0,.038-.033,9.344,9.344,0,0,1,1.262-1.4c.1-.1.208-.2.31-.3-.236-.382-.467-.768-.7-1.154q-.227-.379-.455-.757a.962.962,0,0,1,.377-1.5l1.463-.867L164.025,183a1.2,1.2,0,0,1,.17-.08.644.644,0,0,0,.074-.033.773.773,0,0,1,1.173.136,4.242,4.242,0,0,1,.529.809c.092.169.18.328.28.475.039.057.073.117.107.177.024.043.047.085.075.126a2.255,2.255,0,0,1,.16.292c.054.113.116.241.172.269a.8.8,0,0,0,.24-.088,2.023,2.023,0,0,1,.27-.109c.69-.207,1.4-.356,2.082-.5a8.681,8.681,0,0,1,.039-.931,6.505,6.505,0,0,0,.027-1.022,1.7,1.7,0,0,1,.105-.667.772.772,0,0,1,.8-.608c.363.017.726.03,1.09.043.707.025,1.439.051,2.159.105.358.027.715.04.986.049.407.013.817.039,1.214.064.586.037,1.191.076,1.785.072a.816.816,0,0,1,.594.232.869.869,0,0,1,.233.646c-.016.787-.054,1.612-.111,2.454.7.253,1.423.511,2.228.79a2.62,2.62,0,0,0,.407.122,2.666,2.666,0,0,0,.262-.346l.191-.276c.3-.438.617-.891.955-1.32a.971.971,0,0,1,.683-.41,1.018,1.018,0,0,1,.712.253c.492.389,1.016.763,1.522,1.124l.406.29q.779.56,1.56,1.117,1.046.748,2.09,1.5a.956.956,0,0,1,.252,1.445c-.453.655-.922,1.331-1.44,1.962l-.011.013.016.016a7.031,7.031,0,0,1,.661.8c.161.217.314.422.485.61a1.185,1.185,0,0,1,.178,1.255c-.013.047-.026.093-.038.14q-.232.913-.472,1.825-.209.8-.417,1.61a.855.855,0,0,1-.331.6A.513.513,0,0,1,187.918,198.1Zm-15.2-7.4q.282,0,.563.014l.18.008a15.01,15.01,0,0,1,1.56.128,13.425,13.425,0,0,1,3.69,1.14,13.124,13.124,0,0,1,2.507,1.574,13.959,13.959,0,0,1,2.236,2.233c.044.054.085.109.126.165.168.226.274.357.5.409.92.209,1.837.477,2.724.736q.434.127.869.252c.032.009.086.025.136.037.014-.047.027-.1.035-.129q.206-.807.417-1.613.237-.91.471-1.821c.013-.053.028-.106.043-.158.093-.327.113-.455-.025-.607a8.438,8.438,0,0,1-.529-.663,6.452,6.452,0,0,0-.6-.726.63.63,0,0,1-.05-.948c.5-.609.961-1.273,1.406-1.917.16-.231.142-.334-.09-.5q-1.041-.752-2.087-1.5-.781-.558-1.561-1.118l-.4-.289c-.513-.366-1.043-.745-1.548-1.144a.391.391,0,0,0-.234-.108c-.075.006-.158.1-.2.152-.325.412-.632.856-.929,1.285l-.192.277c-.489.7-.652.758-1.454.48s-1.54-.539-2.237-.793a.6.6,0,0,1-.452-.638c.059-.849.1-1.681.113-2.473a.225.225,0,0,0-.037-.152.153.153,0,0,0-.1-.028c-.613,0-1.234-.035-1.832-.073-.392-.025-.8-.05-1.193-.063-.278-.009-.645-.023-1.016-.05-.707-.053-1.432-.079-2.132-.1-.366-.013-.731-.026-1.1-.043-.049,0-.078,0-.122.133a1.1,1.1,0,0,0-.075.406,7.137,7.137,0,0,1-.028,1.129,7.275,7.275,0,0,0-.034.925.552.552,0,0,1-.485.609c-.694.145-1.406.293-2.086.5a1.539,1.539,0,0,0-.179.075.93.93,0,0,1-.831.08,1.129,1.129,0,0,1-.484-.585,1.7,1.7,0,0,0-.11-.205c-.038-.056-.072-.115-.105-.174-.024-.043-.048-.086-.076-.127-.119-.175-.218-.356-.315-.532a3.676,3.676,0,0,0-.441-.683c-.128-.145-.145-.131-.224-.064a.885.885,0,0,1-.258.142.551.551,0,0,0-.075.033l-4.248,2.518-1.463.868c-.2.118-.245.2-.254.235a.534.534,0,0,0,.113.325q.23.38.458.761c.232.387.463.774.7,1.158a.6.6,0,0,1-.1.827c-.107.105-.214.21-.322.314a11.691,11.691,0,0,0-.924.963l.027-.006q1.069-.234,2.133-.471c.156-.035.311-.074.466-.112.236-.059.479-.119.726-.167l.025-.007a.56.56,0,0,1,.49.051.483.483,0,0,1,.2.379,4.041,4.041,0,0,0,.121.652c.027.113.055.227.078.341.143.709.292,1.417.441,2.125l.125.6a12.344,12.344,0,0,1,1.462-1.342,13.141,13.141,0,0,1,3.841-2.138A12.608,12.608,0,0,1,172.72,190.7Zm-13.6-.849Z" transform="translate(-156.86 -180.884)"/>
          <path id="Path_7838_-_Outline" data-name="Path 7838 - Outline" d="M187.529,198.071a1.912,1.912,0,0,1-.526-.1c-.273-.078-.55-.159-.818-.237l-.057-.017c-.869-.254-1.767-.517-2.662-.72a1.833,1.833,0,0,1-1.111-.805l0,0c-.033-.045-.065-.087-.1-.127A12.942,12.942,0,0,0,180.188,194a12.109,12.109,0,0,0-2.308-1.451,12.381,12.381,0,0,0-3.4-1.053,13.98,13.98,0,0,0-1.451-.117l-.183-.009c-.17-.008-.343-.012-.513-.012a11.575,11.575,0,0,0-3.9.7,12.092,12.092,0,0,0-3.537,1.967,10.074,10.074,0,0,0-1.57,1.5.794.794,0,0,1-.816.336.854.854,0,0,1-.671-.683q-.1-.5-.21-1c-.138-.657-.295-1.4-.443-2.134-.021-.1-.045-.2-.069-.3-.016-.065-.032-.131-.047-.2l-.242.06-.022.005c-.153.038-.311.077-.47.113-.7.157-1.419.314-2.111.466l-1.573.345-.151-.687a.937.937,0,0,1,.361-.966,9.812,9.812,0,0,1,1.28-1.414l.041-.04.064-.062c-.188-.308-.371-.613-.549-.911l-.015-.025c-.144-.24-.292-.487-.439-.73a1.316,1.316,0,0,1,.5-2l1.515-.9,4.2-2.487a1.521,1.521,0,0,1,.218-.1h0l.016-.006a1.189,1.189,0,0,1,.716-.261,1.219,1.219,0,0,1,.92.467,4.591,4.591,0,0,1,.575.875c.088.16.17.311.262.445.046.067.084.134.123.2l.008.014c.018.032.035.063.051.086a2.467,2.467,0,0,1,.178.321,2.033,2.033,0,0,1,.26-.1c.617-.185,1.246-.325,1.824-.446.006-.23.023-.45.04-.665v0a6.229,6.229,0,0,0,.027-.961,2.037,2.037,0,0,1,.121-.806,1.131,1.131,0,0,1,1.11-.861h.055c.363.017.731.03,1.087.043.711.025,1.446.052,2.173.106.352.026.7.039.971.048.407.013.815.039,1.209.063l.053,0c.567.036,1.154.072,1.723.069h0a1.173,1.173,0,0,1,.85.34,1.223,1.223,0,0,1,.338.907c-.015.706-.046,1.444-.094,2.2.618.223,1.264.452,1.967.695h0l.151.052.1-.141.191-.276c.305-.441.621-.9.968-1.338a1.334,1.334,0,0,1,.938-.547c.031,0,.062,0,.092,0a1.4,1.4,0,0,1,.874.334c.485.383,1,.754,1.507,1.112l.407.291c.519.373,1.046.75,1.557,1.115l0,0c.643.46,1.372.98,2.091,1.5a1.311,1.311,0,0,1,.338,1.944c-.4.581-.816,1.178-1.269,1.751.179.2.335.415.488.62s.3.408.462.583a1.545,1.545,0,0,1,.258,1.6l-.005.018c-.011.039-.021.075-.03.111-.154.607-.314,1.221-.469,1.816l-.016.063c-.133.511-.27,1.039-.4,1.558a1.175,1.175,0,0,1-.5.821A.878.878,0,0,1,187.529,198.071Zm-15.2-8.124c.194,0,.39,0,.58.014l.182.008a15.248,15.248,0,0,1,1.6.131,13.787,13.787,0,0,1,3.789,1.171,13.481,13.481,0,0,1,2.576,1.616,14.319,14.319,0,0,1,2.294,2.29c.048.059.092.117.136.177.166.224.2.251.293.272.928.211,1.849.48,2.739.74l.006,0,.647.188c.119-.464.241-.931.359-1.385.155-.6.316-1.211.47-1.819.015-.06.032-.119.046-.169a1.826,1.826,0,0,0,.06-.258l-.005-.006a8.7,8.7,0,0,1-.552-.691,6.2,6.2,0,0,0-.561-.686.991.991,0,0,1-.074-1.433c.489-.595.944-1.251,1.383-1.885l0-.006,0,0c-.7-.509-1.406-1.011-2.086-1.5l-.1-.072c-.479-.343-.974-.7-1.461-1.046l-.4-.289c-.5-.358-1.019-.727-1.524-1.124-.3.386-.591.8-.87,1.207l-.2.292c-.312.449-.59.792-1.093.792a2.449,2.449,0,0,1-.777-.176c-.812-.281-1.545-.541-2.243-.795a.946.946,0,0,1-.69-1c.054-.778.09-1.539.108-2.266-.53,0-1.059-.038-1.572-.07l-.057,0c-.368-.023-.786-.049-1.182-.062-.28-.009-.651-.023-1.031-.051-.7-.052-1.421-.078-2.118-.1-.318-.011-.611-.022-.9-.034a.48.48,0,0,0-.021.139,7.414,7.414,0,0,1-.027,1.185,7.034,7.034,0,0,0-.033.88.913.913,0,0,1-.773.981c-.683.143-1.389.29-2.056.49-.026.008-.084.035-.131.057a1.6,1.6,0,0,1-.681.184,1.032,1.032,0,0,1-.463-.108,1.466,1.466,0,0,1-.65-.752l0,0a1.526,1.526,0,0,0-.081-.156c-.046-.068-.085-.136-.121-.2l0-.009c-.019-.034-.037-.066-.054-.091-.129-.189-.231-.376-.331-.558l0,0a4.487,4.487,0,0,0-.311-.514,1.73,1.73,0,0,1-.16.071l-.018.007-.014.005-4.24,2.513-1.463.868-.038.023.022.038c.152.251.305.506.453.753l.027.045c.22.368.448.748.677,1.118a.958.958,0,0,1-.155,1.275c-.1.1-.206.2-.306.3l-.018.018-.1.1,1-.223c.146-.033.3-.07.443-.107l.018,0c.236-.059.48-.119.731-.168l.013,0a1.17,1.17,0,0,1,.308-.046.816.816,0,0,1,.484.152.849.849,0,0,1,.347.648,3.781,3.781,0,0,0,.111.592c.025.1.055.23.081.355.138.685.284,1.38.426,2.053.346-.331.7-.626,1.021-.885a13.5,13.5,0,0,1,3.946-2.2A12.98,12.98,0,0,1,172.331,189.947Z" transform="translate(-156.471 -180.496)"/>
        </g>
        <path id="Path_7859" data-name="Path 7859" d="M11.858,24.034l-1.32-4.77-4.29,1.29-.9,1.2-2.7-.45-.93,3.72-.87,4.17,1.95.45,1.5.6v2.49l-2.58.9v1.14l1.08,3.09,1.5,3.27.87.3,1.92-.75,1.8,1.44L9.105,43.5,8.067,45.09v.692l.554.392,5.4,3.923.992-.438L16.3,47.582l2.238.946L19,47.859,17,45.275l-.277-1.015,2.7-1.292.231-.844-3.507-1.855-2.423-2.723L11.275,34.36l-.736-4.716.736-4.56Z" transform="translate(-0.278 -6.315)" fill="#39bca9"/>
        <g id="Group_4364" data-name="Group 4364" transform="translate(0 12.355)">
          <path id="Path_7839" data-name="Path 7839" d="M128.209,284.911a1.342,1.342,0,0,1-.762-.324c-.626-.458-1.274-.912-1.9-1.351l-.79-.555-.831-.585q-1.079-.76-2.156-1.525a.8.8,0,0,1-.186-1.152c.245-.376.507-.748.76-1.107q.152-.216.3-.432a.379.379,0,0,1,.048-.057,2.907,2.907,0,0,0,.252-.344,2.96,2.96,0,0,0-.26-.333l-.128-.153a14.078,14.078,0,0,1-1.22-1.6.426.426,0,0,0-.033-.047.83.83,0,0,0-.108.038c-.624.26-1.352.557-2.084.8a.88.88,0,0,1-1.29-.6c-.411-1.077-.845-2.167-1.265-3.222q-.288-.725-.576-1.45c-.1-.25-.2-.5-.292-.753-.141-.365-.281-.73-.428-1.092a.842.842,0,0,1,0-.665,1.087,1.087,0,0,1,.641-.56c.259-.1.517-.2.775-.3.421-.167.855-.34,1.292-.5a14.762,14.762,0,0,1-.208-1.923c-.011-.166-.021-.333-.033-.5-.243-.043-.476-.087-.708-.131-.475-.09-.967-.182-1.45-.245a1.07,1.07,0,0,1-.779-.416,1.1,1.1,0,0,1-.128-.9c.162-.743.3-1.5.442-2.242.159-.851.324-1.731.52-2.594.143-.628.24-1.266.328-1.866a.994.994,0,0,1,.416-.692,1.037,1.037,0,0,1,.829-.14c.546.127,1.116.219,1.667.309.2.033.41.067.614.1h.007a7.035,7.035,0,0,1,.384-.82.793.793,0,0,1,.548-.409q.955-.235,1.911-.466,1.11-.27,2.219-.542l.034-.01a.469.469,0,0,1,.386.026.5.5,0,0,1,.221.336q.329,1.431.669,2.86l.292,1.238.167.058-.283.719c-.109.275-.218.549-.323.825a12.089,12.089,0,0,0-.655,2.622,11.114,11.114,0,0,0-.121,2.129,12.92,12.92,0,0,0,2.428,7.075,13.457,13.457,0,0,0,1.988,2.148,13.248,13.248,0,0,0,2.708,1.794,8.861,8.861,0,0,0,1.719.68.661.661,0,0,1,.546.522.51.51,0,0,1-.319.566l-.031.016-.634.463c-.769.561-1.564,1.142-2.357,1.7q.537.719,1.071,1.443.576.779,1.156,1.556a.667.667,0,0,1,.078.719.448.448,0,0,1-.64.189l-.015-.006a16.794,16.794,0,0,1-2.282-.727l-.419.59q-.442.622-.882,1.244a1.182,1.182,0,0,1-.722.563A.751.751,0,0,1,128.209,284.911Zm-5.018-6.617-.288.411c-.249.354-.507.72-.746,1.086-.1.147-.039.187.01.223q1.073.766,2.152,1.523l.831.586q.393.278.788.553c.63.441,1.28.9,1.913,1.36.253.185.34.2.367.191s.1-.033.273-.281q.44-.625.884-1.247l.434-.611a.605.605,0,0,1,.785-.222,17.179,17.179,0,0,0,1.881.623q-.487-.653-.97-1.308-.539-.729-1.08-1.455a.672.672,0,0,1-.159-.506.7.7,0,0,1,.325-.446c.788-.555,1.581-1.134,2.348-1.693l.535-.39a9.732,9.732,0,0,1-1.723-.7,13.931,13.931,0,0,1-2.846-1.886,14.143,14.143,0,0,1-2.09-2.257,13.6,13.6,0,0,1-2.562-7.448,11.776,11.776,0,0,1,.127-2.26,12.768,12.768,0,0,1,.693-2.769c.106-.279.216-.556.326-.834l.089-.224v-.051c0-.021,0-.042,0-.063v-.01l-.3-1.257q-.315-1.334-.625-2.669-1.037.256-2.076.507-.955.232-1.909.466c-.08.02-.086.026-.112.074a6.376,6.376,0,0,0-.347.742.644.644,0,0,1-.758.422c-.2-.035-.406-.068-.609-.1-.562-.091-1.143-.186-1.712-.318a.362.362,0,0,0-.289.039.313.313,0,0,0-.125.226c-.089.613-.189,1.267-.338,1.919-.193.85-.357,1.723-.515,2.568-.139.742-.282,1.509-.446,2.261a.491.491,0,0,0,.019.362.467.467,0,0,0,.308.131c.5.066,1,.16,1.488.251.265.05.531.1.8.146a.508.508,0,0,1,.459.513c.015.2.028.4.041.6a13.605,13.605,0,0,0,.207,1.887.565.565,0,0,1-.393.7c-.444.157-.893.336-1.327.509-.261.1-.521.207-.783.308a.455.455,0,0,0-.258.194.163.163,0,0,0,.007.136c.148.366.291.735.433,1.1.1.25.192.5.29.748q.286.725.575,1.448c.42,1.056.855,2.149,1.269,3.23.117.305.117.305.435.2.71-.236,1.424-.528,2.037-.783a.71.71,0,0,1,.984.279,13.566,13.566,0,0,0,1.163,1.523l.128.153c.562.669.563.859.007,1.558Zm9.456,4.939h0Zm-1.728-3.85Zm-11.444-23.556h0Zm.043-.025Z" transform="translate(-114.263 -253.161)"/>
          <path id="Path_7839_-_Outline" data-name="Path 7839 - Outline" d="M127.82,284.885a1.678,1.678,0,0,1-.975-.394c-.62-.454-1.264-.9-1.886-1.34l-.009-.006c-.28-.2-.533-.373-.791-.556l-.831-.585c-.707-.5-1.439-1.013-2.158-1.526a1.162,1.162,0,0,1-.279-1.644c.25-.383.513-.756.767-1.117l.045-.064q.128-.182.256-.365a.731.731,0,0,1,.075-.092l.076-.1-.089-.107-.128-.153a16.1,16.1,0,0,1-1.118-1.438c-.589.244-1.259.513-1.936.738a1.882,1.882,0,0,1-.595.108,1.226,1.226,0,0,1-1.147-.926c-.417-1.092-.867-2.221-1.263-3.217-.214-.537-.392-.985-.576-1.451-.092-.234-.184-.472-.273-.7l-.021-.053c-.137-.355-.278-.722-.426-1.087a1.2,1.2,0,0,1,0-.946,1.438,1.438,0,0,1,.843-.754c.256-.1.516-.2.767-.3l.014-.005c.328-.131.665-.265,1.006-.392-.09-.564-.125-1.122-.159-1.664l0-.048-.011-.168-.421-.079-.012,0c-.469-.088-.954-.18-1.43-.242a1.416,1.416,0,0,1-1.028-.566,1.449,1.449,0,0,1-.185-1.186c.16-.734.3-1.491.438-2.222l0-.009c.16-.854.325-1.737.523-2.607.14-.617.236-1.246.322-1.838a1.335,1.335,0,0,1,1.34-1.172,1.534,1.534,0,0,1,.345.04c.538.125,1.1.216,1.643.3h.007l.332.054c.087-.2.185-.4.29-.59a1.159,1.159,0,0,1,.779-.587c.574-.141,1.157-.283,1.72-.42l.192-.047c.685-.167,1.461-.355,2.212-.54l.027-.008a.963.963,0,0,1,.277-.044.764.764,0,0,1,.391.105.841.841,0,0,1,.391.567c.225.979.461,1.977.669,2.857l.246,1.044.335.117-.421,1.07c-.106.269-.216.546-.321.822a11.733,11.733,0,0,0-.635,2.544,10.757,10.757,0,0,0-.118,2.06,12.558,12.558,0,0,0,2.357,6.877,13.091,13.091,0,0,0,1.934,2.09,12.889,12.889,0,0,0,2.636,1.745,8.5,8.5,0,0,0,1.649.653.989.989,0,0,1,.81.813.87.87,0,0,1-.511.947h0l-.615.448c-.638.466-1.352.987-2.058,1.489.282.379.564.76.838,1.131l.019.026c.375.507.763,1.031,1.147,1.544a1.031,1.031,0,0,1,.111,1.1.785.785,0,0,1-.709.448,1,1,0,0,1-.383-.082,16.536,16.536,0,0,1-2.036-.634l-.33.465c-.265.373-.54.759-.807,1.139a1.521,1.521,0,0,1-.959.712A1.118,1.118,0,0,1,127.82,284.885Zm-5.654-5.428c.645.46,1.3.921,1.935,1.368l.869.613c.263.186.53.372.787.553l.012.008c.627.439,1.276.894,1.907,1.356l.083.059.048-.065c.283-.4.572-.808.851-1.2l.468-.658a.944.944,0,0,1,.79-.434,1.163,1.163,0,0,1,.42.084c.285.111.552.208.806.3l-.181-.244-.138-.187c-.352-.476-.717-.969-1.077-1.451a1.03,1.03,0,0,1-.227-.78,1.062,1.062,0,0,1,.474-.686c.779-.549,1.558-1.117,2.311-1.666a11.268,11.268,0,0,1-1.107-.494,14.286,14.286,0,0,1-2.919-1.935,14.506,14.506,0,0,1-2.143-2.315,13.967,13.967,0,0,1-2.634-7.646,12.131,12.131,0,0,1,.13-2.33,13.123,13.123,0,0,1,.713-2.846c.106-.28.218-.562.326-.834l.065-.164q0-.011,0-.021l-.285-1.208c-.169-.714-.357-1.512-.543-2.313l-1.624.4-.366.089-1.566.382a5.983,5.983,0,0,0-.281.614,1,1,0,0,1-.95.665,1.243,1.243,0,0,1-.206-.018c-.173-.03-.349-.058-.519-.086l-.088-.014c-.56-.091-1.14-.185-1.715-.318-.089.608-.189,1.255-.337,1.906-.191.841-.354,1.709-.511,2.549v0c-.139.743-.283,1.512-.448,2.272,0,.02-.007.037-.01.052l.03,0c.513.067,1.018.162,1.508.255h0c.259.049.526.1.789.144a.872.872,0,0,1,.759.842c.015.2.028.4.041.6a13.32,13.32,0,0,0,.2,1.838.924.924,0,0,1-.627,1.115c-.433.153-.873.328-1.3.5l-.016.006c-.239.1-.509.2-.776.3.131.328.257.654.379.97.092.239.19.493.289.745.194.492.4,1,.574,1.447.418,1.049.849,2.134,1.263,3.217.7-.232,1.4-.519,2-.771a1.371,1.371,0,0,1,.531-.122,1.03,1.03,0,0,1,.9.544,13.275,13.275,0,0,0,1.132,1.482l.129.153a1.6,1.6,0,0,1,.507,1,1.67,1.67,0,0,1-.5,1.017l-.024.028-.223.318-.055.078C122.606,278.815,122.378,279.137,122.166,279.457Z" transform="translate(-113.874 -252.773)"/>
        </g>
        <path id="Path_7858" data-name="Path 7858" d="M29.253,20.737h2.184l1.053,1.6v2.184l1.56,1.326,2.418-1.326h1.794L39,25.611v1.248L38.262,28.3l-1.794.468-.195.975v.936l.195.936,1.794.819.975,1.755L39,35.712l-1.092.546H36.663l-1.326-.546-.858-.546-.819-.234-.936.546-.234.585V37.7l-.546,1.014v.975H30.579l-1.326.195-.507-1.17-.312-1.677-.507-1.326-1.131-.78h-.624l-.858.234-.546.9h-2.3L21.8,34.932s-.195-.858-.195-1.014a4.464,4.464,0,0,1,.585-.9l1.443-1.248.936-.39.195-1.638-.663-.78-1.911-1.248-.585-1.17.585-1.443,1.248-.78h1.131l1.053.78,1.17.741,1.638-1.326V22.335Z" transform="translate(-7.084 -6.797)" fill="#39bca9"/>
        <g id="Group_4365" data-name="Group 4365" transform="translate(13.866 12.988)">
          <path id="Path_7840" data-name="Path 7840" d="M204.869,277.464h-.047a2.333,2.333,0,0,1-2.24-1.72,4.515,4.515,0,0,1-.068-1.8,3.8,3.8,0,0,0,.02-.591c0-.082,0-.163,0-.245a5.572,5.572,0,0,1-1.5-.875c-.562.337-1.165.68-1.893,1.075a2.186,2.186,0,0,1-2.36-.131,2.276,2.276,0,0,1-1.025-2.147,2.359,2.359,0,0,1,1.311-1.877l.3-.177c.43-.257.874-.522,1.326-.763h0c0-.01,0-.022-.006-.039a4.529,4.529,0,0,1,0-1.6.251.251,0,0,0,.006-.1h0a.249.249,0,0,0-.079-.054c-.7-.36-1.36-.768-1.855-1.083a2.23,2.23,0,0,1-.9-2.561,2.333,2.333,0,0,1,2.161-1.633,2.868,2.868,0,0,1,1.563.5l.192.106c.409.222.809.467,1.195.7l.042.026a7.174,7.174,0,0,1,1.467-.864c0-.241.023-.477.043-.707a4.811,4.811,0,0,0,.016-1.078,2.141,2.141,0,0,1,.416-1.63,2.309,2.309,0,0,1,4.058.583,2.74,2.74,0,0,1,.135.936v.659c0,.412,0,.823,0,1.235a5.134,5.134,0,0,1,1.49.872.429.429,0,0,0,.039-.021l.115-.068c.562-.332,1.144-.675,1.729-.994a2.282,2.282,0,0,1,2.153.007,2.218,2.218,0,0,1,1.2,1.746,2.434,2.434,0,0,1-.454,1.732,2.377,2.377,0,0,1-.825.667c-.056.032-.112.064-.167.1-.105.063-.21.129-.315.194a7.343,7.343,0,0,1-1.038.574c-.118.05-.125.053-.078.237a3.765,3.765,0,0,1-.018,1.575l.269.151c.546.305,1.111.621,1.649.974a2.14,2.14,0,0,1,1.009,1.993,2.265,2.265,0,0,1-1.759,2.159,2.351,2.351,0,0,1-1.885-.35c-.246-.144-.495-.284-.743-.425-.292-.165-.583-.33-.872-.5a5.059,5.059,0,0,1-1.5.862l-.005,0c0,.007,0,.015,0,.024.011.265.009.532.007.816,0,.124,0,.254,0,.391l0,.034a3.49,3.49,0,0,0,0,.445,3.188,3.188,0,0,1-.078,1.017A2.45,2.45,0,0,1,204.869,277.464Zm-3.827-5.945a.587.587,0,0,1,.365.14,4.9,4.9,0,0,0,1.422.826.5.5,0,0,1,.39.508c0,.115,0,.231,0,.346a4.346,4.346,0,0,1-.027.7,3.845,3.845,0,0,0,.053,1.533,1.655,1.655,0,0,0,1.6,1.208,1.788,1.788,0,0,0,1.555-1.142,2.616,2.616,0,0,0,.053-.805,4.2,4.2,0,0,1,0-.52c0-.133,0-.259,0-.38,0-.287,0-.535-.006-.784a.648.648,0,0,1,.452-.695,4.384,4.384,0,0,0,1.308-.754.588.588,0,0,1,.746-.072c.294.173.592.342.89.51.251.142.5.284.751.429a1.637,1.637,0,0,0,1.35.284,1.568,1.568,0,0,0,1.267-1.538,1.47,1.47,0,0,0-.7-1.386c-.518-.339-1.072-.649-1.607-.948l-.282-.158a.57.57,0,0,1-.335-.659l0-.031a3.21,3.21,0,0,0,.033-1.306.788.788,0,0,1,.475-1.036,6.75,6.75,0,0,0,.941-.523c.108-.068.216-.135.324-.2.059-.036.119-.07.18-.1a1.615,1.615,0,0,0,.94-1.732,1.544,1.544,0,0,0-.841-1.213,1.6,1.6,0,0,0-1.509-.013c-.575.313-1.151.654-1.709.983l-.115.068a.665.665,0,0,1-.825-.044,4.461,4.461,0,0,0-1.329-.77.57.57,0,0,1-.407-.6c0-.421,0-.842,0-1.263v-.661a2.081,2.081,0,0,0-.1-.709,1.551,1.551,0,0,0-1.361-1.082,1.523,1.523,0,0,0-1.5.682,1.459,1.459,0,0,0-.287,1.126,5.405,5.405,0,0,1-.012,1.232,6.946,6.946,0,0,0-.039.783.443.443,0,0,1-.32.45l-.019.007a6.5,6.5,0,0,0-1.441.849.526.526,0,0,1-.653.051l-.118-.073c-.379-.232-.77-.473-1.163-.686l-.2-.111a2.28,2.28,0,0,0-1.2-.411,1.629,1.629,0,0,0-1.533,1.147,1.553,1.553,0,0,0,.617,1.787c.482.307,1.122.7,1.8,1.051a.75.75,0,0,1,.434.879,3.791,3.791,0,0,0,0,1.357.656.656,0,0,1-.346.765c-.438.234-.875.495-1.3.747l-.3.178a1.7,1.7,0,0,0-.978,1.343,1.6,1.6,0,0,0,.726,1.527,1.493,1.493,0,0,0,1.651.1c.738-.4,1.345-.746,1.91-1.086A.623.623,0,0,1,201.042,271.519Zm6.063,1.591Z" transform="translate(-195.379 -256.865)"/>
          <path id="Path_7840_-_Outline" data-name="Path 7840 - Outline" d="M204.481,277.438h-.059a2.692,2.692,0,0,1-2.578-1.991,4.868,4.868,0,0,1-.076-1.945,3.53,3.53,0,0,0,.017-.53v-.008a5.871,5.871,0,0,1-1.168-.685c-.506.3-1.051.607-1.7.958a2.594,2.594,0,0,1-1.248.329A2.737,2.737,0,0,1,195,270.611a2.73,2.73,0,0,1,1.486-2.16l.3-.177c.362-.216.734-.439,1.116-.65a4.889,4.889,0,0,1,.009-1.344c-.661-.348-1.273-.727-1.74-1.025a2.589,2.589,0,0,1-1.056-2.971,2.7,2.7,0,0,1,2.493-1.891l.1,0a3.292,3.292,0,0,1,1.639.538l.021.012.179.1c.361.2.708.4,1.044.611a7.59,7.59,0,0,1,1.133-.66c.009-.177.024-.348.037-.505a4.548,4.548,0,0,0,.018-1,2.491,2.491,0,0,1,.485-1.9,2.615,2.615,0,0,1,2.113-1.118,2.713,2.713,0,0,1,.375.026,2.778,2.778,0,0,1,1.372.567,2.625,2.625,0,0,1,.83,1.2,3.077,3.077,0,0,1,.155,1.057v.658c0,.324,0,.657,0,.992a5.489,5.489,0,0,1,1.16.678c.519-.307,1.1-.65,1.677-.963a2.574,2.574,0,0,1,1.228-.31,2.744,2.744,0,0,1,1.266.315,2.574,2.574,0,0,1,1.4,2.027,2.781,2.781,0,0,1-.518,1.98,2.707,2.707,0,0,1-.94.772l-.029.017-.13.076c-.1.061-.2.124-.3.186l-.01.006a8.654,8.654,0,0,1-.931.53,3.793,3.793,0,0,1,0,1.356l.05.028c.551.308,1.122.627,1.67.987a2.5,2.5,0,0,1,1.172,2.315,2.653,2.653,0,0,1-.577,1.576,2.828,2.828,0,0,1-1.442.911,2.3,2.3,0,0,1-.641.092,3.025,3.025,0,0,1-1.527-.477c-.233-.136-.472-.271-.7-.4l-.035-.02c-.242-.137-.454-.257-.662-.377a5.413,5.413,0,0,1-1.168.671c0,.2,0,.4,0,.6v.035c0,.113,0,.23,0,.354v.017l0,.053a3.2,3.2,0,0,0,0,.388v.011a3.524,3.524,0,0,1-.092,1.126,2.616,2.616,0,0,1-.973,1.342A2.652,2.652,0,0,1,204.481,277.438Zm-.02-1.408a1.437,1.437,0,0,0,1.2-.879,2.319,2.319,0,0,0,.039-.692,4.6,4.6,0,0,1,0-.55c0-.112,0-.218,0-.321v-.046c0-.282,0-.526-.005-.767a1,1,0,0,1,.689-1.049,4.024,4.024,0,0,0,1.2-.692,1,1,0,0,1,.645-.258,1.015,1.015,0,0,1,.518.152c.28.165.554.321.884.507l0,0c.246.14.5.284.751.429a1.668,1.668,0,0,0,.815.286.892.892,0,0,0,.252-.037,1.213,1.213,0,0,0,1.007-1.209,1.116,1.116,0,0,0-.538-1.065c-.507-.332-1.055-.639-1.585-.935l-.282-.158a.927.927,0,0,1-.516-1.031l0-.03a2.915,2.915,0,0,0,.04-1.16,1.148,1.148,0,0,1,.685-1.46,6.488,6.488,0,0,0,.889-.5c.105-.066.218-.136.329-.2l.171-.1.015-.009a1.52,1.52,0,0,0,.492-.363,1.394,1.394,0,0,0,.269-1.016,1.187,1.187,0,0,0-.649-.931,1.329,1.329,0,0,0-.613-.154,1.164,1.164,0,0,0-.555.139c-.572.312-1.144.65-1.7.976l-.115.068a1.144,1.144,0,0,1-.584.172,1.019,1.019,0,0,1-.658-.25,4.1,4.1,0,0,0-1.222-.708.926.926,0,0,1-.643-.94c0-.421,0-.847,0-1.26v-.661a1.721,1.721,0,0,0-.076-.589,1.189,1.189,0,0,0-1.071-.844,1.326,1.326,0,0,0-.187-.014,1.19,1.19,0,0,0-.976.554,1.1,1.1,0,0,0-.218.859,5.676,5.676,0,0,1-.009,1.312,6.7,6.7,0,0,0-.038.745.809.809,0,0,1-.555.8l-.006,0a6.141,6.141,0,0,0-1.351.795.887.887,0,0,1-1.072.08l-.135-.083c-.369-.227-.751-.461-1.129-.666l-.2-.113a2.074,2.074,0,0,0-.978-.365h-.035a1.271,1.271,0,0,0-1.2.89,1.2,1.2,0,0,0,.465,1.377c.476.3,1.107.694,1.77,1.034a1.114,1.114,0,0,1,.626,1.264,3.436,3.436,0,0,0,0,1.229,1.01,1.01,0,0,1-.532,1.148c-.433.231-.865.49-1.282.739l-.3.178a1.359,1.359,0,0,0-.8,1.061,1.238,1.238,0,0,0,.567,1.2,1.251,1.251,0,0,0,.7.239h0a1.211,1.211,0,0,0,.578-.16c.729-.4,1.332-.738,1.9-1.078a.982.982,0,0,1,.51-.152.943.943,0,0,1,.588.217,4.558,4.558,0,0,0,1.318.77.855.855,0,0,1,.633.861c0,.1,0,.2,0,.31v.02a4.687,4.687,0,0,1-.031.757,3.492,3.492,0,0,0,.045,1.39A1.3,1.3,0,0,0,204.461,276.03Z" transform="translate(-194.991 -256.477)"/>
        </g>
      </g>
    </g>
  </g>
</svg>
