<svg xmlns="http://www.w3.org/2000/svg" xmlns:xlink="http://www.w3.org/1999/xlink" width="84" height="84" viewBox="0 0 84 84">
  <defs>
    <filter id="Ellipse_18">
      <feOffset input="SourceAlpha"/>
      <feGaussianBlur stdDeviation="3" result="blur"/>
      <feFlood flood-opacity="0.451" result="color"/>
      <feComposite operator="out" in="SourceGraphic" in2="blur"/>
      <feComposite operator="in" in="color"/>
      <feComposite operator="in" in2="SourceGraphic"/>
    </filter>
  </defs>
  <g id="Group_4627" data-name="Group 4627" transform="translate(-59 -962)">
    <g data-type="innerShadowGroup">
      <circle id="Ellipse_18-2" data-name="Ellipse 18" cx="42" cy="42" r="42" transform="translate(59 962)" fill="#fff"/>
      <g transform="matrix(1, 0, 0, 1, 59, 962)" filter="url(#Ellipse_18)">
        <circle id="Ellipse_18-3" data-name="Ellipse 18" cx="42" cy="42" r="42" fill="#fff"/>
      </g>
      <g id="Ellipse_18-4" data-name="Ellipse 18" transform="translate(59 962)" fill="none" stroke="#707070" stroke-width="1">
        <circle cx="42" cy="42" r="42" stroke="none"/>
        <circle cx="42" cy="42" r="41.5" fill="none"/>
      </g>
    </g>
    <g id="Group_4388" data-name="Group 4388" transform="translate(260 -438.67)">
      <g id="Group_4370" data-name="Group 4370" transform="translate(-180 1420.67)">
        <path id="Path_7843" data-name="Path 7843" d="M271.255,393.555c-9.716,1.522-16.224-5.688-16.3-12.788a13.375,13.375,0,0,1,13.426-13.891c7.759.034,14.638,6.78,13.179,16.4a13.371,13.371,0,0,1,12.869,4.287,12.815,12.815,0,0,1,3.388,10.083A13.6,13.6,0,0,1,283.6,409.908,13.8,13.8,0,0,1,271.255,393.555Zm9.146-13.02a12.178,12.178,0,0,0-15-12.024,12.332,12.332,0,0,0-9.176,12.551c.371,7.18,7.538,12.742,14.541,11.158a1.975,1.975,0,0,0,1.5-1.266,12.67,12.67,0,0,1,6.243-6.446,2.807,2.807,0,0,0,1.827-2.815C280.342,381.236,280.386,380.781,280.4,380.534Zm4.018,28.036a12.1,12.1,0,1,0-.294-24.191,11.827,11.827,0,0,0-11.768,11.971A11.95,11.95,0,0,0,284.419,408.57Z" transform="translate(-254.955 -366.875)"/>
        <path id="Path_7844" data-name="Path 7844" d="M290.382,434.352h9.648c0-1.421.013-2.811-.007-4.2-.008-.569.038-1.164.719-1.127.217.012.546.714.564,1.112.067,1.506,0,3.018.039,4.526.024.845-.256,1.2-1.146,1.194-3.333-.034-6.668-.025-10,0-.784,0-1.167-.255-1.15-1.093.033-1.578-.03-3.16.041-4.736.015-.338.427-.658.655-.987.213.337.591.665.608,1.012C290.423,431.441,290.382,432.841,290.382,434.352Z" transform="translate(-281.856 -415.914)"/>
        <circle id="Ellipse_13" data-name="Ellipse 13" cx="2.811" cy="2.811" r="2.811" transform="translate(10.62 7.702)" fill="#39bca9"/>
        <path id="Path_7845" data-name="Path 7845" d="M308.94,403.548a3.526,3.526,0,0,1-3.413,3.336,3.641,3.641,0,0,1-3.365-3.426,3.6,3.6,0,0,1,3.4-3.38A3.508,3.508,0,0,1,308.94,403.548Zm-3.389-2.122a1.986,1.986,0,0,0-2.074,2.037,2.106,2.106,0,0,0,2.063,2.093,1.986,1.986,0,0,0,2.088-2.123A1.937,1.937,0,0,0,305.551,401.426Z" transform="translate(-292.204 -393.075)"/>
        <path id="Path_7860" data-name="Path 7860" d="M40.869,36.356h4.523V41.02h4.57v4.664h-4.57v4.57H40.869v-4.57H36.158V41.02h4.711Z" transform="translate(-13.571 -13.645)" fill="#39bca9"/>
        <path id="Path_7846" data-name="Path 7846" d="M363.512,475.817c0-1.4.006-2.556,0-3.709,0-.653.283-.959.955-.947,1.334.024,2.669.039,4,.011.744-.016,1,.354,1,1.023,0,1.153,0,2.306,0,3.614,1.254,0,2.375.036,3.493-.012.84-.037,1.125.343,1.113,1.121-.02,1.264-.017,2.529,0,3.793.008.757-.341,1.073-1.094,1.055-1.116-.027-2.233-.007-3.5-.007,0,1.22-.017,2.332.005,3.444.017.842-.341,1.214-1.2,1.188-1.193-.035-2.389-.033-3.582,0-.831.023-1.227-.275-1.192-1.155.044-1.114.011-2.231.011-3.471-1.259,0-2.341-.035-3.42.011-.921.04-1.245-.344-1.205-1.246.055-1.262.039-2.528.014-3.792-.013-.682.273-.942.941-.927C361,475.836,362.157,475.817,363.512,475.817Zm1.271-3.285c0,1.053.014,2.028,0,3-.025,1.442-.034,1.46-1.436,1.5-1.008.032-2.017.006-3.066.006v3.446c1.2,0,2.355.033,3.5-.011.79-.03,1.063.3,1.04,1.056-.035,1.144-.009,2.289-.009,3.532.963,0,1.765-.029,2.564.01.61.03.8-.232.791-.8-.011-.912.094-1.829.032-2.736-.059-.876.312-1.092,1.1-1.059,1.112.046,2.227.012,3.371.012V477.18l-4.492-.233v-4.415Z" transform="translate(-336.969 -449.164)"/>
      </g>
    </g>
  </g>
</svg>
