<svg xmlns="http://www.w3.org/2000/svg" width="42.14" height="55.323" viewBox="0 0 42.14 55.323">
  <g id="Group_4827" data-name="Group 4827" transform="translate(0)">
    <path id="Path_9313" data-name="Path 9313" d="M1395.161,201.543h-28.172V198.09h28.172Z" transform="translate(-1356.628 -146.22)" fill="#39bca9"/>
    <path id="Path_9315" data-name="Path 9315" d="M1383.191,201.543h-16.2V198.09h16.2Z" transform="translate(-1366.988 -161.761)" fill="#39bca9"/>
    <path id="Path_9314" data-name="Path 9314" d="M1383.4,212.327a22.718,22.718,0,0,1-6.748-1.032,17.8,17.8,0,0,1-11.915-12.075l3.289-1.054a14.3,14.3,0,0,0,9.558,9.8,18.82,18.82,0,0,0,6.974.861l.075-.008h.06a14.608,14.608,0,0,0,5.93-1.8c3.831-2.162,5.959-5.859,6.329-10.991a15.681,15.681,0,0,0-4.339-10.836,18.225,18.225,0,0,0-4.487-3.585l1.565-3.079a21.3,21.3,0,0,1,5.367,4.221,19.3,19.3,0,0,1,5.347,13.338l0,.119c-.556,8.045-4.778,12-8.221,13.9a18.005,18.005,0,0,1-7.313,2.162C1384.683,212.285,1384.163,212.327,1383.4,212.327Z" transform="translate(-1358.265 -160.435)" fill="#39bca9"/>
    <rect id="Rectangle_4104" data-name="Rectangle 4104" width="22.448" height="17.268" rx="8.634" transform="translate(7.31 19.116) rotate(-45)" fill="#36b5a3" opacity="0.5"/>
    <path id="Rectangle_4104_-_Outline" data-name="Rectangle 4104 - Outline" d="M3.454,3.454V13.814H18.995V3.454H3.454M3.454,0H18.995a3.454,3.454,0,0,1,3.454,3.454V13.814a3.454,3.454,0,0,1-3.454,3.454H3.454A3.454,3.454,0,0,1,0,13.814V3.454A3.454,3.454,0,0,1,3.454,0Z" transform="translate(7.31 19.116) rotate(-45)" fill="#39bca9"/>
    <path id="Rectangle_4105" data-name="Rectangle 4105" d="M3.84,3.454v5.88H7.68V3.454H3.84M1.92,0H9.6a1.831,1.831,0,0,1,1.92,1.727V11.06A1.831,1.831,0,0,1,9.6,12.787H1.92A1.831,1.831,0,0,1,0,11.06V1.727A1.831,1.831,0,0,1,1.92,0Z" transform="translate(3.58 26.805) rotate(-45)" fill="#39bca9"/>
    <path id="Rectangle_4106" data-name="Rectangle 4106" d="M3.383,3.454v5.88H6.767V3.454H3.383M1.692,0H8.458A1.709,1.709,0,0,1,10.15,1.727V11.06a1.709,1.709,0,0,1-1.692,1.727H1.692A1.709,1.709,0,0,1,0,11.06V1.727A1.709,1.709,0,0,1,1.692,0Z" transform="translate(22.314 7.177) rotate(-45)" fill="#39bca9"/>
  </g>
</svg>
