<svg id="Group_4828" data-name="Group 4828" xmlns="http://www.w3.org/2000/svg" width="53.167" height="53.167" viewBox="0 0 53.167 53.167">
  <path id="Path_9311" data-name="Path 9311" d="M1283,185.991s-5.685,4.954,0,11.851" transform="translate(-1267.665 -157.742)" fill="none" stroke="#39bca9" stroke-linecap="round" stroke-width="1.5"/>
  <path id="Path_9312" data-name="Path 9312" d="M1283.234,186.4l18.384,18.384,12.828-14.88.681-6.4-3-6.943-6.535-3.4h-6.263l-4.357,2.723Z" transform="translate(-1268.591 -166.388)" fill="#39bca9" opacity="0.5"/>
  <g id="Path_9313" data-name="Path 9313" transform="translate(0 34.674) rotate(-45)" fill="none">
    <path d="M13.076,0H35.96a13.076,13.076,0,0,1,0,26.153H13.076A13.076,13.076,0,0,1,13.076,0Z" stroke="none"/>
    <path d="M 13.07641983032227 1.999996185302734 C 10.1177978515625 1.999996185302734 7.336269378662109 3.152145385742188 5.244209289550781 5.244205474853516 C 3.152149200439453 7.336265563964844 2 10.11779594421387 2 13.076416015625 C 2 16.03503608703613 3.152149200439453 18.81656646728516 5.244209289550781 20.90862655639648 C 7.336269378662109 23.00068664550781 10.1177978515625 24.15283584594727 13.07641983032227 24.15283584594727 L 35.96014785766602 24.15283584594727 C 38.91875839233398 24.15283584594727 41.70028686523438 23.00068664550781 43.7923469543457 20.90862655639648 C 45.88440704345703 18.81656646728516 47.03656005859375 16.03503608703613 47.03656005859375 13.076416015625 C 47.03656005859375 10.11779594421387 45.88440704345703 7.336265563964844 43.7923469543457 5.244205474853516 C 41.70029830932617 3.152145385742188 38.91876983642578 1.999996185302734 35.96014785766602 1.999996185302734 L 13.07641983032227 1.999996185302734 M 13.07641983032227 -3.814697265625e-06 L 35.96014785766602 -3.814697265625e-06 C 43.18204879760742 -3.814697265625e-06 49.03655624389648 5.85450553894043 49.03655624389648 13.076416015625 C 49.03655624389648 20.29831695556641 43.18204879760742 26.15283584594727 35.96014785766602 26.15283584594727 L 13.07641983032227 26.15283584594727 C 5.854507446289062 26.15283584594727 0 20.29831695556641 0 13.076416015625 C 0 5.85450553894043 5.854507446289062 -3.814697265625e-06 13.07641983032227 -3.814697265625e-06 Z" stroke="none" fill="#39bca9"/>
  </g>
</svg>
