<svg xmlns="http://www.w3.org/2000/svg" xmlns:xlink="http://www.w3.org/1999/xlink" width="84" height="84" viewBox="0 0 84 84">
  <defs>
    <filter id="Ellipse_15">
      <feOffset input="SourceAlpha"/>
      <feGaussianBlur stdDeviation="3" result="blur"/>
      <feFlood flood-opacity="0.451" result="color"/>
      <feComposite operator="out" in="SourceGraphic" in2="blur"/>
      <feComposite operator="in" in="color"/>
      <feComposite operator="in" in2="SourceGraphic"/>
    </filter>
  </defs>
  <g id="Group_4624" data-name="Group 4624" transform="translate(-59 -542)">
    <g data-type="innerShadowGroup">
      <circle id="Ellipse_15-2" data-name="Ellipse 15" cx="42" cy="42" r="42" transform="translate(59 542)" fill="#fff"/>
      <g transform="matrix(1, 0, 0, 1, 59, 542)" filter="url(#Ellipse_15)">
        <circle id="Ellipse_15-3" data-name="Ellipse 15" cx="42" cy="42" r="42" fill="#fff"/>
      </g>
      <g id="Ellipse_15-4" data-name="Ellipse 15" transform="translate(59 542)" fill="none" stroke="#707070" stroke-width="1">
        <circle cx="42" cy="42" r="42" stroke="none"/>
        <circle cx="42" cy="42" r="41.5" fill="none"/>
      </g>
    </g>
    <g id="Group_4385" data-name="Group 4385" transform="translate(165.982 -506.06)">
      <rect id="Rectangle_3781" data-name="Rectangle 3781" width="1.991" height="1.991" transform="translate(-83.018 1086.469)" fill="#39bca9"/>
      <rect id="Rectangle_3795" data-name="Rectangle 3795" width="1.991" height="1.991" transform="translate(-52.159 1086.469)" fill="#39bca9"/>
      <rect id="Rectangle_3783" data-name="Rectangle 3783" width="1.991" height="1.991" transform="translate(-83.018 1090.451)" fill="#39bca9"/>
      <rect id="Rectangle_3794" data-name="Rectangle 3794" width="1.991" height="1.991" transform="translate(-52.159 1090.451)" fill="#39bca9"/>
      <rect id="Rectangle_3785" data-name="Rectangle 3785" width="1.991" height="1.991" transform="translate(-83.018 1094.432)" fill="#39bca9"/>
      <rect id="Rectangle_3791" data-name="Rectangle 3791" width="1.991" height="1.991" transform="translate(-52.159 1094.432)" fill="#39bca9"/>
      <rect id="Rectangle_3787" data-name="Rectangle 3787" width="1.991" height="1.991" transform="translate(-83.018 1098.414)" fill="#39bca9"/>
      <rect id="Rectangle_3790" data-name="Rectangle 3790" width="1.991" height="1.991" transform="translate(-52.159 1098.414)" fill="#39bca9"/>
      <rect id="Rectangle_3798" data-name="Rectangle 3798" width="1.991" height="1.991" transform="translate(-69.58 1088.957) rotate(90)" fill="#39bca9"/>
      <rect id="Rectangle_3801" data-name="Rectangle 3801" width="1.991" height="1.991" transform="translate(-66.096 1088.957) rotate(90)" fill="#39bca9"/>
      <rect id="Rectangle_3803" data-name="Rectangle 3803" width="1.991" height="1.991" transform="translate(-62.114 1088.957) rotate(90)" fill="#39bca9"/>
      <rect id="Rectangle_3805" data-name="Rectangle 3805" width="1.991" height="1.991" transform="translate(-58.63 1088.957) rotate(90)" fill="#39bca9"/>
      <rect id="Rectangle_3799" data-name="Rectangle 3799" width="2.489" height="1.991" transform="translate(-69.58 1091.944) rotate(90)" fill="#39bca9"/>
      <rect id="Rectangle_3800" data-name="Rectangle 3800" width="2.489" height="1.991" transform="translate(-66.096 1091.944) rotate(90)" fill="#39bca9"/>
      <rect id="Rectangle_3802" data-name="Rectangle 3802" width="2.489" height="1.991" transform="translate(-62.114 1091.944) rotate(90)" fill="#39bca9"/>
      <rect id="Rectangle_3804" data-name="Rectangle 3804" width="2.489" height="1.991" transform="translate(-58.63 1091.944) rotate(90)" fill="#39bca9"/>
      <rect id="Rectangle_3782" data-name="Rectangle 3782" width="2.489" height="1.991" transform="translate(-79.534 1086.469)" fill="#39bca9"/>
      <rect id="Rectangle_3796" data-name="Rectangle 3796" width="2.489" height="1.991" transform="translate(-48.675 1086.469)" fill="#39bca9"/>
      <rect id="Rectangle_3784" data-name="Rectangle 3784" width="2.489" height="1.991" transform="translate(-79.534 1090.451)" fill="#39bca9"/>
      <rect id="Rectangle_3793" data-name="Rectangle 3793" width="2.489" height="1.991" transform="translate(-48.675 1090.451)" fill="#39bca9"/>
      <rect id="Rectangle_3786" data-name="Rectangle 3786" width="2.489" height="1.991" transform="translate(-79.534 1094.432)" fill="#39bca9"/>
      <rect id="Rectangle_3792" data-name="Rectangle 3792" width="2.489" height="1.991" transform="translate(-48.675 1094.432)" fill="#39bca9"/>
      <rect id="Rectangle_3788" data-name="Rectangle 3788" width="2.489" height="1.991" transform="translate(-79.534 1098.414)" fill="#39bca9"/>
      <rect id="Rectangle_3789" data-name="Rectangle 3789" width="2.489" height="1.991" transform="translate(-48.675 1098.414)" fill="#39bca9"/>
      <path id="Path_7856" data-name="Path 7856" d="M84.939,26.455v2.31H82.718v2.754h2.221v2.266H87.76V31.519h2.266V28.765H87.649v-2.31Z" transform="translate(-151.406 1051.281)" fill="#39bca9"/>
      <g id="Group_4356" data-name="Group 4356" transform="translate(-88.982 1073.06)">
        <path id="Path_7855" data-name="Path 7855" d="M42.164,45.966h6.052v7.483H42.164Z" transform="translate(-21.178 -23.087)" fill="#39bca9"/>
        <g id="Group_4354" data-name="Group 4354">
          <path id="Path_7831" data-name="Path 7831" d="M180.526,191.623H132.883v-4.006h2.748V166.086h11.307v21.522h.547v-30.1h18.446V187.57h.548V166.084h11.526v21.5h2.52Zm-47.038-.6h46.433v-2.83H177.4v-21.5H167.084v21.486h-1.758V158.11H148.09v30.1h-1.757V166.691h-10.1v21.531h-2.748Zm26.667-2.943h-6.779v-8.216h6.779Zm-6.174-.6h5.57v-7.007h-5.57Zm21.839-2.108h-2.928v-2.931h2.928Zm-2.324-.6h1.719v-1.721H173.5Zm-32.305.6h-2.95v-.8c0-.565,0-1.1.011-1.645a.6.6,0,0,1,.526-.508c.533-.014,1.056-.012,1.609-.011h.8Zm-2.346-.6h1.741v-1.75h-.2c-.528,0-1.028,0-1.531.009-.012.51-.011,1.016-.009,1.549Zm33.273.6h-2.942v-2.933h2.942Zm-2.337-.6h1.732v-1.723H169.78Zm-24.879.6h-2.93v-2.928h2.93Zm-2.325-.6H144.3v-1.719h-1.721Zm29.538-3.349h-2.94v-2.925h2.94Zm-2.335-.6h1.73v-1.716h-1.73Zm-28.578.6h-2.94v-2.936h2.94Zm-2.335-.6h1.73v-1.726h-1.73Zm6.037.6H141.97v-2.92H144.9Zm-2.327-.6H144.3v-1.711h-1.722Zm33.245.6H172.9v-2.916h2.917Zm-2.312-.6h1.707v-1.707h-1.707Zm-20.9-1.768h-2.95v-2.964h.774c.581,0,1.129,0,1.691.009a.541.541,0,0,1,.477.48c.01.562.01,1.113.009,1.7Zm-2.346-.6H152v-.174c0-.542,0-1.055-.007-1.574-.516-.008-1.027-.008-1.565-.007h-.17Zm6.043.6h-2.93V176.08h2.93Zm-2.325-.6H155.7v-1.727h-1.721Zm6.054.6h-2.929v-2.894l.264-.034.08-.011a1.121,1.121,0,0,1,.178-.018h2.407Zm-2.324-.6h1.719v-1.749h-1.719Zm6.058.6h-2.94v-2.927h2.94Zm-2.336-.6h1.731v-1.718h-1.731Zm9.482-1.1-.3-.027a3.355,3.355,0,0,0-.342,0,1.3,1.3,0,0,1-.955-.219,1.175,1.175,0,0,1-.181-.971c.01-.121.019-.234.017-.331,0-.144,0-.288,0-.432s0-.311,0-.467a.6.6,0,0,1,.147-.451.577.577,0,0,1,.419-.148c.252,0,.5,0,.756,0,.37,0,.751,0,1.129.012a.628.628,0,0,1,.53.538c.021.633.021,1.271,0,1.9a.63.63,0,0,1-.52.528,6.174,6.174,0,0,1-.69.016Zm-1.162-2.445c0,.155,0,.31,0,.465,0,.139,0,.279,0,.418s-.008.26-.019.39a1.533,1.533,0,0,0,.005.5,1.475,1.475,0,0,0,.518.041h.1l0-.025h.282l.266,0c.212,0,.413.007.609-.01l.01-.009c.018-.579.018-1.167,0-1.749l-.005-.006c-.348-.01-.7-.01-1.049-.01C170.233,174.862,169.994,174.862,169.754,174.859Zm1.75,1.784Zm-1.83-1.783Zm4.962,2.384c-.432,0-.871,0-1.3-.01a.541.541,0,0,1-.454-.5c-.009-.547-.009-1.084-.008-1.653v-.791h2.958v2.958h-1.193Zm-1.155-.612c.526.009,1.046.008,1.593.007h.149v-1.749h-1.749v.187C173.474,175.612,173.473,176.119,173.481,176.631Zm-28.573.591h-2.928v-2.945h2.928Zm-2.323-.6H144.3v-1.736h-1.718Zm-1.38.6h-2.968v-.3c0-.115,0-.231,0-.347,0-.264,0-.537,0-.809,0-.1,0-.208-.012-.326a1.247,1.247,0,0,1,.2-1,1.268,1.268,0,0,1,1-.184c.12.008.234.016.332.014.252-.005.5,0,.772,0h.676Zm-2.364-.6H140.6v-1.749h-.074c-.262,0-.509,0-.756,0-.126,0-.258-.007-.387-.016a1.474,1.474,0,0,0-.537.018,1.664,1.664,0,0,0-.015.529c.008.126.016.255.012.377-.007.262-.005.531,0,.79C138.842,176.576,138.842,176.592,138.842,176.608Zm17.389-.834h-2.915V172.85h2.915Zm-2.31-.6h1.705v-1.714h-1.705Zm-1.408.6H149.6v-2.936h2.914Zm-2.309-.6h1.7v-1.727h-1.7Zm13.473.6H160.72v-.792c0-.567,0-1.1.012-1.648a.6.6,0,0,1,.53-.5c.531-.013,1.053-.011,1.606-.01h.809Zm-2.351-.6h1.746V173.42h-.205c-.529,0-1.029,0-1.532.009-.012.508-.01,1.012-.009,1.545Zm-1.364.588h-2.922v-2.9h2.922Zm-2.317-.6h1.712v-1.692h-1.712Zm18.171-1.977H172.9v-2.916h2.919Zm-2.314-.6h1.709v-1.706H173.5Zm-1.386.6h-2.941v-2.923h2.941Zm-2.336-.6h1.731v-1.713h-1.731Zm-28.584.6h-2.942v-2.92H141.2Zm-2.337-.6h1.732v-1.71h-1.732Zm6.059.6h-2.931v-2.908h2.931Zm-2.326-.6h1.721v-1.7h-1.721Zm14.111-.66a6.179,6.179,0,0,1-6.155-6.114,6.081,6.081,0,0,1,1.768-4.348,6.155,6.155,0,0,1,4.373-1.856,6.179,6.179,0,0,1,6.184,6.161,6.168,6.168,0,0,1-6.142,6.158H156.7Zm.027-11.714h-.037a5.554,5.554,0,0,0-3.946,1.675,5.48,5.48,0,0,0-1.594,3.918,5.573,5.573,0,0,0,5.551,5.516h.025a5.547,5.547,0,0,0,3.884-9.5A5.483,5.483,0,0,0,156.73,160.176Z" transform="translate(-132.793 -157.415)"/>
          <path id="Path_7831_-_Outline" data-name="Path 7831 - Outline" d="M180.456,191.554H132.633v-4.186h2.748V165.836h11.488v21.522h.367v-30.1h18.626V187.32h.368V165.834h11.707v21.5h2.52Zm-47.643-.181h47.462v-3.859h-2.52v-21.5H166.41V187.5h-.729V157.436H147.416v30.1h-.728V166.016H135.562v21.531h-2.748Zm47.038-.424H133.238v-2.977h2.748V166.441h10.278v21.522h1.576v-30.1h17.417v30.065h1.577V166.438h10.5v21.5h2.52Zm-46.433-.181h46.253v-2.65h-2.52v-21.5H167.015V188.1h-1.938V158.04H148.021v30.1h-1.938V166.621h-9.917v21.531h-2.748Zm26.667-2.762h-6.96v-8.4h6.96Zm-6.779-.181h6.6V179.79h-6.6Zm6.174-.424h-5.75v-7.187h5.75Zm-5.57-.181H159.3v-6.826h-5.389Zm21.839-1.927h-3.109v-3.111h3.109Zm-2.928-.181h2.748v-2.75h-2.748Zm-31.7.18h-3.131v-.885c0-.563,0-1.1.011-1.647a.693.693,0,0,1,.614-.6c.4-.01.794-.012,1.126-.012h1.38Zm-2.95-.181h2.77v-2.778h-1.2c-.331,0-.723,0-1.122.011a.516.516,0,0,0-.438.421c-.014.549-.013,1.08-.011,1.642Zm33.877.18h-3.122v-3.113h3.122Zm-2.942-.181h2.761v-2.752h-2.761Zm-24.275.18h-3.111v-3.109h3.111Zm-2.93-.181h2.75v-2.747H141.9Zm33.244-.422h-1.9v-1.9h1.9Zm-1.719-.181h1.538v-1.541h-1.538Zm-32.91.18h-1.921v-.29c0-.532,0-1.034.009-1.543l0-.086.086,0c.377-.009.745-.01,1.055-.01h.769Zm-1.741-.181h1.561v-1.569h-.589c-.286,0-.62,0-.965.008-.01.477-.009.951-.008,1.452Zm32.668.18H169.53v-1.9h1.913Zm-1.732-.181h1.552v-1.542h-1.552Zm-25.484.18h-1.9v-1.9h1.9Zm-1.721-.181h1.54v-1.538h-1.54Zm29.538-3.169h-3.12v-3.106h3.12Zm-2.94-.181h2.759v-2.745H169.1Zm-27.973.179h-3.12v-3.116h3.12Zm-2.94-.181h2.759V178.4h-2.759Zm6.642.173H141.72v-3.1h3.113Zm-2.932-.181h2.751v-2.74H141.9Zm33.85.175h-3.1v-3.1h3.1Zm-2.917-.181h2.736v-2.736h-2.736Zm-1.395-.409h-1.911v-1.9h1.911Zm-1.73-.181h1.55v-1.535h-1.55Zm-29.183.179h-1.911v-1.907h1.911Zm-1.73-.181h1.55V179H138.8Zm5.432.173h-1.9v-1.891h1.9Zm-1.722-.181h1.542v-1.53h-1.542Zm32.641.175h-1.888v-1.887h1.888Zm-1.707-.181h1.527V179.01h-1.527Zm-20.9-1.587h-3.131v-3.144h1.335c.355,0,.779,0,1.222.009a.632.632,0,0,1,.566.569c.01.561.01,1.11.009,1.692Zm-2.95-.181h2.77v-.695c0-.581,0-1.129-.009-1.688a.455.455,0,0,0-.389-.392c-.441-.008-.864-.009-1.218-.009H149.59Zm6.648.178h-3.111V175.83h3.111Zm-2.93-.181h2.75V176.01h-2.75Zm6.658.18h-3.109v-3.064l.343-.044.071-.01h.007a1.2,1.2,0,0,1,.192-.019h2.5Zm-2.929-.181h2.748v-2.778h-2.316a1.049,1.049,0,0,0-.164.017H157.3l-.076.011-.185.024Zm6.663.178h-3.121v-3.108H163.7Zm-2.94-.181h2.76v-2.746h-2.76Zm-8.824-.419h-1.921V176.41h.726c.438,0,.778,0,1.1.007h.087v.087c.008.517.008,1.027.007,1.568Zm-1.741-.181h1.561v-.091c0-.509,0-.992-.005-1.477-.3,0-.612-.006-1.01-.006h-.545Zm5.438.178h-1.9v-1.908h1.9Zm-1.721-.181h1.54v-1.547h-1.54Zm5.449.18h-1.9v-1.928h1.9Zm-1.719-.181h1.539v-1.568h-1.539Zm5.453.178h-1.911v-1.9h1.911Zm-1.731-.181h1.55v-1.537h-1.55Zm9.475-.917-.393-.034c-.048,0-.1-.006-.176-.006l-.156,0h0l-.163,0a1.18,1.18,0,0,1-.853-.246,1.254,1.254,0,0,1-.209-1.043c.009-.118.018-.229.016-.322,0-.142,0-.281,0-.434s0-.309,0-.465a.682.682,0,0,1,.173-.517.661.661,0,0,1,.482-.175h0c.15,0,.313,0,.514,0h.4c.331,0,.654,0,.977.012a.719.719,0,0,1,.617.626c.021.633.021,1.275,0,1.905a.721.721,0,0,1-.6.615c-.133.013-.278.019-.457.019h-.159Zm-.569-.221c.078,0,.139,0,.192.007l.212.019,0-.048h.084l.24,0c.173,0,.313-.006.439-.018a.546.546,0,0,0,.438-.441c.021-.627.021-1.264,0-1.893a.543.543,0,0,0-.442-.451c-.32-.011-.641-.012-.971-.012h-.4c-.2,0-.365,0-.515,0a.489.489,0,0,0-.355.121.507.507,0,0,0-.121.386c0,.158,0,.316,0,.47s0,.29,0,.43c0,.1-.007.217-.017.34-.027.343-.056.7.154.9a1,1,0,0,0,.728.2l.16,0h0Zm4.207.153c-.39,0-.849,0-1.305-.01a.631.631,0,0,1-.543-.593c-.009-.545-.009-1.08-.008-1.645v-.891h3.139v3.138h-1.283Zm-1.675-2.959v.711c0,.565,0,1.1.008,1.642,0,.161.168.411.366.416.454.009.913.01,1.3.01h1.1v-2.777Zm-27.962,2.937h-3.108v-3.126h3.108Zm-2.928-.181h2.747v-2.765h-2.747Zm-.775.172h-3.148v-.393c0-.092,0-.185,0-.278V176.4c0-.264,0-.537,0-.811,0-.092,0-.2-.012-.318a1.308,1.308,0,0,1,.227-1.073.982.982,0,0,1,.71-.226c.119,0,.239.009.356.017s.228.016.324.014c.129,0,.267,0,.433,0h1.107Zm-2.968-.181h2.787v-2.777h-.926c-.165,0-.3,0-.43,0h-.029c-.1,0-.205-.007-.31-.015s-.232-.016-.344-.016a.791.791,0,0,0-.585.176,1.189,1.189,0,0,0-.173.931c.007.121.014.234.012.334-.007.272-.005.544,0,.806v.069c0,.093,0,.186,0,.279Zm31.781-.363c-.3,0-.383-.026-.428-.067l-.01-.009-.007-.012a1.22,1.22,0,0,1-.017-.547c.01-.127.021-.259.019-.381s0-.271,0-.42,0-.308,0-.462l0-.093h.094c.142,0,.3,0,.473,0h.426c.264,0,.57,0,.87.01h.038l.054.058v.034c.018.584.018,1.175,0,1.755v.037l-.027.026-.018.015-.021.016-.026,0c-.1.009-.219.013-.361.013l-.24,0h-.017l-.264,0h-.2l0,.024h-.18Zm-.293-.2a1.465,1.465,0,0,0,.293.018l.148,0h.015l0-.026h.367l.267,0h.017l.237,0c.106,0,.2,0,.276-.007.015-.527.015-1.061,0-1.591-.272-.007-.546-.007-.785-.007h-.426l-.382,0c0,.126,0,.251,0,.374,0,.147,0,.28,0,.416s-.009.273-.019.4A2.716,2.716,0,0,0,169.657,176.4Zm4.82.168c-.365,0-.757,0-1.157-.007h-.087v-.087c-.007-.494-.007-.976-.006-1.556v-.278h1.93v1.929h-.678Zm-1.066-.187c.368.005.729.006,1.066.006h.5V174.82h-1.568v.1C173.4,175.462,173.4,175.92,173.41,176.382Zm-29.176.165h-1.9v-1.916h1.9Zm-1.718-.181h1.538v-1.555h-1.538Zm-1.984.172h-1.939l0-.137c0-.26,0-.528,0-.793,0-.116,0-.243-.012-.365v-.005a1.256,1.256,0,0,1,.03-.585l.009-.013.013-.009a.482.482,0,0,1,.277-.05c.112,0,.237.009.32.015.137.01.26.018.379.016s.261,0,.429,0h.493Zm-1.76-.181h1.58v-1.569h-.313c-.166,0-.3,0-.426,0s-.253-.006-.4-.016c-.08-.006-.2-.014-.307-.014a.806.806,0,0,0-.153.01,2.577,2.577,0,0,0,0,.454v.007c.008.126.015.256.012.38C138.769,175.861,138.77,176.113,138.772,176.358Zm17.39-.654h-3.1v-3.1h3.1Zm-2.915-.181h2.734V172.78h-2.734Zm-.8.181h-3.095v-3.117h3.095Zm-2.914-.181h2.734v-2.756h-2.734Zm14.078.173H160.47v-.891c0-.564,0-1.1.012-1.641a.692.692,0,0,1,.618-.59c.4-.01.8-.011,1.129-.011h1.378Zm-2.956-.181h2.775v-2.77h-1.2c-.331,0-.724,0-1.125.011a.515.515,0,0,0-.442.414c-.014.542-.013,1.073-.012,1.636v.711Zm-.76.164h-3.1V172.6h3.1Zm-2.921-.181h2.741v-2.721h-2.741Zm-1.413-.4h-1.886V173.2h1.886Zm-1.705-.181h1.525v-1.534h-1.525Zm-2.013.181h-1.885v-1.907h1.885Zm-1.7-.181h1.524v-1.546h-1.524Zm12.868.173h-1.927v-.308c0-.523,0-1.018.009-1.518l0-.086.086,0c.372-.008.74-.01,1.052-.01H163Zm-1.747-.181h1.566V173.35h-.6c-.286,0-.621,0-.961.008-.009.468-.009.935-.008,1.427Zm-1.969.164h-1.892V173.2h1.892Zm-1.712-.181h1.531v-1.511h-1.531Zm18.171-1.8h-3.1V170h3.1Zm-2.919-.181h2.738v-2.735h-2.738Zm-.782.178h-3.121v-3.1h3.121Zm-2.941-.181h2.76v-2.742H169.1Zm-27.979.178H138v-3.1h3.122Zm-2.942-.181h2.761v-2.739h-2.761Zm6.664.172h-3.111V170h3.111Zm-2.931-.181h2.75v-2.727h-2.75Zm33.223-.411h-1.89v-1.887h1.89Zm-1.709-.181h1.529v-1.526h-1.529Zm-1.991.178h-1.911V170.6h1.911Zm-1.731-.181h1.55v-1.533h-1.55Zm-29.188.178h-1.913V170.6h1.913Zm-1.732-.181h1.552v-1.529h-1.552Zm5.454.172h-1.9V170.6h1.9Zm-1.721-.181h1.541v-1.518h-1.541Zm14.049-.48h-.028a6.162,6.162,0,0,1-2.411-.488,6.288,6.288,0,0,1-3.834-5.716,6.171,6.171,0,0,1,1.794-4.413,6.245,6.245,0,0,1,4.437-1.883h.042a6.27,6.27,0,0,1,6.233,6.251A6.258,6.258,0,0,1,156.571,171.821Zm0-12.319h-.04a6.065,6.065,0,0,0-4.31,1.829,5.991,5.991,0,0,0-1.742,4.284,6.094,6.094,0,0,0,6.065,6.025h.027a6.061,6.061,0,0,0,4.244-10.38A6,6,0,0,0,156.57,159.5Zm0,11.714h-.026a5.645,5.645,0,0,1-.011-11.29h.038a5.664,5.664,0,0,1,5.628,5.647A5.652,5.652,0,0,1,156.568,171.216Zm-.035-11.109a5.465,5.465,0,0,0-3.883,1.648,5.391,5.391,0,0,0-1.568,3.854,5.488,5.488,0,0,0,5.46,5.426h.025a5.457,5.457,0,0,0,3.82-9.346,5.4,5.4,0,0,0-3.818-1.583Z" transform="translate(-132.633 -157.255)"/>
        </g>
        <g id="Group_4355" data-name="Group 4355" transform="translate(19.849 4.249)">
          <path id="Path_7832" data-name="Path 7832" d="M235.749,186.261h-3.507v-2.214H230v-3.526h2.209v-2.227h3.516V180.5h2.231v3.538h-2.211Zm-2.9-.6h2.3v-2.222h2.211v-2.329h-2.231V178.9h-2.307v2.227h-2.209v2.316h2.238Z" transform="translate(-229.914 -178.205)"/>
          <path id="Path_7832_-_Outline" data-name="Path 7832 - Outline" d="M235.68,186.191h-3.688v-2.214h-2.238v-3.706h2.209v-2.227h3.7v2.206h2.231v3.719H235.68Zm-3.507-.181H235.5v-2.222h2.211v-3.358h-2.231v-2.206h-3.336v2.227h-2.209V183.8h2.238Zm2.9-.424H232.6v-2.214h-2.238v-2.5h2.209V178.65h2.487v2.206h2.231v2.509h-2.211Zm-2.3-.181h2.117v-2.222h2.211v-2.148h-2.231V178.83h-2.126v2.227h-2.209v2.135h2.238Z" transform="translate(-229.754 -178.045)"/>
        </g>
      </g>
    </g>
  </g>
</svg>
