<svg xmlns="http://www.w3.org/2000/svg" xmlns:xlink="http://www.w3.org/1999/xlink" width="84" height="84" viewBox="0 0 84 84">
  <defs>
    <filter id="Ellipse_14">
      <feOffset input="SourceAlpha"/>
      <feGaussianBlur stdDeviation="3" result="blur"/>
      <feFlood flood-opacity="0.451" result="color"/>
      <feComposite operator="out" in="SourceGraphic" in2="blur"/>
      <feComposite operator="in" in="color"/>
      <feComposite operator="in" in2="SourceGraphic"/>
    </filter>
  </defs>
  <g id="Group_4623" data-name="Group 4623" transform="translate(-59 -400)">
    <g data-type="innerShadowGroup">
      <circle id="Ellipse_14-2" data-name="Ellipse 14" cx="42" cy="42" r="42" transform="translate(59 400)" fill="#fff"/>
      <g transform="matrix(1, 0, 0, 1, 59, 400)" filter="url(#Ellipse_14)">
        <circle id="Ellipse_14-3" data-name="Ellipse 14" cx="42" cy="42" r="42" fill="#fff"/>
      </g>
      <g id="Ellipse_14-4" data-name="Ellipse 14" transform="translate(59 400)" fill="none" stroke="#707070" stroke-width="1">
        <circle cx="42" cy="42" r="42" stroke="none"/>
        <circle cx="42" cy="42" r="41.5" fill="none"/>
      </g>
    </g>
    <g id="Group_4384" data-name="Group 4384" transform="translate(535.695 -521.06)">
      <path id="Path_7853" data-name="Path 7853" d="M77.264,23.334v26.4L74.016,46.7l-6.809-4.4L60.4,40.515V31.82l6.39-1.571,4.819-2.409L77.264,22.6Z" transform="translate(-509.078 926.217)" fill="#39bca9"/>
      <path id="Path_7854" data-name="Path 7854" d="M52.013,58.252l2.68.988,1.3,11.681-2.088.141-1.89-10.834Z" transform="translate(-504.867 908.31)" fill="#39bca9"/>
      <g id="Group_4371" data-name="Group 4371" transform="translate(-455.695 946.06)">
        <path id="Path_7847" data-name="Path 7847" d="M544.911,85.451c0,1.47.025,2.941-.011,4.409-.016.641.106.947.67.85a3.673,3.673,0,0,1,.789,0c.563.027.85.367.847,1.084q-.013,3.119,0,6.238c0,.708-.268,1.066-.849,1.063a3.907,3.907,0,0,1-.7-.007c-.647-.123-.763.246-.755.965.032,2.9.013,5.807.013,8.711,0,.537.057,1.1-.477,1.361s-.79-.241-1.081-.637a23.253,23.253,0,0,0-16.158-9.158c-.635-.06-.872.077-.74.975.484,3.277.9,6.569,1.336,9.855.216,1.611.051,1.87-1.25,1.864-2.958-.015-2.4.385-2.916-3.1-.435-2.96-.811-5.933-1.188-8.9a.88.88,0,0,0-.6-.868,2.632,2.632,0,0,1-1.585-2.761c-.014-1.577-.01-3.155,0-4.732.01-1.947.9-3.019,2.519-3.062a42.3,42.3,0,0,0,6.309-.214,22.025,22.025,0,0,0,14.4-9.115c.261-.355.517-.719.965-.495.429.214.468.669.466,1.16C544.906,82.44,544.911,83.945,544.911,85.451Zm-1.519-2.414c-.433.46-.771.835-1.122,1.189a22.315,22.315,0,0,1-13.445,6.942c-.708.082-1,.3-.957,1.273.08,1.752.05,3.514.009,5.269-.016.685.155.9.712.983a24.111,24.111,0,0,1,8.724,3.053,24.946,24.946,0,0,1,6.079,5.062Zm-16.961,11.92c0-.964-.024-1.93.009-2.893.019-.563-.132-.744-.593-.727-1.019.038-2.04.014-3.06.011-.706,0-1.088.388-1.084,1.289.006,1.536.01,3.072,0,4.607-.007.9.368,1.3,1.072,1.308,1.02.005,2.041-.02,3.06.012.444.014.628-.133.607-.716C526.405,96.887,526.431,95.921,526.431,94.957Zm-.2,15.724c-.111-.811-.226-1.621-.333-2.434q-.458-3.5-.911-7c-.072-.555-.151-1.083-.789-.911s-.237.7-.209,1.027c.081.96.233,1.911.36,2.866.283,2.119.582,4.236.841,6.359.071.578.31.673.716.657C526.261,111.227,526.282,111,526.234,110.68Zm19.517-15.716c0-.643-.006-1.285,0-1.928,0-.338-.071-.529-.388-.54-.339-.012-.465.14-.461.556.014,1.249.009,2.5,0,3.748,0,.371.14.487.43.487s.421-.14.415-.5C545.744,96.178,545.751,95.571,545.751,94.965Z" transform="translate(-520.243 -78.731)"/>
        <path id="Path_7848" data-name="Path 7848" d="M686.472,110.649a.708.708,0,0,1-.715-.553.733.733,0,0,1,.52-.889q1.673-.757,3.349-1.508a12.847,12.847,0,0,1,1.2-.518.714.714,0,0,1,.58,1.279c-1.582.743-3.185,1.443-4.781,2.157A.665.665,0,0,1,686.472,110.649Z" transform="translate(-649.408 -99.908)"/>
        <path id="Path_7849" data-name="Path 7849" d="M691.708,169.931a.7.7,0,0,1-1,.7c-1.527-.651-3.034-1.35-4.538-2.053a.719.719,0,0,1,.579-1.316c1.525.661,3.035,1.354,4.548,2.041A.693.693,0,0,1,691.708,169.931Z" transform="translate(-649.401 -146.78)"/>
        <path id="Path_7850" data-name="Path 7850" d="M680.737,195.393a.769.769,0,0,1-.517.712.736.736,0,0,1-.846-.291q-1.179-1.288-2.354-2.579c-.314-.344-.638-.68-.937-1.037a.679.679,0,0,1,0-.952.665.665,0,0,1,1.015-.077c1.2,1.271,2.352,2.579,3.513,3.882A.911.911,0,0,1,680.737,195.393Z" transform="translate(-641.293 -164.311)"/>
        <path id="Path_7851" data-name="Path 7851" d="M680,74.161a.69.69,0,0,1,.565,1.117c-1.1,1.28-2.243,2.52-3.4,3.748a.677.677,0,0,1-1.019-.02.649.649,0,0,1-.055-.946c1.1-1.237,2.236-2.449,3.359-3.669A.746.746,0,0,1,680,74.161Z" transform="translate(-641.312 -74.161)"/>
        <path id="Path_7852" data-name="Path 7852" d="M691.707,144.326c-.7,0-1.4-.008-2.106,0-.527.008-.973-.135-.986-.735s.4-.786.942-.785c1.433,0,2.866,0,4.3,0,.5,0,.882.192.893.741.013.61-.4.778-.937.776C693.111,144.323,692.409,144.326,691.707,144.326Z" transform="translate(-651.785 -127.971)"/>
      </g>
    </g>
  </g>
</svg>
