<svg xmlns="http://www.w3.org/2000/svg" xmlns:xlink="http://www.w3.org/1999/xlink" width="84" height="84" viewBox="0 0 84 84">
  <defs>
    <filter id="Ellipse_17">
      <feOffset input="SourceAlpha"/>
      <feGaussianBlur stdDeviation="3" result="blur"/>
      <feFlood flood-opacity="0.451" result="color"/>
      <feComposite operator="out" in="SourceGraphic" in2="blur"/>
      <feComposite operator="in" in="color"/>
      <feComposite operator="in" in2="SourceGraphic"/>
    </filter>
  </defs>
  <g id="Group_4626" data-name="Group 4626" transform="translate(-59 -821)">
    <g data-type="innerShadowGroup">
      <circle id="Ellipse_17-2" data-name="Ellipse 17" cx="42" cy="42" r="42" transform="translate(59 821)" fill="#fff"/>
      <g transform="matrix(1, 0, 0, 1, 59, 821)" filter="url(#Ellipse_17)">
        <circle id="Ellipse_17-3" data-name="Ellipse 17" cx="42" cy="42" r="42" fill="#fff"/>
      </g>
      <g id="Ellipse_17-4" data-name="Ellipse 17" transform="translate(59 821)" fill="none" stroke="#707070" stroke-width="1">
        <circle cx="42" cy="42" r="42" stroke="none"/>
        <circle cx="42" cy="42" r="41.5" fill="none"/>
      </g>
    </g>
    <g id="Group_4387" data-name="Group 4387" transform="translate(156.36 -401.991)">
      <g id="Group_4369" data-name="Group 4369" transform="translate(-74.36 1241.991)">
        <path id="Path_7857" data-name="Path 7857" d="M7.943,8.262h-6.1l-.656,1.16V46.538l.3,1.311,1.614.4H30.636l1.311-1.21v-11.3L28.77,38.368l-2.723,3.177-3.631-3.177L14.852,30.5,13.238,27.98l.252-5.043,2.673-2.975,3.379-1.21,2.874.555,2.521,1.916,1.109.908,1.916-1.866,2.925-1.311h1.059V9.22L30.888,8.01H24.282V9.523l-1.109,1.362-2.168.3H10.464l-2.32-1.009Z" transform="translate(-0.393 -2.654)" fill="#39bca9"/>
        <path id="Path_7841" data-name="Path 7841" d="M145.066,60.1h.808c1.483,0,2.965,0,4.448,0a2.064,2.064,0,0,1,2.313,2.3q0,3.836,0,7.671v.735a7.51,7.51,0,0,1,5.823,4.049,8.177,8.177,0,0,1,.226,7.109h3.228c.322,0,.645-.005.967.006.449.016.76.242.762.7a.672.672,0,0,1-.746.711c-.666.01-1.332.007-2,.011a8.594,8.594,0,0,0-2.936.09c-.825.325-1.412,1.259-2.1,1.93-.938.915-1.889,1.818-2.795,2.764a1.513,1.513,0,0,0-.418.927c-.029,3.265-.015,6.531-.016,9.8,0,1.737-.736,2.475-2.466,2.475h-27.2c-1.8,0-2.533-.738-2.533-2.546q0-18.147,0-36.294c0-1.672.761-2.428,2.45-2.433,1.268,0,2.536-.011,3.8,0,.4,0,.613-.055.632-.548a1.271,1.271,0,0,1,1.317-1.234c.558-.025,1.118.013,1.675-.019.181-.01.454-.108.514-.243a4.671,4.671,0,0,1,3.639-2.571,7.576,7.576,0,0,1,4.792.456,4.137,4.137,0,0,1,2.167,2.022.768.768,0,0,0,.519.331,6.626,6.626,0,0,0,1.029.015C144.541,58.316,144.81,58.536,145.066,60.1ZM132.83,76.141h-2.858c-1.268,0-2.535,0-3.8,0a.659.659,0,0,1-.745-.7c0-.44.29-.649.7-.7a4.5,4.5,0,0,1,.58-.007c2.041,0,4.083-.016,6.124.009a1.006,1.006,0,0,0,.975-.535,7.235,7.235,0,0,1,11.352-1.158c.25.251.524.477.824.749a7.985,7.985,0,0,1,5.192-2.948,2.027,2.027,0,0,0,.051-.3q0-4.125,0-8.251c0-.544-.276-.776-.8-.775-1.01,0-2.02,0-3.03,0h-2.344a3.247,3.247,0,0,1-3.453,2.975c-3.631.009-7.263.016-10.894-.013a4.515,4.515,0,0,1-1.619-.336,2.92,2.92,0,0,1-1.836-2.626c-1.451,0-2.866,0-4.281,0-.99,0-1.1.109-1.1,1.119q0,18.146-.005,36.292c0,.868.156,1.033,1,1.033q13.666,0,27.332,0c.852,0,1.024-.173,1.026-1.011q.009-3.513.017-7.025c0-.6,0-1.2,0-1.8l-.33-.177c-1.266,1.345-2.519,2.7-3.8,4.029a1.451,1.451,0,0,1-2.31.042c-.717-.68-1.4-1.395-2.134-2.058a1.381,1.381,0,0,0-.816-.375c-2.639-.025-5.277-.01-7.916-.008q-3.8,0-7.6,0c-.465,0-.9-.116-.886-.694.01-.532.353-.712.865-.711,3.262.009,6.523,0,9.785,0h4.647c-.064-.148-.074-.216-.113-.254-1.921-1.875-3.85-3.741-5.761-5.625a1.375,1.375,0,0,0-1.069-.441q-3.706.034-7.413,0a1.262,1.262,0,0,1-.8-.28.7.7,0,0,1-.083-.688,1.178,1.178,0,0,1,.783-.412c2.127-.033,4.254-.018,6.381-.018h.769A8.562,8.562,0,0,1,132.83,76.141Zm16.154,8.685c.721-.781,1.388-1.451,1.991-2.175a1.769,1.769,0,0,1,1.555-.7c1.331.047,2.664,0,4,.023a.734.734,0,0,0,.788-.486,6.517,6.517,0,0,0,.6-3.7,6.076,6.076,0,0,0-3.7-5.063,5.512,5.512,0,0,0-5.93.825c-.59.46-1.1,1.023-1.654,1.53-.57.522-.818.525-1.374.016-.507-.464-.99-.954-1.505-1.408a5.742,5.742,0,0,0-7.305-.277,6.563,6.563,0,0,0-.584,9.872q3.281,3.232,6.571,6.456c1.146,1.122,2.305,2.231,3.508,3.393l9.947-9.727c-1.289,0-2.376-.012-3.463.014a.827.827,0,0,0-.465.3q-1.235,1.314-2.446,2.65c-.586.647-1.1.584-1.477-.213-.576-1.224-1.143-2.452-1.716-3.677-.206-.439-.418-.875-.662-1.384-.666.8-1.24,1.548-1.887,2.228a1.624,1.624,0,0,1-.978.47c-1.006.066-2.018.025-3.028.041-.508.008-.876-.194-.878-.715s.388-.7.885-.7c.838,0,1.677.01,2.513-.038a1.108,1.108,0,0,0,.695-.332c.7-.785,1.361-1.606,2.035-2.414.712-.854,1.177-.8,1.645.2C147.422,81.458,148.177,83.09,148.984,84.825Zm-20.266-25.1c0,.617.01,1.169,0,1.721a1.352,1.352,0,0,0,.88,1.368,3.4,3.4,0,0,0,1.243.253c2.384.023,4.768.012,7.152.012,1.2,0,2.406.01,3.608,0,.992-.011,1.81-.48,1.914-1.209a15.518,15.518,0,0,0,.021-2.143c-.87,0-1.683-.005-2.5,0a.717.717,0,0,1-.827-.7,1.949,1.949,0,0,0-.953-1.455,6.049,6.049,0,0,0-6.286.066,2.3,2.3,0,0,0-.838,1.223.932.932,0,0,1-1.1.874C130.288,59.712,129.542,59.728,128.718,59.728Z" transform="translate(-120.43 -55.297)"/>
        <path id="Path_7842" data-name="Path 7842" d="M169.961,147.556q-4.7,0-9.4,0c-.193,0-.437.06-.567-.034-.235-.168-.547-.427-.555-.657s.289-.5.514-.685c.123-.1.371-.054.563-.054q9.434,0,18.868,0c.863,0,1.214.2,1.234.7.021.518-.346.733-1.254.733Z" transform="translate(-154.408 -134.404)"/>
      </g>
    </g>
  </g>
</svg>
