<svg xmlns="http://www.w3.org/2000/svg" xmlns:xlink="http://www.w3.org/1999/xlink" width="341.687" height="329.695" viewBox="0 0 341.687 329.695">
  <defs>
    <filter id="Path_8805" x="0" y="0" width="341.687" height="314.091" filterUnits="userSpaceOnUse">
      <feOffset input="SourceAlpha"/>
      <feGaussianBlur stdDeviation="2.5" result="blur"/>
      <feFlood flood-opacity="0.749"/>
      <feComposite operator="in" in2="blur"/>
      <feComposite in="SourceGraphic"/>
    </filter>
  </defs>
  <g id="Group_4573" data-name="Group 4573" transform="translate(-43.5 -246.642)">
    <g id="Group_4570" data-name="Group 4570" transform="translate(17 1.21)">
      <g transform="matrix(1, 0, 0, 1, 26.5, 245.43)" filter="url(#Path_8805)">
        <path id="Path_8805-2" data-name="Path 8805" d="M3714.781-618.7c-1.676-2.515-22.634-95.57-110.659-81.318s-122.4,103.115-122.4,103.115-22.635,74.612,9.222,112.336,185.271,82.156,185.271,82.156,96.408-10.06,118.2-98.085-20.958-113.175-20.958-113.175S3739.093-625.4,3714.781-618.7Z" transform="translate(-3466.43 709)" fill="#c0eceb" opacity="0.4"/>
      </g>
      <g id="Group_4567" data-name="Group 4567" transform="translate(34 301.993)">
        <g id="Group_4565" data-name="Group 4565" transform="translate(0 0)">
          <g id="Group_4556" data-name="Group 4556" transform="translate(167.315 237.671)">
            <circle id="Ellipse_23" data-name="Ellipse 23" cx="2.686" cy="2.686" r="2.686" transform="translate(21.485 10.742)"/>
            <circle id="Ellipse_32" data-name="Ellipse 32" cx="2.686" cy="2.686" r="2.686" transform="translate(5.371 16.113) rotate(180)"/>
            <circle id="Ellipse_24" data-name="Ellipse 24" cx="2.686" cy="2.686" r="2.686" transform="translate(10.742 0)"/>
            <circle id="Ellipse_30" data-name="Ellipse 30" cx="2.686" cy="2.686" r="2.686" transform="translate(17.904 3.581)"/>
            <circle id="Ellipse_33" data-name="Ellipse 33" cx="2.686" cy="2.686" r="2.686" transform="translate(8.952 23.275) rotate(180)"/>
            <circle id="Ellipse_28" data-name="Ellipse 28" cx="2.686" cy="2.686" r="2.686" transform="translate(10.742 21.485)"/>
            <circle id="Ellipse_29" data-name="Ellipse 29" cx="2.686" cy="2.686" r="2.686" transform="translate(17.904 17.904)"/>
            <circle id="Ellipse_31" data-name="Ellipse 31" cx="2.686" cy="2.686" r="2.686" transform="translate(8.952 8.952) rotate(180)"/>
          </g>
          <path id="Path_8625" data-name="Path 8625" d="M607.468,317.336q-76.074-.005-152.145-.005-1.074-.285-2.152-.578c-4.2-1.8-2.673-5.6-2.755-8.6q-1.394-50.943-2.5-101.891a109.468,109.468,0,0,0-4.22-26.2c-1.055-3.914-.97-7.188,4.238-7.618,11.909.118,23.823.055,35.723.428,5.661.177,6.682-2.177,5.246-7.018-1.518-5.117-3.509-10.148-3.5-15.614,4.918.594,9.72,2.327,14.781,1.5q.948.209,1.894.421c.22,8.195,1.18,16.711-8.9,20.7H508.01c5.323-.027,10.646-.07,15.968-.075,15.284-.013,15.284-.007,19.984-14.484,10.753,1.928,21.345,6.171,32.506,2.268l12.969-.684c2.793,6.927,3.352,16.488,15.127,12.832,5.939.029,11.888.288,17.812.007,4.127-.2,5.133,1.9,5.162,5.317q-.247,3.644-.492,7.285l-3.156,2.213H455.559l-.116,1.327L622.1,216.5q-.1,15.055-.2,30.107-.043,8.127-.082,16.253c-3.087,10.5-1.35,21.255-1.724,31.9l-.287,17.467c-1.876,4.977-5.335,6.923-10.549,5.513Q608.364,317.538,607.468,317.336ZM565.1,171.375c3.683,2.2,6.995,2.41,10.245-.072.768-.587,1.486-2.313-.089-2.931C571.567,166.926,568.351,168.02,565.1,171.375Z" transform="translate(-443.164 -49.502)" fill="#624cd4"/>
          <path id="Path_8626" data-name="Path 8626" d="M610.6,209.9c-5.319-5.142-4.608-11.956-4.947-18.4-.36-6.83-.362-13.678-.519-20.52.122-2.066.057-4.093,2.027-5.611,6.231-4.8,8.667-11.94,10.352-19.073.917-3.88,5.274-10.078.233-11.809-4.41-1.513-7.414,5.133-8.811,9.527-2.236,7.036-6.5,12.588-11.047,18.081-6.741,8.141-16.457,8.639-25.044,2.365-6.173-4.51-12.71-8.5-18.172-13.931q1.217-2.806,2.435-5.609c7.727-.138,14.269,3.887,21.334,6.082,3.16,2.317,5.493,2.738,7.462-1.742,2.462-5.6,5.688-10.864,8.585-16.275,4.7-7.819,9.781-15.3,17.861-20.117l14.482-4.764c6.726,3.484,14.126,4.311,21.452,5.432.285,2.933.161,5.976.927,8.775,3.59,13.125,3.583,26.609,2.224,39.795-1.837,17.809-2.222,35.421.374,53.108C637.384,218.78,623.72,216.458,610.6,209.9Z" transform="translate(-355.029 -82.81)" fill="#311f68"/>
          <path id="Path_8627" data-name="Path 8627" d="M588.532,164.959c13.12,6.558,26.784,8.88,41.211,5.31l7.48-1.262c4.8,16.62,6.757,33.314,3.6,50.632-2.317,12.688-6.408,25.2-5.48,38.372q-3.658,1.058-7.31,2.114c-.84-2.118-2.827-1.647-4.46-1.978-3.828-5.448-2.1-11.883-3.164-17.823q-.059-19.164-.118-38.33c-.005-1.8.27-3.812-2.664-2.84.476-7.64,2.886-13.378,12.139-12.71a5.8,5.8,0,0,0,3.312-1.028c1.688-1.106,3.992-2.487,2.68-4.814-1.047-1.858-3.167-.722-4.791-.02-6.175,2.669-12.746,3.063-19.206,2.279-8.368-1.013-10.62,3.994-12.475,10.522-2.011,7.072-.2,13.976-.063,20.962.27,13.9-2.92,27.672-1.6,41.621l-3.608,2.374c-3.2.1-4.315-4.141-7.686-3.679-2.5-.082-4.027-1.294-3.69-3.865C586.355,222.3,584.16,193.4,588.532,164.959Z" transform="translate(-332.962 -37.869)" fill="#fa8f8f"/>
          <path id="Path_8628" data-name="Path 8628" d="M617.965,212.6l-7.48,1.262c-2.6-17.687-2.213-35.3-.376-53.108,1.359-13.186,1.366-26.67-2.224-39.795-.766-2.8-.643-5.842-.927-8.775,2.535-.653,5.851,1.142,7.477-2.376,9.441,2.571,11.031,10.479,12.536,18.445a1.528,1.528,0,0,0,.12,1.534,7.507,7.507,0,0,0,.813,5.636c.777,16.89,1.644,33.779,2.29,50.677.258,6.768,1.726,13.632-.874,20.292C625.954,209.227,622.345,211.617,617.965,212.6Z" transform="translate(-313.704 -81.461)" fill="#1f1441"/>
          <path id="Path_8629" data-name="Path 8629" d="M598.973,212.081c.186,3.531.2,7.081.594,10.587.734,6.463-1.054,10.941-8.214,12.028-1.457.222-4.082.19-3.361,2.771.235.838,2.435,1.128,3.735,1.67,3.9,1.9,5.124,4.528,2.5,8.427-1.975,2.936-3.557,6.157-5.7,8.957-4.079,5.332-8.191,11.559-16.022,1.867,4.408,10.866-1.839,11.856-8.515,12.549-8.569.888-15.43-3.155-22.167-7.589q.137-8.736.281-17.467c10.776-4.1,21.372-6.324,30.161-16.706C578.139,222.245,589.966,217.864,598.973,212.081Z" transform="translate(-365.181 -0.625)" fill="#2f87bf"/>
          <path id="Path_8630" data-name="Path 8630" d="M591.13,249.505c-1.323-13.947,1.867-27.722,1.6-41.619-.136-6.986-1.948-13.89.063-20.962,1.855-6.528,4.107-11.535,12.475-10.522,6.46.784,13.031.39,19.205-2.279,1.624-.7,3.744-1.839,4.791.02,1.312,2.327-.992,3.708-2.68,4.814a5.8,5.8,0,0,1-3.312,1.028c-9.253-.668-11.663,5.07-12.141,12.712-1.268,16.056-5.017,31.867-4.752,48.074-2.165,2.981,1.541,9.686-5.91,9.314Z" transform="translate(-326.468 -31.41)" fill="#f46163"/>
          <path id="Path_8631" data-name="Path 8631" d="M614,169.959c4.379-.981,7.989-3.371,11.356-6.205l2.294,12.064c-.4,23.447,0,46.9-.965,70.349a35.614,35.614,0,0,1-5.627,17.863c-.005-6.923-5.589-4.028-8.939-5.069-.929-13.174,3.162-25.681,5.479-38.37C620.753,203.273,618.793,186.58,614,169.959Z" transform="translate(-309.734 -38.822)" fill="#f46163"/>
          <path id="Path_8632" data-name="Path 8632" d="M588.623,215.077c3.371-.462,4.488,3.779,7.686,3.677,2.252,3.269,1.371,6.472.374,10.015-2.854,10.132-5.264,20.387-7.849,30.592-2.766,1.957-5.747,2.934-9.145,2.007a97.834,97.834,0,0,0,4.6-28.379C586.573,227.221,584.3,220.353,588.623,215.077Z" transform="translate(-335.256 1.715)" fill="#f46163"/>
          <path id="Path_8633" data-name="Path 8633" d="M584.8,258.77c2.585-10.205,5-20.461,7.849-30.592,1-3.543,1.878-6.746-.374-10.015l3.608-2.372q4.67.287,9.339.577c-2.582,15.213-8.911,29.156-14.672,43.288Q587.672,259.209,584.8,258.77Z" transform="translate(-331.219 2.307)" fill="#ae2b42"/>
          <path id="Path_8634" data-name="Path 8634" d="M605.48,217.008c1.633.331,3.62-.14,4.46,1.977,6.214,1.525,8.272,5.022,6.6,11.487-2.4,9.285-1.464,18.822-.757,28.279-2.661,3.326-6,3.488-9.675,2.068,2.607-3.486,1.336-7.215,1.046-11.052C606.336,238.867,606,227.931,605.48,217.008Z" transform="translate(-314.872 3.269)" fill="#f46163"/>
          <path id="Path_8635" data-name="Path 8635" d="M613.817,258.811c-.707-9.457-1.64-18.994.757-28.279,1.669-6.465-.388-9.962-6.6-11.487q3.655-1.053,7.31-2.113c3.352,1.038,8.936-1.857,8.941,5.067q-3.016,18.246-6.037,36.5Q616,258.656,613.817,258.811Z" transform="translate(-312.903 3.209)" fill="#ae2b42"/>
          <path id="Path_8636" data-name="Path 8636" d="M594.483,239.8q2.876.44,5.749.884c3.274,8.429-.632,11.063-8.546,11.056a96.269,96.269,0,0,1-19.145-1.373c3.432-5.428,8.63-6.254,12.8-8.56C588.736,242.73,591.717,241.753,594.483,239.8Z" transform="translate(-340.905 21.281)" fill="#311f68"/>
          <path id="Path_8637" data-name="Path 8637" d="M623.905,114.338c-1.626,3.518-4.941,1.722-7.477,2.376-7.326-1.121-14.726-1.948-21.452-5.432l2.669-2.718q2.38-1.268,4.77-2.548c2.7-.168,5.488.03,7.733-1.943C614.914,107.254,623.552,105.243,623.905,114.338Z" transform="translate(-323.174 -85.992)" fill="#624cd4"/>
          <path id="Path_8638" data-name="Path 8638" d="M618.977,240.459q2.183-.156,4.369-.308c3.5,10.116,2.985,10.891-7.682,11.331a19.672,19.672,0,0,1-5.31-.175c-3.13-.754-8.37,1.516-8.882-2.96-.44-3.846,4.275-5.024,7.831-5.819C612.978,243.947,616.317,243.785,618.977,240.459Z" transform="translate(-318.063 21.561)" fill="#311f68"/>
          <path id="Path_8639" data-name="Path 8639" d="M609.852,111.97c-2.245,1.973-5.035,1.774-7.735,1.941-2.65-2.036-1-7.158-5.595-7.794-.478-4.462-3.771-9.711,3.375-12.033-2.106,10.257,4.646,10.721,11.836,10.7Q610.793,108.378,609.852,111.97Z" transform="translate(-322.878 -93.888)" fill="#311f68"/>
          <path id="Path_8640" data-name="Path 8640" d="M609.9,104.874c-7.19.018-13.942-.446-11.836-10.7C606.255,93.043,610.031,96.8,609.9,104.874Z" transform="translate(-321.043 -93.974)" fill="#624cd4"/>
          <path id="Path_8641" data-name="Path 8641" d="M596.68,100.8c4.6.636,2.945,5.758,5.595,7.794q-2.385,1.281-4.768,2.55C594.4,107.925,594.625,104.439,596.68,100.8Z" transform="translate(-323.036 -88.576)" fill="#f46163"/>
          <path id="Path_8642" data-name="Path 8642" d="M618.323,121.643a1.527,1.527,0,0,1-.12-1.534,5.851,5.851,0,0,1,.525,1.04C618.762,121.262,618.466,121.475,618.323,121.643Z" transform="translate(-304.936 -73.318)" fill="#bfeaea"/>
          <path id="Path_8643" data-name="Path 8643" d="M534.934,243.57q.9.2,1.79.4Q535.827,243.77,534.934,243.57Z" transform="translate(-370.63 24.263)" fill="#8674ef"/>
          <path id="Path_8644" data-name="Path 8644" d="M448.753,243.244q1.077.293,2.152.578Q449.828,243.53,448.753,243.244Z" transform="translate(-438.746 24.006)" fill="#8674ef"/>
          <path id="Path_8701" data-name="Path 8701" d="M616.683,200.03Q533.353,186.218,450.022,172.4l.116-1.327H618.47q-.21,13.452-.423,26.9Q617.365,199.006,616.683,200.03Z" transform="translate(-437.743 -33.035)" fill="#311f68"/>
          <path id="Path_8702" data-name="Path 8702" d="M543.2,206.491q.682-1.023,1.364-2.05c3.087.338,5.5-.707,5.491-4.057-.027-8.388,1.785-16.946-1.912-25.06q.244-3.642.492-7.285c13.562-4.959,27.377-7.036,41.542-3.015,4.1,1.164,8.877,1.909,10,7.344-2.39,7.622-12.371,10.332-12.551,19.386-.136.251-.272.5-.41.75l.432-.727h9.912c-4.447,4.331-10.875,1.6-13.036,5.414-5.754,10.169-15.4,15.354-24.417,21.533-1.783,1.223-4.607,2.913-3.6,5.52,1.056,2.745,4.193,1.2,6.406,1.472,6.062.747,12.5-1.379,19.751,2.342-13.942,4.438-29.676-6.429-39.669,8.54Q543.1,221.545,543.2,206.491Z" transform="translate(-364.259 -39.495)" fill="#4bb1d4"/>
          <path id="Path_8703" data-name="Path 8703" d="M543.031,232.419c9.994-14.969,25.728-4.1,39.669-8.54-7.247-3.72-13.689-1.6-19.751-2.342-2.213-.272-5.35,1.273-6.406-1.472-1-2.607,1.819-4.3,3.6-5.52,9.022-6.179,18.663-11.364,24.417-21.533,2.161-3.815,8.588-1.083,13.036-5.414h-9.912l-.021-.023c.179-9.054,10.16-11.765,12.551-19.386,5.607,7.221,7.081,23.71,2.712,31.172-1.824,3.115-5.309,3.511-8.25,4.868-4.991,2.3-10.959,2.662-15.15,6.977,2.716,3.463,6.565,3.719,9.847,4.435,6.812,1.49,6.825,4.578,4.184,10.1-2.111,4.415-6.524,8.017-5.679,13.68-7.262-2.084-10,3.5-12.907,8.61-2.3-2.626-1.187-6.78-5.76-6.651-9.711.274-9.731,8.64-12.364,15.157-5.149-8.809-5.149-8.809-13.9-7.867Q542.989,240.546,543.031,232.419Z" transform="translate(-364.295 -35.316)" fill="#2f87bf"/>
          <path id="Path_8704" data-name="Path 8704" d="M500.985,168.486c1.026-8.34,4.216-15.94,8.431-23.064,3.283-5.548,4.954-11.256,3.989-17.66,6.456,7.684,12.919,15.356,21.9,20.3,1.953,3.568,5.813,4.938,8.649,7.491l.462,21.1a2.6,2.6,0,0,0-.68,1l-12.966.684c-3.153-.467-6.3-.994-9.471-1.393C513.743,175.995,506.2,175.05,500.985,168.486Z" transform="translate(-397.463 -67.269)" fill="#fa8f8f"/>
          <path id="Path_8705" data-name="Path 8705" d="M543.779,217.423c8.751-.942,8.751-.942,13.9,7.867,2.634-6.517,2.653-14.883,12.364-15.157,4.573-.129,3.461,4.025,5.76,6.651,2.908-5.106,5.645-10.694,12.907-8.61,5.606-.607,8.714,2.252,10.207,7.35-9.007,5.783-20.835,10.164-26.7,17.095-8.789,10.382-19.384,12.6-30.161,16.706C542.429,238.678,540.692,227.92,543.779,217.423Z" transform="translate(-365.125 -4.067)" fill="#4bb1d4"/>
          <path id="Path_8706" data-name="Path 8706" d="M468.321,169.363a11.375,11.375,0,0,1-1.459-2.161c-1.25-3.25-3.6-7.115-.693-9.858,2.678-2.528,4.218,3.529,7.457,2.646,1.558-11.4-1.987-23.663,5.88-33.942,2.709,1.237,4.634,3.785,4.111,6.288-2.686,12.851,3.8,25.767-.512,38.531C478.041,171.69,473.239,169.957,468.321,169.363Z" transform="translate(-426.082 -68.624)" fill="#4bb1d4"/>
          <path id="Path_8707" data-name="Path 8707" d="M491.672,151.158q-2.865,10.662-5.738,21.318-7.423,0-14.833,0c10.076-3.987,9.117-12.5,8.9-20.7q1.719-.317,3.436-.625l3.316-.414Z" transform="translate(-421.083 -49.113)" fill="#311f68"/>
          <path id="Path_8708" data-name="Path 8708" d="M481.93,171.94q-1.716.312-3.436.627-.948-.207-1.894-.417c4.311-12.764-2.172-25.679.514-38.531.523-2.5-1.4-5.051-4.111-6.288,4.193-6.211,5.77-.969,6.879,1.944,3.015,7.922,2.073,16.334,2.186,24.594Q482,162.906,481.93,171.94Z" transform="translate(-419.579 -69.906)" fill="#2f87bf"/>
          <path id="Path_8709" data-name="Path 8709" d="M524.864,158.089a2.612,2.612,0,0,1,.677-.994c4.352-.043,7.908-2.064,11.265-4.576q1.593,9.206,3.185,18.407C528.216,174.577,527.657,165.016,524.864,158.089Z" transform="translate(-378.589 -47.702)" fill="#311f68"/>
          <path id="Path_8710" data-name="Path 8710" d="M547.45,169.84c3.7,8.114,1.885,16.672,1.912,25.06.013,3.35-2.4,4.4-5.491,4.057q.212-13.452.423-26.9Z" transform="translate(-363.566 -34.012)" fill="#bfeaea"/>
          <path id="Path_8711" data-name="Path 8711" d="M502.187,150.508c5.214,6.564,12.758,7.509,20.316,8.461,3.167.4,6.318.926,9.471,1.393-11.165,3.9-21.757-.34-32.51-2.268A14.035,14.035,0,0,1,502.187,150.508Z" transform="translate(-398.665 -49.291)" fill="#311f68"/>
          <path id="Path_8712" data-name="Path 8712" d="M511.271,163.646c3.249-3.355,6.465-4.449,10.155-3,1.576.618.858,2.344.09,2.931C518.266,166.056,514.954,165.845,511.271,163.646Z" transform="translate(-389.333 -41.774)" fill="#311f68"/>
          <path id="Path_8713" data-name="Path 8713" d="M595.69,149.332q-1.216,2.8-2.435,5.609l-4.948.747c-3.55,1.2-1.708,4.567-2.727,6.782-1.617,3.515-2.967,7.717-8.057,3.688,6.693-5.489,4.981-11.768,1.708-18.192-.188-1.626.8-4.245-1.672-4.324-3.063-.1-4.1,2.922-5.45,5.206-11.645,19.642-36.35,20.494-49,1.613a70.043,70.043,0,0,0-16.958-18.133q-.126-3.752-.254-7.5l-.045.045c3.026-1.588,5.949.29,8.929.265,5.441,9.151,11.1,18.112,20.439,24.156-1.056-5.668-.494-10.979-.448-16.248.066-7.538-6.368-10.835-10.816-14.235-4.4-3.364-2.113,4.857-5.269,5.6a25.566,25.566,0,0,1-3.515.337,6.868,6.868,0,0,0-3.837-5.539c1.4-1.482,3.181-3.047,2.58-5.223-3.269-11.822,5.026-11.052,12.286-11.471.8,9.28,3.568,14.151,11.707,20.622a26.4,26.4,0,0,1,7.29,8.626c-2.345,2.589-2.725,5.926-3.484,9.12-2.018,10.538.43,13.564,8.719,10.782,7.729-3.171,17.2-3.873,19.952-14.09q-.975-5.718-1.95-11.43c5.665-1,6.76,7.541,12.653,6.066,1.352,2.489.355,8.141,6.188,4.591q.811,1.38,1.622,2.764c-1.418,2.163-3.051,4.266-1.975,7.12.4,1.074,1.59,1.243,1.993.634C593.518,140.333,593.211,149.5,595.69,149.332Z" transform="translate(-393.613 -87.226)" fill="#f46163"/>
          <path id="Path_8714" data-name="Path 8714" d="M506.211,119.167A70.031,70.031,0,0,1,523.168,137.3c12.645,18.881,37.351,18.029,49-1.613,1.353-2.285,2.386-5.3,5.45-5.206,2.474.079,1.484,2.7,1.674,4.326l-5.167,8.737c-6.954,7.446-14.529,13.883-25.121,15.388-6.188.192-11.84-1.928-17.487-4.07-8.984-4.949-15.447-12.62-21.9-20.3q-1.1-1.606-2.184-3.208c-.732-1.943-2.281-3.7-1.348-6.016Z" transform="translate(-393.668 -74.063)" fill="#ae2b42"/>
          <path id="Path_8715" data-name="Path 8715" d="M555.065,131.422c-5.892,1.475-6.988-7.061-12.653-6.066-5.586-8.465-5.015-9.593,3.819-12.08,3.3-.931,7.76-.8,9.346-5.5.718-2.127,2.283-4.585,5.056-4.236,3.386.426,3.049,3.88,4.071,6.188-2.635,7.72,2.58,5.853,6.619,5.419l.023.039C572.442,127.138,563.451,128.977,555.065,131.422Zm3.085-16.149c-.356-1.724-1.722-2.066-3.189-2.109a2.909,2.909,0,0,0-3.337,3.011c-.079,1.95,1.289,2.313,2.865,2C556.144,117.844,557.92,117.554,558.149,115.273Z" transform="translate(-367.584 -86.44)" fill="#4bb1d4"/>
          <path id="Path_8716" data-name="Path 8716" d="M530.712,106.28c-7.26.419-15.555-.351-12.286,11.471.6,2.175-1.176,3.74-2.582,5.224-2.571,1.175-5.674,1.828-5.482,5.667l.045-.045c-2.191.278-1.663,2.426-2.5,3.634-1.626-3.4-5.092-4.782-7.751-7.051,4.8-7.727,11-14.5,15.1-22.745,1.626-3.266,5.061-5.477,8.956-4.426S531.009,101.591,530.712,106.28Z" transform="translate(-398.119 -90.993)" fill="#311f68"/>
          <path id="Path_8717" data-name="Path 8717" d="M588.261,123.094c-2.9,5.411-6.123,10.674-8.585,16.275-1.97,4.48-4.3,4.059-7.462,1.742-3.087-4.4-7.93-7.495-9.663-12.91,2.671-1.554,3.865-3.72,2.823-6.812C573.193,119.415,580.7,121.642,588.261,123.094Z" transform="translate(-348.802 -72.923)" fill="#1f1441"/>
          <path id="Path_8718" data-name="Path 8718" d="M554.558,124.661c-2.75,10.218-12.223,10.92-19.95,14.09q-4.359-5.393-8.721-10.782c.759-3.194,1.139-6.531,3.484-9.12C535.517,130.517,545.835,124.132,554.558,124.661Z" transform="translate(-377.781 -74.314)" fill="#ae2b42"/>
          <path id="Path_8719" data-name="Path 8719" d="M501.282,113.07c2.659,2.268,6.125,3.647,7.751,7.052.936,3.327-.066,7.16,2.623,10.028-.933,2.315.616,4.073,1.348,6.016C499.594,134.044,495.5,125.977,501.282,113.07Z" transform="translate(-399.246 -78.882)" fill="#1f1441"/>
          <path id="Path_8720" data-name="Path 8720" d="M547.879,126.266c8.386-2.446,17.378-4.284,16.282-16.235,5.477,2.691,4.413,8.123,5.337,12.722l.065-.131c-2.358-.09-2.908,1.7-3.534,3.405a5.591,5.591,0,0,0-3.794,3.749c-2.945-.021-4.347,2.585-6.542,3.842q-.814-1.38-1.626-2.763C548.233,134.407,549.231,128.755,547.879,126.266Z" transform="translate(-360.398 -81.283)" fill="#fa8f8f"/>
          <path id="Path_8721" data-name="Path 8721" d="M484.765,163.32l-4.924-.424c1.531-8.152,5.987-15.868,3.658-24.594,4.838-5.2,7.122-3.1,7.162,2.856C490.714,149.006,487.482,156.128,484.765,163.32Z" transform="translate(-414.175 -61.274)" fill="#2f87bf"/>
          <path id="Path_8722" data-name="Path 8722" d="M484.963,137c2.329,8.726-2.127,16.443-3.658,24.594l-3.316.414q.07-9.037.138-18.072C481.824,143.018,481.686,138.327,484.963,137Z" transform="translate(-415.638 -59.97)" fill="#4bb1d4"/>
          <path id="Path_8723" data-name="Path 8723" d="M555.9,124.218a5.591,5.591,0,0,1,3.794-3.749c4.557,2.369,4.662.12,3.534-3.405l-.065.131c4.109.6,5.09,4.548,7.473,7,1.042,3.092-.152,5.258-2.822,6.814C563.483,129.371,558.653,128.617,555.9,124.218Z" transform="translate(-354.061 -75.725)" fill="#f46163"/>
          <path id="Path_8724" data-name="Path 8724" d="M560.5,112.628c-4.208.451-9.641,2.4-6.9-5.646C557.3,107.169,560.681,107.726,560.5,112.628Z" transform="translate(-356.765 -83.693)" fill="#4bb1d4"/>
          <path id="Path_8725" data-name="Path 8725" d="M551.908,139.721l4.949-.747c5.462,5.43,12,9.421,18.172,13.931,8.587,6.274,18.3,5.776,25.044-2.365,4.549-5.493,8.81-11.045,11.047-18.081,1.4-4.394,4.4-11.04,8.811-9.527,5.042,1.731.684,7.93-.233,11.809-1.685,7.133-4.122,14.269-10.352,19.073-1.97,1.518-1.9,3.545-2.027,5.611-6.472,1.568-10.911,7.4-18.274,7.638C573.516,167.574,556.089,155.171,551.908,139.721Z" transform="translate(-357.214 -71.26)" fill="#1f1441"/>
          <path id="Path_8726" data-name="Path 8726" d="M536.71,159.817c-3.357,2.512-6.913,4.533-11.265,4.576q-.225-10.554-.46-21.107l9.978,2.818A37.121,37.121,0,0,1,536.71,159.817Z" transform="translate(-378.493 -54.999)" fill="#f46163"/>
          <path id="Path_8727" data-name="Path 8727" d="M543.954,136.638l5.167-8.737c3.271,6.422,4.983,12.7-1.71,18.19Q545.682,141.365,543.954,136.638Z" transform="translate(-363.501 -67.159)" fill="#fa8f8f"/>
          <path id="Path_8728" data-name="Path 8728" d="M538.78,149.41l-9.978-2.818c-2.834-2.551-6.694-3.921-8.648-7.489,5.649,2.141,11.3,4.261,17.488,4.07Q538.21,146.3,538.78,149.41Z" transform="translate(-382.311 -58.305)" fill="#311f68"/>
          <path id="Path_8784" data-name="Path 8784" d="M568.127,179.04l-.432.727c.138-.251.274-.5.41-.75Z" transform="translate(-344.735 -26.758)" fill="#2f87bf"/>
          <path id="Path_8785" data-name="Path 8785" d="M511.238,117.9a25.02,25.02,0,0,0,3.511-.333c3.156-.739.868-8.961,5.269-5.6,4.447,3.4,10.882,6.7,10.816,14.235-.047,5.269-.609,10.579.448,16.248-9.337-6.044-15-15.005-20.437-24.159Z" transform="translate(-389.67 -80.385)" fill="#fa8f8f"/>
          <path id="Path_8786" data-name="Path 8786" d="M526.182,123.943q4.361,5.39,8.721,10.782C526.612,137.507,524.164,134.481,526.182,123.943Z" transform="translate(-378.076 -70.288)" fill="#311f68"/>
          <path id="Path_8787" data-name="Path 8787" d="M505.86,117.5c-.192-3.839,2.911-4.492,5.482-5.667a6.861,6.861,0,0,1,3.839,5.538l-.39.39C511.809,117.795,508.886,115.916,505.86,117.5Z" transform="translate(-393.617 -79.855)" fill="#fa8f8f"/>
          <path id="Path_8788" data-name="Path 8788" d="M507.107,128.642c-2.689-2.868-1.687-6.7-2.623-10.028.838-1.21.31-3.359,2.5-3.636q.126,3.746.254,7.5Q507.175,125.559,507.107,128.642Z" transform="translate(-394.697 -77.373)" fill="#fa8f8f"/>
          <path id="Path_8789" data-name="Path 8789" d="M552.484,111.011c-.229,2.281-2.005,2.571-3.661,2.9-1.575.315-2.943-.048-2.865-2A2.909,2.909,0,0,1,549.3,108.9C550.762,108.945,552.128,109.287,552.484,111.011Z" transform="translate(-361.919 -82.178)" fill="#bfeaea"/>
          <path id="Path_8812" data-name="Path 8812" d="M552.484,111.011c-.229,2.281-2.005,2.571-3.661,2.9-1.575.315-2.943-.048-2.865-2A2.909,2.909,0,0,1,549.3,108.9C550.762,108.945,552.128,109.287,552.484,111.011Z" transform="translate(-370.756 -77.789)" fill="#bfeaea"/>
          <path id="Path_8813" data-name="Path 8813" d="M552.484,111.011c-.229,2.281-2.005,2.571-3.661,2.9-1.575.315-2.943-.048-2.865-2A2.909,2.909,0,0,1,549.3,108.9C550.762,108.945,552.128,109.287,552.484,111.011Z" transform="translate(-365.004 -72.487)" fill="#bfeaea"/>
          <path id="Path_8814" data-name="Path 8814" d="M552.484,111.011c-.229,2.281-2.005,2.571-3.661,2.9-1.575.315-2.943-.048-2.865-2A2.909,2.909,0,0,1,549.3,108.9C550.762,108.945,552.128,109.287,552.484,111.011Z" transform="translate(-349.549 -77.065)" fill="#bfeaea"/>
          <path id="Path_8815" data-name="Path 8815" d="M552.484,111.011c-.229,2.281-2.005,2.571-3.661,2.9-1.575.315-2.943-.048-2.865-2A2.909,2.909,0,0,1,549.3,108.9C550.762,108.945,552.128,109.287,552.484,111.011Z" transform="translate(-357.454 -77.065)" fill="#bfeaea"/>
          <path id="Path_8790" data-name="Path 8790" d="M561.55,117.065c1.128,3.525,1.022,5.774-3.534,3.405C558.643,118.764,559.192,116.976,561.55,117.065Z" transform="translate(-352.386 -75.726)" fill="#f46163"/>
          <path id="Path_8816" data-name="Path 8816" d="M549.233,109.96c-.115,1.145-1.007,1.291-1.838,1.456-.791.158-1.478-.024-1.438-1a1.461,1.461,0,0,1,1.675-1.512C548.369,108.922,549.054,109.094,549.233,109.96Z" transform="translate(-360.294 -80.905)" fill="#fe8aad"/>
          <path id="Path_8821" data-name="Path 8821" d="M549.233,109.96c-.115,1.145-1.007,1.291-1.838,1.456-.791.158-1.478-.024-1.438-1a1.461,1.461,0,0,1,1.675-1.512C548.369,108.922,549.054,109.094,549.233,109.96Z" transform="translate(-369.294 -76.516)" fill="#fe8aad"/>
          <path id="Path_8822" data-name="Path 8822" d="M549.233,109.96c-.115,1.145-1.007,1.291-1.838,1.456-.791.158-1.478-.024-1.438-1a1.461,1.461,0,0,1,1.675-1.512C548.369,108.922,549.054,109.094,549.233,109.96Z" transform="translate(-363.378 -71.214)" fill="#fe8aad"/>
          <path id="Path_8823" data-name="Path 8823" d="M549.233,109.96c-.115,1.145-1.007,1.291-1.838,1.456-.791.158-1.478-.024-1.438-1a1.461,1.461,0,0,1,1.675-1.512C548.369,108.922,549.054,109.094,549.233,109.96Z" transform="translate(-355.828 -75.793)" fill="#fe8aad"/>
          <path id="Path_8824" data-name="Path 8824" d="M549.233,109.96c-.115,1.145-1.007,1.291-1.838,1.456-.791.158-1.478-.024-1.438-1a1.461,1.461,0,0,1,1.675-1.512C548.369,108.922,549.054,109.094,549.233,109.96Z" transform="translate(-347.952 -75.793)" fill="#fe8aad"/>
        </g>
        <path id="Path_8817" data-name="Path 8817" d="M2368.622,445.012l.789-.182s-5.182-18.7-.789-48.77-1.7-43.4-1.7-43.4a24.28,24.28,0,0,1-1.187-9.3c-2.666-2-9.8,14.129-9.8,14.129v76.369Z" transform="translate(-2071.455 -312.493)" fill="#311f68"/>
      </g>
    </g>
    <path id="Path_8819" data-name="Path 8819" d="M2353.052,565.2a117.362,117.362,0,0,1-.525-18.817c.613-9.277,2.1-12.69,2.1-12.69s.7-7-.438-10.415c-2.713-.525-11.377,0-11.377,0l2.45,20.567,2.713,18.379Z" transform="translate(-2001)" fill="#f46163"/>
    <path id="Path_8820" data-name="Path 8820" d="M2353.052,565.2a82.039,82.039,0,0,1,.232-18.839,104.12,104.12,0,0,0,1.344-12.668s-.543-8.917-1.681-12.331c-2.713-.525-10.134,1.916-10.134,1.916l2.45,20.567,2.713,18.379Z" transform="matrix(0.966, 0.259, -0.259, 0.966, -1822.136, -591.38)" fill="#f46163"/>
  </g>
</svg>
