<svg xmlns="http://www.w3.org/2000/svg" xmlns:xlink="http://www.w3.org/1999/xlink" width="356.711" height="336.859" viewBox="0 0 356.711 336.859">
  <defs>
    <filter id="Path_8804" x="0" y="0" width="356.711" height="327.414" filterUnits="userSpaceOnUse">
      <feOffset input="SourceAlpha"/>
      <feGaussianBlur stdDeviation="2.5" result="blur"/>
      <feFlood flood-opacity="0.749"/>
      <feComposite operator="in" in2="blur"/>
      <feComposite in="SourceGraphic"/>
    </filter>
  </defs>
  <g id="Group_4571" data-name="Group 4571" transform="translate(-15.167 -255.126)">
    <g transform="matrix(1, 0, 0, 1, 15.17, 255.13)" filter="url(#Path_8804)">
      <path id="Path_8804-2" data-name="Path 8804" d="M3448.342-600.307s77.809-12.239,84.8,58.575S3485.061-407.1,3485.061-407.1s-60.323,49.832-180.97,20.982-111.9-160.862-111.9-160.862,18.359-146,170.478-142.5C3439.6-672.87,3448.342-600.307,3448.342-600.307Z" transform="translate(-3184.55 697.04)" fill="#c0eceb" opacity="0.4"/>
    </g>
    <g id="Group_4569" data-name="Group 4569" transform="translate(69.399 295.569)">
      <g id="Group_4568" data-name="Group 4568">
        <path id="Path_8810" data-name="Path 8810" d="M1690.946,477.732l-11.732-18.921-105.985,1.346-7.886,17.575Z" transform="translate(-1565.036 -316.565)" fill="#f46163"/>
        <g id="Group_4564" data-name="Group 4564" transform="translate(0.18)">
          <path id="Path_8645" data-name="Path 8645" d="M308.871,186.836c2.215,4.782,1.308,8.231-4.558,7.023-14.44-2.972-21.051,4.956-26.762,16.572-6.145,12.5-13.888,24.228-21.007,36.249-1.608,2.715-2.77,5.011-.692,8.28,6.339,9.974,12.327,20.172,18.453,30.282,3.8,6.833,7.866,13.541,11.278,20.564,1.348,2.775,7.1,5.928.92,9.437-5.182,2.938-9.264,2.511-12.6-3.569-6.229-11.349-13.218-22.283-19.893-33.393a38.681,38.681,0,0,0-8.3-13.331c-2.2,4.193-4.016,7.645-5.83,11.1-7.114,11.908-14.366,23.737-21.272,35.765-2.44,4.248-4.9,6.292-10.07,4.418-4.812-1.744-6.113-3.469-3.157-8.342,7.658-12.627,14.789-25.573,22.128-38.387,10.521-11.032,12.167-21.954,1.843-34.689-6.4-7.89-16.137-31.527-20.454-40.805-5.007-10.767-27.257-1.785-24.32-7.328,19.52.06,39.041.17,58.559.13,3.188-.007,6.669,1.022,9.465-1.595l.821-.15.821.151c2.443,2.628,5.644,1.576,8.53,1.593C278.142,186.9,293.508,186.841,308.871,186.836Zm-62.557,51.607c8.242-14.1,15.844-27.133,23.482-40.143,1.952-3.325.474-4.3-2.73-4.3-15.032.009-30.061,0-46.8,0Z" transform="translate(-184.315 -25.443)" fill="#ae2b42"/>
          <path id="Path_8646" data-name="Path 8646" d="M342.323,127.1c-.628,10.537,4.2,19.351,9.045,28.105,2.2,3.978,3.6,7.707.139,11.632q-6.344,3.525-12.687,7.045c-2.491-1.093-1.547-5.237-4.976-5.647-.963,3.228-1.46,6.6-2.921,9.477-4.337,8.536-5.6,19.143-15.623,23.982q-2.573-2.9-5.146-5.8c-1.182-3.118-3.217-8.107-6.229-6.173-8.248,5.3-18.794,6.859-25.126,15.2-6,3.978-11.515,5.509-14.98-3.038,1.564-.525,2.5-1.489,2.277-3.264,2.2-1.821,4.792-1.947,7.514-2.414,7.452-1.275,12.546-9.5,9.18-13.946l-4.324-9.317c8.315-8.523,11.722-20.1,18.425-29.622-1.414,12.43-2.828,24.857-4.359,38.316l7.857-4.981c4.678,11.317,4.689,11.329,14.028,4.425,16.249-12.015,19.391-29.928,20.212-48.149.184-4.113,2.139-13.455-7.9-13.426l-.5-5.487c6.372.766,10.258,5.344,14.462,9.437Z" transform="translate(-117.631 -84.032)" fill="#f46163"/>
          <path id="Path_8647" data-name="Path 8647" d="M326.01,206.859c2.657,7.779,2.356,15.931,3.029,23.962q-2.3,28.216-4.595,56.431c-2.952-.982-4-3.7-4.99-6.122-6.025-14.769-11.868-29.6-11.557-45.987.148-7.848.013-15.7.005-23.555C314.171,210.908,320.107,208.946,326.01,206.859Z" transform="translate(-81.291 -7.469)" fill="#ae2b42"/>
          <path id="Path_8648" data-name="Path 8648" d="M286.834,263.6c-2.445-17.533-7.945-34.535-9.069-52.3a66.515,66.515,0,0,0,20.517,1.155c.033,13.209-.595,26.461.307,39.61.7,10.2-.157,21.108,6.987,29.941q.285,1.976.564,3.95c-8.481,2.076-16.853,5.211-25.812,2.686C291.109,282.309,291.109,282.309,286.834,263.6Z" transform="translate(-106.13 -3.805)" fill="#f46163"/>
          <path id="Path_8649" data-name="Path 8649" d="M314.212,209.592c.006,7.852.141,15.7-.007,23.553-.31,16.391,5.532,31.218,11.557,45.987.987,2.42,2.038,5.14,4.99,6.122q.359,1.177.712,2.352c-8.494,2.075-16.871,5.244-25.845,2.677,9.269-3.458,10.51-9.868,7.53-18.57-2.117-6.178-3.138-12.733-4.649-19.119-1.954-14.254-7.226-27.859-8.266-42.292a2.4,2.4,0,0,0,1.418-1.02Z" transform="translate(-87.6 -5.471)" fill="#f46163"/>
          <path id="Path_8650" data-name="Path 8650" d="M326.634,137.008c-4.2-4.093-8.091-8.671-14.464-9.437q-1.869-.038-3.741-.078c-5.02-1.9-7.693-5.8-7.116-10.888.723-6.364-4.056-7.364-7.881-9.021-2.693-1.168-4.658.878-4.987,3.638-.575,4.837-1.186,9.906,4.839,12.1,1.775.646,4.618-.294,3.943,3.241-3.135,1.223-6.79,1.272-9.22,4.084l-2.432.6c-2.013-6.514-3.954-13.041-4.587-19.874-.431-4.653.12-8.923,4.443-11.778,12.16-3.735,14.975-2.83,22.768,7.56,4.4,5.866,7.275,12.587,15.267,15.707C328.931,125,329.606,131.338,326.634,137.008Z" transform="translate(-103.572 -97.584)" fill="#1f1441"/>
          <path id="Path_8651" data-name="Path 8651" d="M296.385,283.783c-7.144-8.833-6.286-19.739-6.987-29.941-.9-13.149-.274-26.4-.307-39.61l11.88-5.084c2.361,12.174,3.346,24.35.931,36.681-.792,4.034-2.876,7.983-1.545,12.307Q298.37,270.96,296.385,283.783Z" transform="translate(-96.94 -5.581)" fill="#ae2b42"/>
          <path id="Path_8652" data-name="Path 8652" d="M295.379,267.437c-1.33-4.324.754-8.273,1.545-12.307,2.416-12.331,1.431-24.507-.929-36.683q.235-10.11.467-20.215l2.41-.359c.179,3.828.016,7.713.637,11.468.553,3.354-1.308,8.257,4.558,9.036a3.793,3.793,0,0,0,.529,1.334c1.04,14.435,6.312,28.04,8.266,42.294C307.385,264.945,301.851,267.7,295.379,267.437Z" transform="translate(-91.962 -14.88)" fill="#bfeaea"/>
          <path id="Path_8653" data-name="Path 8653" d="M282.346,254.9c8.959,2.525,17.331-.609,25.812-2.686,3.9,4.876,3.77,7.724-3.357,9-9.767,1.746-19.194.385-29.483-1.106C276.717,256.293,279.621,255.711,282.346,254.9Z" transform="translate(-108.149 29.936)" fill="#624cd4"/>
          <path id="Path_8654" data-name="Path 8654" d="M306.369,254.884c8.974,2.567,17.351-.6,25.845-2.677,3.781,4.888,3.726,7.76-3.441,9.027-9.773,1.728-19.2.327-29.447-1.046C300.645,256.267,303.65,255.758,306.369,254.884Z" transform="translate(-88.349 29.928)" fill="#624cd4"/>
          <path id="Path_8655" data-name="Path 8655" d="M214.155,239.943c1.814-3.452,3.626-6.9,5.83-11.1a38.68,38.68,0,0,1,8.3,13.331Q221.219,241.062,214.155,239.943Z" transform="translate(-158.587 10.662)" fill="#bfeaea"/>
          <path id="Path_8729" data-name="Path 8729" d="M212.433,160.494a6.653,6.653,0,0,1-1.6.239l-.562-.52a7.465,7.465,0,0,0,.307-2.677c-2.75-9.868-1.675-18.829,7.474-24.775,11.486-7.465,23.912-11.307,37.707-6.8,2.476.808,4.339,2.089,4.476,4.97-8.452,4.578-9.368,7.313-3.848,11.492l.033-.055c-7.136.155-14.893-2.04-20.706,3.949A55.463,55.463,0,0,1,212.433,160.494Z" transform="translate(-162.629 -75.775)" fill="#4bb1d4"/>
          <path id="Path_8730" data-name="Path 8730" d="M195.878,189.751c-3.177-8.357-6.127-16.754-4.651-25.941,5.105.157,10.207.389,15.311.445,15.258.166,15.094.179,18.586,14.716,1.272,5.29-.252,9.837-4.766,11.205-5.54,1.679-6.806,6.094-9.4,9.842C203.885,199.6,199.929,194.6,195.878,189.751Z" transform="translate(-177.818 -42.97)" fill="#624cd4"/>
          <path id="Path_8731" data-name="Path 8731" d="M286.657,116.3q1.215-.3,2.432-.6A50.087,50.087,0,0,0,290,121.9c1.077,3.965,1.394,8.7,6.26,10.1,4.629,1.33,6.8-2.808,9.7-5.2l1.865,2.153c-.423,7.332-3.166,13.984-6.038,20.6-9.295,3.418-10.244,5.708-6.687,16.161-.557,4.8-4.671,6.735-7.689,9.554l-7.857,4.981c1.531-13.459,2.945-25.887,4.359-38.316,3.627-7.788,2.106-16.053,2.255-24.164A3.817,3.817,0,0,1,286.657,116.3Z" transform="translate(-104.654 -82.642)" fill="#624cd4"/>
          <path id="Path_8732" data-name="Path 8732" d="M210.778,202.2c2.6-3.748,3.863-8.164,9.4-9.842,4.514-1.368,6.038-5.916,4.766-11.205-3.492-14.537-3.328-14.55-18.586-14.716-5.1-.057-10.205-.288-15.311-.445,1.889-6.162,7.507-2.21,10.983-4.053q.892-.074,1.79-.15l8.99-.564c1.292,2.146,2.576,3.985,3.779-.053q5.515.416,11.019.83c-.009,0,.6.349.6.349l.617-.31,3.89.755c-2,6.41-4.261,12.846,1.878,18.425l.024-.2.312,3.571c.724,9.893,8.125,4.377,12.66,5.481l3.487-.13q2.844-.279,5.691-.557,1.837.454,3.671.91l.556,1.892c-1.014,7.89-5.27,12.364-13.422,12.731h-.836l-.81,0-.513-.378c.349-2.622,2.483-2.96,4.456-3.772,2.155-.889,3.308-2.584,1.925-5.036-1.962-3.48-17.068-3.768-20.427-.387C225.578,200.857,219.219,204.654,210.778,202.2Z" transform="translate(-177.641 -45.148)" fill="#311f68"/>
          <path id="Path_8733" data-name="Path 8733" d="M243.113,167.7c3.54,2.206,6.368,1.708,9.5-1.321a70.784,70.784,0,0,1,19.5-12.946,39.337,39.337,0,0,0,16.417-13.515c3.4,1.575,4.313,4.775,5.235,7.976-2.626,3.058-.743,7.014-2.058,10.333A69.858,69.858,0,0,1,261.5,171.643c-4.43.77-9.965,1.4-10.795,7.784l-5.678,2.9-2.222-6.3Z" transform="translate(-134.964 -62.675)" fill="#f46163"/>
          <path id="Path_8734" data-name="Path 8734" d="M273.1,166.922c-.921-3.2-1.837-6.4-5.235-7.974,9.109-14.17,16.9-29.217,27.945-42.111-.148,8.105,1.374,16.371-2.253,24.159-6.7,9.525-10.11,21.1-18.427,29.618Q274.113,168.766,273.1,166.922Z" transform="translate(-114.295 -81.707)" fill="#fa8f8f"/>
          <path id="Path_8735" data-name="Path 8735" d="M211,152.327a55.463,55.463,0,0,0,23.283-14.176c5.813-5.989,13.57-3.793,20.706-3.949-3.208,10.992-19.54,24.553-30.315,25.326C218.541,159.968,214.368,156.976,211,152.327Z" transform="translate(-161.192 -67.608)" fill="#2f87bf"/>
          <path id="Path_8736" data-name="Path 8736" d="M203.729,162.744c-3.095,2.586-5.573,6.582-10.714,3.677-4.709-2.662-4.147-6.941-3.972-11.167.6-14.57,8.559-20.07,25.735-17.831-.266,2.315.648,5.229-1.808,6.624-5.675,3.222-2.082,6.3-.177,9.488l.006-.005C210.542,157.354,199.779,152.808,203.729,162.744Z" transform="translate(-179.392 -65.128)" fill="#4bb1d4"/>
          <path id="Path_8737" data-name="Path 8737" d="M216.718,188.332c8.441,2.458,14.8-1.339,20.586-6.85,3.421,4.994,6.614,10.337,14.05,9.195l.513.378c-2.792,2.617-6.273,1.587-9.461,1.595-19.518.04-39.039-.069-58.559-.13,4.25-6.881,7.113-15.473,17.79-14.455C205.692,182.916,209.648,187.91,216.718,188.332Z" transform="translate(-183.581 -31.283)" fill="#f46163"/>
          <path id="Path_8738" data-name="Path 8738" d="M242.759,153.737c-.69-5.076,5.806-5.333,6.64-9.879.274-1.5,3.653-.39,4.16,2.3-5.147,4.166,1.347,9.839-1.686,14.021-3.46,4.773-2.416,9.185-.095,13.794q-.95,1.856-1.9,3.71c-4.385,2.509-5.611,6.156-3.914,10.857q-.769.134-1.542.25-1.943-.123-3.885-.241l.033.055c-.967-8.9-6.525-13.67-14.579-16.194-.17-1.976,1.675-2.482,2.648-3.622l7.5,4.512c.234-4.669,5.344-5.952,6.638-10.129C246.5,160.017,248.95,156.864,242.759,153.737Z" transform="translate(-148.831 -59.979)" fill="#4bb1d4"/>
          <path id="Path_8739" data-name="Path 8739" d="M195.052,133.7c-2.8-1.567-5.242-3.717-4-7.12,1.2-3.281,4.5-3.653,7.647-3.461,6.859.418,13.824.5,19.367,5.534-2.533,7.136-8.629,4.843-13.809,5.5C201.06,134.551,198.209,131.038,195.052,133.7Z" transform="translate(-177.913 -76.562)" fill="#4bb1d4"/>
          <path id="Path_8740" data-name="Path 8740" d="M208.385,175.442c-1.2,4.038-2.487,2.2-3.779.053-1.6-6.961-.412-14.4-3.606-21.086,1.68-1.9,1.985-4.178,1.839-6.587l-.006.005c2.861.4,3.52-2.266,5.093-3.66.219,4.259.438,8.518.706,13.767,3.616-5.042,3.31-11.238,8.45-14.072l.558.516A108.167,108.167,0,0,0,208.385,175.442Z" transform="translate(-169.435 -59.421)" fill="#4bb1d4"/>
          <path id="Path_8741" data-name="Path 8741" d="M214.448,158.788c-1.573,1.394-2.232,4.056-5.093,3.66-1.9-3.184-5.5-6.266.177-9.488,2.456-1.394,1.542-4.308,1.808-6.624.423-5.892-.007-10.561-8.2-9.992-3.668.255-7.4-2.062-10.05-5.166,3.157-2.66,6.009.852,9.205.449,5.18-.653,11.276,1.64,13.809-5.5.274.536.929,1.3.765,1.575C210.983,137.686,213.654,148.309,214.448,158.788Z" transform="translate(-175.955 -74.042)" fill="#2f87bf"/>
          <path id="Path_8742" data-name="Path 8742" d="M237.526,159.248c-.973,1.14-2.817,1.646-2.646,3.618q-1.8.7-3.607,1.41l-9.242.724a2.137,2.137,0,0,0-1.6-.358l-1.681-.766c-1.148-1.578-4.449-4.053-3.294-4.383,3.33-.952,4.775-4.658,8.472-4.735A21.207,21.207,0,0,1,237.526,159.248Z" transform="translate(-157.714 -50.438)" fill="#fa8f8f"/>
          <path id="Path_8743" data-name="Path 8743" d="M241.087,172.63c-2.323-4.609-3.367-9.021.093-13.794,3.033-4.182-3.461-9.855,1.686-14.021l.124.3c.308,1.438-1.994,3.724,1.354,4.175,4.724,1.347,2.093,4.584,1.969,7.273-.109,2.356-3.607,4.742-.026,7.1q-.156,4.163-.312,8.33Q243.532,172.308,241.087,172.63Z" transform="translate(-138.138 -58.635)" fill="#2f87bf"/>
          <path id="Path_8744" data-name="Path 8744" d="M220.8,159.754l1.679.765c-4.348,6.651-5.925,14.03-5.76,21.867-6.138-5.58-3.879-12.015-1.878-18.425A10.073,10.073,0,0,1,220.8,159.754Z" transform="translate(-159.766 -46.315)" fill="#4bb1d4"/>
          <path id="Path_8745" data-name="Path 8745" d="M206.5,146.032c.146,2.409-.159,4.691-1.839,6.587-2.111,1.691-4.4,2.9-7.229,2.628C193.479,145.311,204.242,149.857,206.5,146.032Z" transform="translate(-173.092 -57.631)" fill="#2f87bf"/>
          <path id="Path_8746" data-name="Path 8746" d="M237.157,148.968c6.191,3.128,3.739,6.281.027,9.435C229.643,155.283,233.251,152.127,237.157,148.968Z" transform="translate(-143.229 -55.21)" fill="#fa8f8f"/>
          <path id="Path_8747" data-name="Path 8747" d="M236.653,139.3c-5.52-4.178-4.6-6.914,3.848-11.492l0,.181q.1,2.206.21,4.408Z" transform="translate(-142.893 -72.656)" fill="#2f87bf"/>
          <path id="Path_8748" data-name="Path 8748" d="M242.739,149.153c-3.348-.451-1.046-2.737-1.354-4.175Q242.064,147.066,242.739,149.153Z" transform="translate(-136.533 -58.5)" fill="#4bb1d4"/>
          <path id="Path_8749" data-name="Path 8749" d="M237.4,132.32q-.107-2.2-.21-4.408C239.081,129.3,238.484,130.8,237.4,132.32Z" transform="translate(-139.587 -72.574)" fill="#4bb1d4"/>
          <path id="Path_8750" data-name="Path 8750" d="M212.3,161.849l-.617.31s-.608-.35-.6-.349.617-.412.617-.412Z" transform="translate(-161.117 -44.959)" fill="#4bb1d4"/>
          <path id="Path_8751" data-name="Path 8751" d="M198.859,161.507q-.9.077-1.79.15Z" transform="translate(-172.677 -44.869)" fill="#4bb1d4"/>
          <path id="Path_8752" data-name="Path 8752" d="M316.236,230.021q-1.2.181-2.41.358c-12.824.878-25.414.243-37.192-5.695-3.086-4.536-3.093-9.5-2.3-14.694,2.138-13.961,4.144-27.943,6.2-41.918,8.631.484,14.419-5.635,21.314-9.184q2.573,2.9,5.144,5.8c.56,3.536.954,7.107,1.708,10.6,3.781,17.566,4.115,35.714,9,53.09Z" transform="translate(-109.324 -47.029)" fill="#624cd4"/>
          <path id="Path_8753" data-name="Path 8753" d="M277.309,194.947c11.778,5.937,24.368,6.572,37.192,5.695q-.233,10.108-.467,20.217-5.942,2.545-11.882,5.085a66.514,66.514,0,0,1-20.517-1.155c-7.9-1.651-10.072-6.124-7.591-13.8C275.713,205.827,276.26,200.306,277.309,194.947Z" transform="translate(-110.001 -17.293)" fill="#1f1441"/>
          <path id="Path_8754" data-name="Path 8754" d="M275.235,164.46c.007,2.812-.987,5.8,1.42,8.187-.164,6.2,4.1,4.346,6.99,3.372,3.75-1.261,3.8-.182,4.761,3.308,1.631,5.925,3.543,10.8-4.283,13.448-.942.318-1.241,2.533-1.837,3.868-13.045,3.1-21.334-5.414-30.2-12.43-2.8-2.215-5.4-4.693-8.083-7.052q-1.013-2.028-2.022-4.054A104.808,104.808,0,0,1,264,183.762c4.673,2.852,6.094,1.808,7.056-3.3,1.042-5.532.714-11.388,3.425-16.577Q274.862,164.164,275.235,164.46Z" transform="translate(-135.641 -42.911)" fill="#4bb1d4"/>
          <path id="Path_8755" data-name="Path 8755" d="M222.027,190.971c8.153-.367,12.408-4.841,13.422-12.729,2.9,4.144,5.781,8.324,11.837,7.483,7.045,1.83,11.094-1.8,13.93-7.64,8.583,1.177,10.829,9.1,15.437,14.506-15.364.005-30.729.062-46.095-.027C227.671,192.547,224.47,193.6,222.027,190.971Z" transform="translate(-152.095 -31.198)" fill="#f46163"/>
          <path id="Path_8756" data-name="Path 8756" d="M266.616,193.249c.6-1.336.9-3.551,1.837-3.868,7.826-2.651,5.914-7.523,4.283-13.448-.962-3.491-1.011-4.569-4.761-3.308-2.892.974-7.155,2.826-6.99-3.372,15.413-2.965,18.635-1.259,21.706,11.486,2.308,9.587.277,12.291-9.8,12.82A58.86,58.86,0,0,1,266.616,193.249Z" transform="translate(-119.972 -39.516)" fill="#2f87bf"/>
          <path id="Path_8757" data-name="Path 8757" d="M303.383,161.874c-6.9,3.549-12.683,9.667-21.314,9.184L272.03,170.9c6.33-8.344,16.876-9.9,25.124-15.2C300.166,153.767,302.2,158.755,303.383,161.874Z" transform="translate(-110.859 -50.015)" fill="#ae2b42"/>
          <path id="Path_8758" data-name="Path 8758" d="M249.8,187.123c-2.836,5.843-6.884,9.47-13.93,7.638.077-3.494,2.8-4.793,5.058-6.8,4.662-4.142,1.443-15.075-4.885-17.6q.109-.657.234-1.31c.513-.078,1.027-.162,1.54-.252q2.562-.835,5.118-1.671c1.753.617,3.454,1.3,4.08,3.306q1.013,2.025,2.024,4.054Q249.419,180.806,249.8,187.123Z" transform="translate(-140.679 -40.236)" fill="#624cd4"/>
          <path id="Path_8759" data-name="Path 8759" d="M267.748,160.385c.224,1.772-.712,2.735-2.275,3.261-1.042,0-2.08,0-3.12-.007l-.538-.69C263.345,161.058,265.6,160.849,267.748,160.385Z" transform="translate(-119.284 -45.795)" fill="#4bb1d4"/>
          <path id="Path_8760" data-name="Path 8760" d="M264.021,162.48q-1.741,1.85-3.478,3.7c-.245-.2-.5-.389-.752-.573a3.94,3.94,0,0,1,3.691-3.821Z" transform="translate(-120.952 -44.636)" fill="#4bb1d4"/>
          <path id="Path_8761" data-name="Path 8761" d="M297.1,238.112q.731-.818,1.465-1.637c4.68.821,8.835-1.629,13.311-2.159,6.675-.786,9.658-4.1,8.855-11.4-1.64-14.926-2.562-29.93-3.731-44.907-.925-11.824-1.489-23.527,12.488-28.937,7.06,11.4,10.12,23.691,9.839,37.185-.418,20-.239,40.031.219,60.035.1,4.293-2.956,5.583-4.638,8.213-5.9,2.087-11.838,4.049-18.108,4.73q-6.279-.151-12.557-.308-.972-.159-1.947-.316c-5.866-.779-4.005-5.682-4.558-9.036C297.114,245.824,297.277,241.94,297.1,238.112Z" transform="translate(-90.187 -55.12)" fill="#1f1441"/>
          <path id="Path_8762" data-name="Path 8762" d="M333.664,153.486c-13.977,5.41-13.413,17.114-12.488,28.937,1.17,14.977,2.091,29.981,3.731,44.907.8,7.3-2.18,10.609-8.855,11.4-4.476.529-8.631,2.98-13.311,2.159-4.886-17.378-5.22-35.526-9-53.092-.754-3.5-1.148-7.067-1.708-10.6,10.027-4.839,11.287-15.446,15.625-23.982,1.462-2.879,1.958-6.249,2.921-9.477,3.429.411,2.485,4.554,4.976,5.649,5.625,7.326,10.663,4.317,15.577-.887Q332.4,150.989,333.664,153.486Z" transform="translate(-94.364 -59.53)" fill="#311f68"/>
          <path id="Path_8763" data-name="Path 8763" d="M320.5,149.124c-4.914,5.2-9.952,8.213-15.577.887l12.687-7.047Z" transform="translate(-83.734 -60.161)" fill="#1f1441"/>
          <path id="Path_8764" data-name="Path 8764" d="M283.861,174.175c3.018-2.819,7.133-4.755,7.689-9.556,3.3-4.943,5.1-10.506,6.687-16.159,2.872-6.616,5.615-13.269,6.036-20.6,1.733-3.744,2.567-7.983,5.932-10.837,10.034-.029,8.08,9.313,7.9,13.426-.821,18.221-3.963,36.134-20.212,48.149C288.55,185.5,288.539,185.492,283.861,174.175Z" transform="translate(-101.103 -81.552)" fill="#fa8f8f"/>
          <path id="Path_8765" data-name="Path 8765" d="M280.015,170.344a3.94,3.94,0,0,0-3.691,3.821c-2.715,5.186-2.387,11.041-3.429,16.573-.962,5.111-2.383,6.155-7.056,3.3a104.809,104.809,0,0,0-22.016-10.654c-.628-2.007-2.328-2.69-4.08-3.306q.493-2.02.987-4.04c2.992.469,5.142-.852,6.815-3.2l5.678-2.9c15.324.005,28.943-5.173,41.48-13.638l7.941-4.888c3.367,4.449-1.728,12.67-9.18,13.946-2.722.467-5.319.593-7.514,2.414C283.8,168.244,281.546,168.454,280.015,170.344Z" transform="translate(-137.485 -53.19)" fill="#bfeaea"/>
          <path id="Path_8766" data-name="Path 8766" d="M278.194,157.3l-7.939,4.886c-2.275-2.389.817-5.115-.474-7.563,1.316-3.319-.567-7.275,2.058-10.333l2.029,3.689Z" transform="translate(-113.035 -59.07)" fill="#311f68"/>
          <path id="Path_8767" data-name="Path 8767" d="M301.822,119.54c-3.365,2.854-4.2,7.092-5.932,10.837q-.931-1.081-1.863-2.149c.624-3.463,2.452-6.731,1.726-10.421l1.823-3.832q1.872.041,3.741.078Q301.571,116.8,301.822,119.54Z" transform="translate(-92.719 -84.067)" fill="#311f68"/>
          <path id="Path_8768" data-name="Path 8768" d="M299.945,209.109q.974.156,1.947.316a2.4,2.4,0,0,1-1.418,1.02A3.816,3.816,0,0,1,299.945,209.109Z" transform="translate(-87.839 -5.614)" fill="#ae2b42"/>
          <path id="Path_8769" data-name="Path 8769" d="M305.161,123.124q-.911,1.916-1.823,3.83c-5.133,2.363-10.454,5.093-9.379-4.762.675-3.534-2.168-2.595-3.943-3.241-6.025-2.191-5.414-7.26-4.839-12.1.328-2.761,2.294-4.806,4.987-3.638,3.825,1.657,8.6,2.657,7.881,9.021C297.468,117.322,300.141,121.221,305.161,123.124Z" transform="translate(-100.304 -93.217)" fill="#f46163"/>
          <path id="Path_8770" data-name="Path 8770" d="M294,113.464c-1.075,9.855,4.246,7.125,9.379,4.762.726,3.691-1.1,6.959-1.726,10.423-2.9,2.387-5.067,6.525-9.7,5.195-4.866-1.4-5.184-6.133-6.26-10.1a50.093,50.093,0,0,1-.916-6.195C287.21,114.736,290.865,114.687,294,113.464Z" transform="translate(-100.345 -84.489)" fill="#fa8f8f"/>
          <path id="Path_8791" data-name="Path 8791" d="M295.628,134.253c-1.587,5.653-3.388,11.216-6.687,16.159C285.384,139.961,286.333,137.671,295.628,134.253Z" transform="translate(-98.493 -67.345)" fill="#311f68"/>
          <path id="Path_8792" data-name="Path 8792" d="M241.645,169.683c6.328,2.525,9.547,13.459,4.885,17.6-2.257,2.007-4.981,3.306-5.058,6.8-6.056.843-8.934-3.337-11.837-7.481-.184-.633-.37-1.263-.558-1.9q2.143-8.381,4.29-16.761l4.658.239-.033-.055C238.8,169.616,240.2,169.7,241.645,169.683Z" transform="translate(-146.281 -39.559)" fill="#8674ef"/>
          <path id="Path_8793" data-name="Path 8793" d="M242.319,175.4q-2.329-.118-4.66-.239c-1.85-1.735-3.98-5.029-5.195.292-1.17,5.129-1.861,10.37-2.763,15.561q-2.846.276-5.691.557c-1.131-10.324,5.14-20.619.124-30.959q1.8-.706,3.607-1.409C235.794,161.727,241.352,166.5,242.319,175.4Z" transform="translate(-150.575 -46.772)" fill="#2f87bf"/>
          <path id="Path_8794" data-name="Path 8794" d="M214.919,182.054c-.164-7.837,1.412-15.216,5.76-21.867a2.149,2.149,0,0,1,1.6.359c.279,7.894-6.235,16.033,1.029,24.96,1.175-8.2,2.18-15.209,3.186-22.215,3.662,9.127,4.556,18.292,1.416,27.618-4.534-1.1-11.935,4.412-12.661-5.483,1.9-1.363,1.62-2.538-.31-3.569Z" transform="translate(-157.966 -45.983)" fill="#2f87bf"/>
          <path id="Path_8795" data-name="Path 8795" d="M225.674,191.06c3.14-9.326,2.246-18.491-1.416-27.618-1.005,7.007-2.011,14.012-3.186,22.215-7.264-8.926-.75-17.066-1.029-24.96l9.242-.724c5.016,10.339-1.255,20.633-.124,30.957Q227.418,190.993,225.674,191.06Z" transform="translate(-155.726 -46.134)" fill="#4bb1d4"/>
          <path id="Path_8796" data-name="Path 8796" d="M227.194,190.173c-7.436,1.142-10.629-4.2-14.05-9.194,3.363-3.381,18.469-3.093,20.431.387,1.383,2.452.23,4.147-1.925,5.036C229.677,187.213,227.542,187.551,227.194,190.173Z" transform="translate(-159.421 -30.779)" fill="#624cd4"/>
          <path id="Path_8797" data-name="Path 8797" d="M227.066,184.978c.9-5.191,1.593-10.432,2.763-15.561,1.215-5.321,3.345-2.027,5.195-.292q-2.143,8.381-4.288,16.761Z" transform="translate(-147.94 -40.739)" fill="#bfeaea"/>
          <path id="Path_8798" data-name="Path 8798" d="M214.927,172.049c1.93,1.031,2.21,2.206.31,3.569Q215.084,173.836,214.927,172.049Z" transform="translate(-157.95 -36.176)" fill="#4bb1d4"/>
          <path id="Path_8799" data-name="Path 8799" d="M288.139,149.95c1.292,2.449-1.8,5.175.474,7.563-12.539,8.466-26.158,13.645-41.482,13.639.83-6.386,6.364-7.014,10.795-7.784A69.857,69.857,0,0,0,288.139,149.95Z" transform="translate(-131.393 -54.4)" fill="#ae2b42"/>
          <path id="Path_8800" data-name="Path 8800" d="M248.09,166.009c-1.673,2.343-3.823,3.664-6.815,3.2q-1.1-2.573-2.193-5.147.947-1.853,1.9-3.71,2.447-.323,4.89-.642Z" transform="translate(-138.031 -46.354)" fill="#fa8f8f"/>
          <path id="Path_8801" data-name="Path 8801" d="M241.182,162.092q1.1,2.576,2.193,5.147-.493,2.017-.987,4.038-2.562.835-5.12,1.671C235.571,168.248,236.8,164.6,241.182,162.092Z" transform="translate(-140.131 -44.387)" fill="#2f87bf"/>
          <path id="Path_8802" data-name="Path 8802" d="M237.616,169.6c-1.447.018-2.846-.068-3.653-1.553q1.941.12,3.885.241C237.767,168.726,237.689,169.162,237.616,169.6Z" transform="translate(-142.252 -39.476)" fill="#2f87bf"/>
        </g>
        <path id="Path_8806" data-name="Path 8806" d="M2.658,0H146.082V16.074L0,16.071Z" transform="translate(33.656 161.845) rotate(60)" fill="#ae2b42"/>
        <rect id="Rectangle_4030" data-name="Rectangle 4030" width="143.424" height="15.181" transform="translate(102.232 171.291) rotate(120)" fill="#ae2b42"/>
        <path id="Path_8807" data-name="Path 8807" d="M3.155,0H71.848V5.164L0,5.464Z" transform="translate(23.267 165.671) rotate(60)" fill="#f46163"/>
        <path id="Path_8808" data-name="Path 8808" d="M2.51,0,59.269.233,57.152,5.164,0,5.464Z" transform="translate(94.91 163.938) rotate(120)" fill="#f46163"/>
        <rect id="Rectangle_4031" data-name="Rectangle 4031" width="126" height="9" transform="translate(0.124 160.694)" fill="#ae2b42"/>
        <rect id="Rectangle_4032" data-name="Rectangle 4032" width="72.218" height="5.701" transform="translate(58.503 228.418) rotate(120)" fill="#f46163"/>
        <path id="Path_8809" data-name="Path 8809" d="M0,.632,65.552,0V5.7L2.761,5.747Z" transform="translate(65.018 236.773) rotate(60)" fill="#f46163"/>
        <path id="Path_8811" data-name="Path 8811" d="M1632.175,479.867h16.777l-6.3-1.469h-3.985Z" transform="translate(-1572.189 -318.661)" fill="#f46163"/>
      </g>
      <path id="Path_8818" data-name="Path 8818" d="M1797.045,491.772s5.982.417,8.832-.826a26.813,26.813,0,0,1,6.439-1.674s8.289-.777,7.408-9.843-3.115-41.952-3.115-41.952-3.121-19.538,2.053-25.909a20.714,20.714,0,0,1,9.563-7.341l-2.6-5.2s-3.316,4.144-6.579,4.87c-5.077,1.3-8.807-3.782-8.807-3.782l-5.232,4.113-2.087,60.424-11.7-36.408-4.643-.4.966,7.117,1.085,5.447s2.861,14.072,3.339,22.6S1797.045,491.772,1797.045,491.772Z" transform="translate(-1588.714 -310.167)" fill="#311f68"/>
    </g>
  </g>
</svg>
