<svg xmlns="http://www.w3.org/2000/svg" xmlns:xlink="http://www.w3.org/1999/xlink" width="314.482" height="333.264" viewBox="0 0 314.482 333.264">
  <defs>
    <filter id="Path_8803" x="0" y="0" width="314.482" height="312.695" filterUnits="userSpaceOnUse">
      <feOffset input="SourceAlpha"/>
      <feGaussianBlur stdDeviation="2.5" result="blur"/>
      <feFlood flood-opacity="0.749"/>
      <feComposite operator="in" in2="blur"/>
      <feComposite in="SourceGraphic"/>
    </filter>
  </defs>
  <g id="Group_4572" data-name="Group 4572" transform="translate(-29.123 -250.5)">
    <g transform="matrix(1, 0, 0, 1, 29.12, 250.5)" filter="url(#Path_8803)">
      <path id="Path_8803-2" data-name="Path 8803" d="M3183.779-419.841s65.648-93.9,17.451-207.745c-23.929-45.659-56.873,0-56.873,0L3129.113-610.8s-12.292-62.938-66.379-75.723-64.905,64.905-64.905,64.905-37.37-30.485-64.9,14.26-4.426,129.318-4.426,129.318,19.668,49.662,51.629,78.673S3183.779-419.841,3183.779-419.841Z" transform="translate(-2911.92 695.44)" fill="#c0eceb" opacity="0.4"/>
    </g>
    <g id="Group_4563" data-name="Group 4563" transform="translate(65.246 294.704)">
      <path id="Path_8610" data-name="Path 8610" d="M31.281,344.773c-32.045.068-64.089.012-96.131.319-5.647.055-6.865-2.056-6.965-7.214-.289-14.891-1.115-29.77-1.729-44.652,1.283-8.2-2.191-16.107-1.465-24.272.589-14.014.775-28.025-.521-42.018a65.921,65.921,0,0,0,.342-8.234c-.4-5.191,1.752-11.445-1.447-15.249-2.205-2.62-8.118-2.192-12.4-2.982-5.363-.987-7.214-3.546-5.78-9.223,2.556-10.134,4.394-20.45,6.535-30.687,4.061-.682,8.332-.6,11.834-3.289a105.46,105.46,0,0,0,23.921-8.946c1.416-.729,2.727-3.48,4.638-.569q2.7,9.023,5.413,18.049c-6.714,3.7-14.081-.129-22.514,1.513,4.783,3.3,8.6,4.7,12.979,4.655,4.663,2.375,2.259,4.059-.556,5.7-7.335,1.46-14.764,1.082-22.176,1.241-8.414.181-4.379,6.694-4.827,10.541-.518,4.451,1.643,6.575,6.613,5.239,6.472-1.742,13.158-.44,19.745-.7-.256,4.3-3.832,8.566-.144,12.912,1.5-.478,1.855-1.656,1.877-3.042l.032.063c2.942.081,4.444-2.718,6.965-3.482,6.391,1.537,12.751,3.251,19.391,3.347l3.045,1.321c25.174,4.326,50.4,8.374,75.483,13.18,6.057,1.16,13.321-.679,18.052,5.319-11.029,8.546-9.6,20.554-7.323,31.681a80.953,80.953,0,0,1-2.884,43.691c-1.726,5.008-3.843,9.813-9.774,11.223-1.827-3.063-3.682-6.118-3.49-9.892a31.472,31.472,0,0,0-2.607-15.184c-3.77-8.082-12.056-10.968-19.077-6.694-8.243,7.274-10.526,18.843-5.461,31.529a29.109,29.109,0,0,1,2.3,14.386C22.192,332.735,25.252,339.29,31.281,344.773Z" transform="translate(107.068 -58.952)" fill="#624cd4"/>
      <path id="Path_8611" data-name="Path 8611" d="M65.567,213.3c8.279.136,10.949,5.108,9.862,12.363-.714,4.759-2.551,9.35-3.89,14.016-4.213,7.793-7.753,15.918-9.24,24.64a26.9,26.9,0,0,0,3.87,19.846c-5.7.823-6.283-5.388-11.049-8.04l-9.564,33.035c-.119.241-.241.48-.36.72l.387-.694c12.863-1.679,22.766-10.473,34.758-14.431,9.308-3.072,9.764-10.74,6.787-18.955,6.917,3.005,9.524,8.681,4.826,14.794-11.012,14.331-23.349,26.215-43.9,26.24-16.736.018-33.51.539-50.271.408-2.97-.023-6.089.582-8.855-1.175.1-4.13-.365-8.379.466-12.355.755-3.611,2.564-8.48,7.522-3.588,3.918,3.865,5.73.4,6.678-1.905a273.455,273.455,0,0,0,15.4-52.619c1.835-9.559-4.087-19.366-.714-28.543,3.007-8.18,3.6-15.636.632-23.593l4.73-.476c5.184,4.021,7.461,9.318,7.134,15.85q-1.008,20.183-1.9,40.37c-.183,4.028.01,7.921,5.139,8.93-7.179,3.981-4.408,10.018-3.4,15.812,1.067,6.15,3.739,6.2,7.408,2.1,8.092-9.036,17.141-16.862,20.529-29.844C61.4,235.282,68.343,225.425,65.567,213.3Z" transform="translate(162.577 -28.261)" fill="#2f87bf"/>
      <path id="Path_8612" data-name="Path 8612" d="M29.323,193.484c2.972,7.957,2.375,15.413-.632,23.593-3.374,9.177,2.549,18.985.714,28.543a273.455,273.455,0,0,1-15.4,52.619c-.948,2.305-2.76,5.77-6.678,1.905-4.959-4.892-6.767-.023-7.522,3.588-.831,3.976-.365,8.224-.466,12.355-4.444-.279-9.039.46-13.156-1.981-6.029-5.483-9.089-12.038-8.108-20.417a29.109,29.109,0,0,0-2.3-14.386c-5.065-12.685-2.781-24.255,5.463-31.529,4.313.614,7.174,1.791,5.337,7.38-1.05,3.2-1.114,7.109,1.5,10.156,3.47,4.047,5.046,8.931,6.286,13.969.762,3.095,2.171,6.059,5.541,6.326,3.85.307,5.714-2.547,6.512-6.06,5.931-1.411,8.049-6.215,9.774-11.223a80.953,80.953,0,0,0,2.884-43.691c-2.28-11.127-3.706-23.135,7.32-31.681Q27.854,193.219,29.323,193.484Z" transform="translate(152.164 -28.284)" fill="#4bb1d4"/>
      <path id="Path_8613" data-name="Path 8613" d="M-99.789,218.981c2.044-8.039,1.867-16.177,1.115-24.341a90.9,90.9,0,0,0,22.587,2.328c-1.633,14.779-5.636,29.059-8.974,43.49-3.53,15.259-6.812,30.627.48,45.822-.217,1.618-.118,3.364-.707,4.832C-88.05,298-84.894,301.937-78.9,304.6c-6.651,1.852-12.833-.6-19.119-2.083,2.058-13.216-.851-26.21-1.89-39.27C-101.084,248.469-101.82,233.731-99.789,218.981Z" transform="translate(103.256 -27.17)" fill="#f46163"/>
      <path id="Path_8614" data-name="Path 8614" d="M-89.4,286.076c-7.292-15.194-4.009-30.563-.48-45.822,3.339-14.431,7.342-28.711,8.976-43.49q.807-.829,1.611-1.661,1.377-.075,2.755-.153c1.3,13.993,1.11,28,.523,42.02a81.722,81.722,0,0,0-4.756,21.066Z" transform="translate(108.072 -26.965)" fill="#ae2b42"/>
      <path id="Path_8615" data-name="Path 8615" d="M23.036,276.78,32.6,243.744c4.766,2.652,5.349,8.863,11.049,8.04,3.832.488,5.818-2.273,8.073-4.565,3.113-3.163,6.48-5.762,11.326-5.012l1.57,1.372-.01-.159c2.977,8.214,2.521,15.883-6.787,18.955-11.991,3.958-21.9,12.752-34.758,14.431Z" transform="translate(185.097 4.115)" fill="#4bb1d4"/>
      <path id="Path_8616" data-name="Path 8616" d="M32.344,111.26c5.564,9.116,5.211,11.188-2.745,16.112-2.244-.028-4.633-3.818-6.45-.891-2.536,4.084-6.431,8.3-3.248,13.892-1.781,3.709-4.686,6.935-4.872,11.328a1.66,1.66,0,0,0-.061,1.367l-2.149,2.126q-7.206.568-14.414,1.135a5.2,5.2,0,0,0-.279-1.069c.83-3.334-2.328-8.772,2.768-9.7,7.984-1.447,8.714-6.746,9.094-12.888,2.265-1.4,4.839-2.557,4.7-5.878l-.043.06c2.506-1.825,5.793-3.45,1.771-6.942a1.831,1.831,0,0,1,.431-1.213,38.383,38.383,0,0,0,12.527-21.61Q30.862,104.175,32.344,111.26Z" transform="translate(168.524 -91.501)" fill="#1f1441"/>
      <path id="Path_8617" data-name="Path 8617" d="M27.18,99.315a38.373,38.373,0,0,1-12.527,21.608c-.146-2.9-2.7-5.237-1.957-8.347l-.108.043c1.781.538,2.375-.694,2.283-1.962-.086-1.211-1.248-1.326-2.32-1-3.516-1.958-6.835-4.657-11.313-3.017C2.859,100.693,17.17,92.331,23,93.92A5.23,5.23,0,0,1,27.18,99.315Z" transform="translate(170.722 -93.723)" fill="#311f68"/>
      <path id="Path_8618" data-name="Path 8618" d="M-52.515,96.364c4.408,3.979,2.625,7.761-.368,11.505l-5.679.075c-1.586-5-4.693-5.89-9.067-3.36q-3.114-1.347-6.228-2.692C-68.4,93.662-60.167,96.13-52.515,96.364Z" transform="translate(121.197 -92.328)" fill="#311f68"/>
      <path id="Path_8619" data-name="Path 8619" d="M12.728,105.812c-.742,3.11,1.811,5.446,1.957,8.347a1.839,1.839,0,0,0-.431,1.216c-2.119,1.923-2.317,4.336-1.771,6.94l.043-.06c-6.153,1.041-9.062-.73-6.369-7.352-.825-3.872-6.328-5.7-4.648-10.669C5.487,103.058,8.836,106.36,12.728,105.812Z" transform="translate(170.691 -86.959)" fill="#f46163"/>
      <path id="Path_8620" data-name="Path 8620" d="M-98.338,259.646c6.286,1.482,12.468,3.935,19.119,2.083,2.152.363,5.285.533,5.148,3.009-.161,2.9-3.48,1.889-5.427,1.957a151.014,151.014,0,0,1-16.492-.081C-101.47,266.2-101.762,263.392-98.338,259.646Z" transform="translate(103.576 15.701)" fill="#624cd4"/>
      <path id="Path_8621" data-name="Path 8621" d="M7.524,110.563c-2.693,6.621.216,8.392,6.369,7.352.134,3.321-2.439,4.477-4.7,5.875-7.906.383-8.15-6.145-10.071-11.158q1.053-1.026,2.109-2.051Q4.375,110.572,7.524,110.563Z" transform="translate(169.323 -82.617)" fill="#624cd4"/>
      <path id="Path_8622" data-name="Path 8622" d="M-72.485,99.486q3.114,1.344,6.23,2.69c-6.887,2.982-2.5,10.267-5.6,14.695q-1.036-.831-2.069-1.661C-74.964,109.83-78.584,104.212-72.485,99.486Z" transform="translate(119.824 -89.923)" fill="#1f1441"/>
      <path id="Path_8623" data-name="Path 8623" d="M12.945,107.644c-3.891.548-7.24-2.755-11.22-1.577-.651-1.425-1.445-2.844-.236-4.363,4.476-1.631,7.795,1.067,11.313,3.024q.02,1.479.035,2.959Z" transform="translate(170.473 -88.791)" fill="#ae2b42"/>
      <path id="Path_8624" data-name="Path 8624" d="M48.717,243.528l-1.57-1.372C47.99,242.251,48.755,242.43,48.717,243.528Z" transform="translate(200.998 4.166)" fill="#2f87bf"/>
      <path id="Path_8656" data-name="Path 8656" d="M45.312,204.868q-1.466-.266-2.932-.534c-4.728-6-11.991-4.159-18.049-5.319-25.083-4.806-50.309-8.853-75.477-13.176,3.57-5.785,9.91-7.353,15.445-10.149,4.137.1,8.274.282,12.411.284,34.242.02,68.485-.025,102.729.055,3.014.007,6.927-1.487,8.2,3.241q-.657,15.022-1.313,30.043c-12.28-.279-23.913-5.342-36.288-4.92Z" transform="translate(136.175 -39.668)" fill="#311f68"/>
      <path id="Path_8657" data-name="Path 8657" d="M-71,222.665l-2.753.153-24.713-5.375c-1.313-1.311-3.2-2.114-3.216-4.464-.091-16.449-1.472-32.914.967-49.322a26.781,26.781,0,0,1,3.888-10.732l13.075,3.362c-2.139,10.239-3.978,20.554-6.533,30.689-1.434,5.677.417,8.236,5.78,9.223,4.281.79,10.194.362,12.4,2.982,3.2,3.8,1.045,10.058,1.447,15.249A65.919,65.919,0,0,1-71,222.665Z" transform="translate(102.537 -54.68)" fill="#fa8f8f"/>
      <path id="Path_8658" data-name="Path 8658" d="M-34.453,186.092c-5.533,2.8-11.874,4.366-15.443,10.151q-1.533-.667-3.052-1.324-.045-4.172-.093-8.344.819-2.173,1.631-4.353c1.47-1.83,3.586-2.076,5.71-2.544,7.836-1.729,8.755-4.582,3.891-11.56,2.446-2.272,4.625-.32,6.706.6,6.12,2.715,8.825.84,8.316-5.8l-.509-2.941,10-.07c9.106.33,18.05,3.015,27.257,1.852C12,163.626,14.691,162.821,17,163.49c6.688,1.935,14.248,1.072,19.967,6.145-16.148.078-32.3.113-48.445.277-2.625.028-5.913-1.142-7.707,1.48C-23.281,177.386-29.641,180.914-34.453,186.092Z" transform="translate(134.925 -50.072)" fill="#2f87bf"/>
      <path id="Path_8659" data-name="Path 8659" d="M-95.4,162c-7.813-8.324-8.8-17.7-4.311-27.923,1.787,1.812,1.153,4.129,1.266,6.27.582,11.072,8.78,19.106,19.718,18.548a57.846,57.846,0,0,0,29.9-10.5c4.328-2.954,8.334-6.372,14-6.19q-.836,11.431-1.671,22.859c-3.55-2.088-4.082-6.384-6.7-9.15-1.913-2.911-3.224-.159-4.64.569a105.459,105.459,0,0,1-23.921,8.946C-79.888,165.984-87.9,165.743-95.4,162Z" transform="translate(102.384 -67.11)" fill="#ae2b42"/>
      <path id="Path_8660" data-name="Path 8660" d="M3.177,258.54c-.8,3.513-2.662,6.367-6.512,6.06-3.37-.267-4.779-3.231-5.541-6.326-1.24-5.038-2.816-9.922-6.286-13.97-2.61-3.047-2.547-6.958-1.5-10.156,1.837-5.589-1.024-6.766-5.337-7.38,7.02-4.273,15.305-1.387,19.076,6.694A31.472,31.472,0,0,1-.313,248.648C-.506,252.422,1.35,255.477,3.177,258.54Z" transform="translate(155.399 -7.279)" fill="#2f87bf"/>
      <path id="Path_8661" data-name="Path 8661" d="M-59.224,181.591c-6.587.257-13.273-1.046-19.745.7-4.97,1.336-7.131-.788-6.613-5.239.448-3.847-3.586-10.36,4.827-10.541,7.411-.159,14.841.219,22.172-1.243q1.571.443,3.148.891c.524,2.016-4.144,3.815-.252,5.974C-55.627,175.746-57.844,178.513-59.224,181.591Z" transform="translate(113.082 -46.542)" fill="#8674ef"/>
      <path id="Path_8662" data-name="Path 8662" d="M-61.9,189.5c-2.521.763-4.023,3.563-6.967,3.482,1.547-9.072,8.478-14.927,13.195-22.1q2.542-1.491,5.081-2.985c5.534-2.587,10.9-5.816,17.438-4.572q-.182,1.125-.355,2.247c-6.372.151-11.718,1.538-11.55,9.575l-9.028,8.946A17.765,17.765,0,0,0-61.9,189.5Z" transform="translate(124.488 -48.004)" fill="#2f87bf"/>
      <path id="Path_8663" data-name="Path 8663" d="M-27.77,166.58c-6.54-1.245-11.907,1.985-17.443,4.574-.426-2.932,1.128-6.409-2.337-8.507-5.838-2.868-11.246-1.4-16.5,1.635-4.376.05-8.2-1.356-12.979-4.655,8.434-1.643,15.8,2.186,22.509-1.517,2.634,2.627,6.08,1.321,9.145,1.872,6.05,1.2,11.349,7.123,18.261,2.9L-25,164.471Q-26.388,165.526-27.77,166.58Z" transform="translate(119.107 -51.261)" fill="#4bb1d4"/>
      <path id="Path_8664" data-name="Path 8664" d="M-54.257,167.849c-4.716,7.179-11.648,13.034-13.195,22.106l-.032-.063c-1.376.551-1.726,1.734-1.875,3.042-3.687-4.346-.111-8.611.144-12.912,1.381-3.077,3.6-5.843,3.531-9.456C-62.435,167.328-58.38,167.439-54.257,167.849Z" transform="translate(123.071 -44.975)" fill="#4bb1d4"/>
      <path id="Path_8665" data-name="Path 8665" d="M-64.67,181.141a17.757,17.757,0,0,1,7.818-5.412q5.743.209,11.48.413.047,4.172.093,8.346C-51.919,184.392-58.279,182.677-64.67,181.141Z" transform="translate(127.256 -39.641)" fill="#311f68"/>
      <path id="Path_8666" data-name="Path 8666" d="M-68.984,163.092c5.252-3.038,10.661-4.5,16.5-1.631q-6.955,4.115-13.913,8.224-1.576-.448-3.148-.891C-66.725,167.151-64.321,165.467-68.984,163.092Z" transform="translate(124.043 -50.071)" fill="#f46163"/>
      <path id="Path_8667" data-name="Path 8667" d="M-52.168,167.157c-3.065-.554-6.512.752-9.145-1.875q-2.7-9.018-5.408-18.045c2.624,2.766,3.156,7.063,6.7,9.149,1.824,1.487,1.59,4.824,4.661,5.2.787,1.578,1.389,3.321,3.42,3.769Z" transform="translate(125.903 -58.432)" fill="#bfeaea"/>
      <path id="Path_8668" data-name="Path 8668" d="M-97.669,150.9c7.5,3.744,15.511,3.984,23.636,3.43-3.5,2.685-7.773,2.607-11.834,3.289l-13.077-3.364Z" transform="translate(104.654 -56.014)" fill="#311f68"/>
      <path id="Path_8669" data-name="Path 8669" d="M-70.017,184.092c.149-1.308.5-2.491,1.875-3.042C-68.162,182.436-68.522,183.614-70.017,184.092Z" transform="translate(123.73 -36.132)" fill="#2f87bf"/>
      <path id="Path_8670" data-name="Path 8670" d="M11.936,181.444c-5.719-5.073-13.279-4.21-19.967-6.145-2.313-.669-5.005.136-7.048-1.726q1.2-5.89,2.4-11.777.261-.7.523-1.414.249-1.663.5-3.327c6.691-4.784,11.65-11.812,19.534-15.048q1.088,1.643,2.172,3.289c4.658,11.575,4.731,23.8,5.07,35.981Q13.525,181.358,11.936,181.444Z" transform="translate(159.961 -61.881)" fill="#311f68"/>
      <path id="Path_8671" data-name="Path 8671" d="M-55.22,180.536c-2.031-.448-2.634-2.191-3.419-3.767,3.689-9.806-.068-19.57-.174-29.355.579-3.148,4.954-6.782-1.165-9.071-4.975-6.19,2.006-9.489,3.419-14.136,2.38,3.563,6.852,6.852,1.2,11.346-1.228.977-.733,2.5-.143,3.794,4.774,10.471,9.071,21.066,19.831,27.476,8.365,4.985,17.712,8.732,24.106,16.636q-5,.032-9.992.068-2.186-.789-4.378-1.58c-3.211-5.144-8.878-6.7-13.878-9.026-1.255-.584-4.107-4.215-5.591.344C-50.555,173.148-51.719,178.422-55.22,180.536Z" transform="translate(129.187 -73.619)" fill="#ae2b42"/>
      <path id="Path_8672" data-name="Path 8672" d="M9.855,151.886C1.972,155.122-2.986,162.15-9.677,166.934a5.856,5.856,0,0,0-1.293-1c-8.626-3.375-9.15-5.466-2.977-12,9.869-1.84,19.9-3.261,27.944-10.134q5.573-1.424,11.147-2.846l8.195,2.363c10.005,1.464,11.009.7,8.327-6.328,6.313-.4,12.546-.889,11.009-9.964,1.472,2.562,4.268,1.859,6.469,2.634,5.621,1.98,5.383,4.484.621,7.355-5.207.823-10.269,1.724-4.364,8.354-2.345,4.391-6.5,3.269-10.188,3.193-9.562-.2-19.109-.337-28.568,1.422C14.135,149.738,11.636,149.533,9.855,151.886Z" transform="translate(157.978 -71.761)" fill="#2f87bf"/>
      <path id="Path_8673" data-name="Path 8673" d="M27.177,149.181l-11.15,2.849c-1.452-1.7-3.126-1.352-5.184-1.16-10.594.994-21.22,1.631-31.834,2.393-1.163-8.425,3.556-14.5,8.3-20.511A87.262,87.262,0,0,1,6.92,114.546c-1.747,4.114-4.592,7.81-4.53,12.552-3.774,3.979-7.559,7.949-11.314,11.947-1.153,1.228-2.167,2.645-1.585,4.419.674,2.053,2.579,1.719,4.17,1.7,5.775-.076,11.548-.224,17.323-.345q7.206-.567,14.416-1.135Q26.291,146.43,27.177,149.181Z" transform="translate(155.944 -79.991)" fill="#f46163"/>
      <path id="Path_8674" data-name="Path 8674" d="M-77.732,112.14q3.1-.075,6.208-.151c-.03,3.833,0,8.6,4.816,8.515,3.872-.073,1.022-4.834,2.249-7.186,2.02,1.233,3.9,3.078,6.084,3.593,7.836,1.837,10.3,7.184,10.33,14.424-2.7,3.264-6.859,8.208-9.371,2.039-2.581-6.333-6.683-5.279-10.971-6-3.618.538-4.577-1.691-5.272-4.665C-74.519,119.025-75.349,115.263-77.732,112.14Z" transform="translate(118.642 -81.677)" fill="#fa8f8f"/>
      <path id="Path_8675" data-name="Path 8675" d="M2.42,111.809c1.922,5.013,2.166,11.542,10.071,11.158-.38,6.145-1.11,11.444-9.094,12.891-5.1.924-1.938,6.362-2.768,9.7-4,.214-7.735.548-5.916-5.722.68-2.345-.352-5.188-.6-7.8q2.218-8.227,4.434-16.457Q.48,113.691,2.42,111.809Z" transform="translate(166.02 -81.796)" fill="#311f68"/>
      <path id="Path_8676" data-name="Path 8676" d="M-66.925,121.038c-1.226,2.351,1.623,7.113-2.249,7.186-4.813.09-4.846-4.681-4.816-8.515q.421-1.683.845-3.365c3.108-4.426-1.281-11.711,5.606-14.693,4.373-2.527,7.479-1.635,9.064,3.36l-1.349,9.917C-61.129,118.2-67.214,115.917-66.925,121.038Z" transform="translate(121.108 -89.397)" fill="#f46163"/>
      <path id="Path_8677" data-name="Path 8677" d="M-21.047,138.894c10.614-.762,21.24-1.4,31.834-2.393,2.058-.192,3.732-.538,5.184,1.16C7.926,144.533-2.1,145.953-11.97,147.793-17.642,147.53-21.51,145.422-21.047,138.894Z" transform="translate(156 -65.621)" fill="#ae2b42"/>
      <path id="Path_8678" data-name="Path 8678" d="M-72.1,121.259c4.291.724,8.394-.33,10.974,6,2.512,6.168,6.668,1.225,9.371-2.04.674.317,1.349.626,2.028.933-1.409,4.645-8.39,7.944-3.42,14.14-5.888,3.828-7.066-2.7-10.312-4.678Q-67.783,128.438-72.1,121.259Z" transform="translate(122.354 -75.564)" fill="#2f87bf"/>
      <path id="Path_8679" data-name="Path 8679" d="M-65.455,113.078l1.349-9.917q2.84-.035,5.68-.073C-54.967,110.5-58.354,113.095-65.455,113.078Z" transform="translate(126.739 -87.547)" fill="#1f1441"/>
      <path id="Path_8680" data-name="Path 8680" d="M-.743,114.077q-2.218,8.229-4.434,16.459-.9-1.563-1.8-3.128c-.061-4.743,2.783-8.438,4.53-12.552C-1.865,114.586-1.3,114.333-.743,114.077Z" transform="translate(165.306 -80.3)" fill="#624cd4"/>
      <path id="Path_8681" data-name="Path 8681" d="M-13.11,153.079q-.261.709-.523,1.414C-13.457,154.018-13.285,153.549-13.11,153.079Z" transform="translate(160.914 -54.579)" fill="#2f87bf"/>
      <path id="Path_8682" data-name="Path 8682" d="M29.584,166.036q1.591-.085,3.18-.168l3.254-.237.783.274.788-.254,13.274.007c2.8.6,5.586.87,8.324-.289a31.012,31.012,0,0,0,11.379.2,6.975,6.975,0,0,1,.788.209c4.449,1.716,11.28-2.415,13.429,2.551,2.443,5.642-.068,12.189-3.281,17.75-1.274-4.733-5.188-3.239-8.2-3.246-34.243-.08-68.487-.035-102.729-.055-4.137,0-8.274-.184-12.411-.284,4.811-5.179,11.17-8.707,15.271-14.7,1.794-2.622,5.081-1.452,7.707-1.48C-2.713,166.149,13.435,166.114,29.584,166.036Z" transform="translate(142.313 -46.474)" fill="#8674ef"/>
      <path id="Path_8683" data-name="Path 8683" d="M9.829,192.995c12.375-.421,24.008,4.642,36.288,4.92q-.246,8.349-.495,16.691c-3.777,6.5-5.274,13.731-7.264,20.891-2.75,9.891-6.885,19.3-18.155,22.647-5.129-1.009-5.322-4.9-5.139-8.93q.906-20.188,1.9-40.37C17.29,202.313,15.013,197.016,9.829,192.995Z" transform="translate(176.387 -28.271)" fill="#624cd4"/>
      <path id="Path_8684" data-name="Path 8684" d="M17.978,250.063c11.27-3.349,15.405-12.756,18.155-22.647,1.99-7.161,3.487-14.391,7.264-20.891q3.069-.647,6.135-1.3c2.775,12.129-4.165,21.987-7.016,32.908-3.389,12.982-12.438,20.808-20.529,29.844-3.669,4.1-6.341,4.049-7.408-2.1C13.571,260.082,10.8,254.044,17.978,250.063Z" transform="translate(178.613 -20.19)" fill="#4bb1d4"/>
      <path id="Path_8685" data-name="Path 8685" d="M44.295,141.4c-5.9-6.63-.843-7.531,4.364-8.354.226.782.42,1.577.684,2.346,5.47,16.014,1.986,21-15.362,22-2.725-.694-5.453-1.392-8.3-.73q-2.489-.214-4.98-.427-9.887-2.514-19.774-5.03-1.085-1.645-2.172-3.289c1.779-2.353,4.278-2.147,6.787-1.9,10.579,2.554,21.5,2.129,32.181,3.677C45.37,150.8,45.623,146.942,44.295,141.4Z" transform="translate(169.082 -67.792)" fill="#ae2b42"/>
      <path id="Path_8686" data-name="Path 8686" d="M14.978,147.383c2.849-.664,5.578.035,8.3.729,6.472,8.769,11.431,18.045,9.816,29.5a31.22,31.22,0,0,1-11.377-.2C23.156,166.578,16.689,157.516,14.978,147.383Z" transform="translate(179.783 -58.511)" fill="#f46163"/>
      <path id="Path_8687" data-name="Path 8687" d="M8.224,138.751c.186-4.394,3.092-7.62,4.872-11.331,4.24-2.622,4.7-8.619,9.559-10.689q3.35,3.229,6.7,6.449c-2.023,3.331-7.657,5.629-3.123,10.851q-.119.734-.277,1.462c-5.1-1.81-10.066-3.372-13.892,2.524C11.575,138.774,9.542,138.53,8.224,138.751Z" transform="translate(175.329 -78.55)" fill="#f46163"/>
      <path id="Path_8688" data-name="Path 8688" d="M20.368,129.758q.157-.727.277-1.464l6.825-2.868q1.13,1.327,2.262,2.652c1.538,9.074-4.695,9.564-11.007,9.964l-2.025-1.3C16.593,133.718,21.168,133.149,20.368,129.758Z" transform="translate(180.918 -72.815)" fill="#fa8f8f"/>
      <path id="Path_8689" data-name="Path 8689" d="M21.194,118.444c-4.856,2.069-5.319,8.067-9.559,10.689-3.183-5.592.712-9.806,3.248-13.89,1.817-2.927,4.207.863,6.45.891C21.285,116.906,21.241,117.674,21.194,118.444Z" transform="translate(176.79 -80.263)" fill="#624cd4"/>
      <path id="Path_8690" data-name="Path 8690" d="M26.586,128.859l-6.825,2.868c-4.534-5.221,1.1-7.519,3.123-10.85C36.842,117.637,22.723,127.42,26.586,128.859Z" transform="translate(181.803 -76.247)" fill="#4bb1d4"/>
      <path id="Path_8691" data-name="Path 8691" d="M23.206,263.016l-.387.694c.119-.241.241-.48.36-.72Z" transform="translate(184.954 17.905)" fill="#4bb1d4"/>
      <path id="Path_8692" data-name="Path 8692" d="M-44.553,139.4c3.244,1.98,4.423,8.508,10.31,4.68,6.123,2.282,1.749,5.916,1.17,9.064l-2.816,1.3c-5.665-.183-9.671,3.236-14,6.19a57.846,57.846,0,0,1-29.9,10.5c-10.938.558-19.136-7.476-19.718-18.548-.113-2.141.521-4.457-1.266-6.27.71-3.769,2.964-6.784,4.874-9.965,11.882,7.189,12.582,6.92,21.734-4.577,3.774-4.74,3.833-11.124,7.454-16.251,4.253,9.58-.9,27.675-8.877,32.433-2.959,1.762-6.747,3.277-1.3,6.65,7.542.337,14.512-2.932,21.862-3.543C-47.532,150.438-43.245,147.607-44.553,139.4Z" transform="translate(103.447 -79.348)" fill="#f46163"/>
      <path id="Path_8693" data-name="Path 8693" d="M-78.828,156.5c-5.443-3.372-1.654-4.887,1.3-6.65,7.979-4.758,13.13-22.853,8.877-32.433-3.621,5.128-3.681,11.512-7.454,16.251-9.152,11.5-9.852,11.766-21.734,4.577,7.315-11.63,16.542-21.029,29.9-25.6C-56.638,127.608-60.682,143.884-78.828,156.5Z" transform="translate(105.384 -81.244)" fill="#fa8f8f"/>
      <path id="Path_8694" data-name="Path 8694" d="M-86.382,156.873c18.146-12.615,22.191-28.892,10.893-43.854q1.73-.473,3.46-.939c2.385,3.123,3.214,6.885,4.074,10.566.7,2.974,1.655,5.2,5.272,4.665q4.314,7.181,8.638,14.36c1.309,8.206-2.977,11.037-10.475,11.66C-71.87,153.941-78.84,157.21-86.382,156.873Z" transform="translate(112.937 -81.617)" fill="#624cd4"/>
      <path id="Path_8695" data-name="Path 8695" d="M-99.931,191.8l24.713,5.375q-.809.831-1.613,1.661a90.9,90.9,0,0,1-22.589-2.328Q-99.676,194.156-99.931,191.8Z" transform="translate(104.002 -29.041)" fill="#311f68"/>
      <path id="Path_8696" data-name="Path 8696" d="M-1.779,122.11q.9,1.563,1.8,3.128c.252,2.614,1.284,5.456.6,7.8-1.819,6.27,1.918,5.936,5.916,5.722a5.2,5.2,0,0,1,.279,1.069c-5.775.119-11.548.267-17.323.344-1.591.022-3.5.355-4.17-1.7-.582-1.774.431-3.191,1.585-4.419C-9.338,130.059-5.553,126.089-1.779,122.11Z" transform="translate(160.113 -75.002)" fill="#ae2b42"/>
      <path id="Path_8697" data-name="Path 8697" d="M26.029,128.689c.8,3.39-3.775,3.96-3.667,6.985q-2.761.595-5.523,1.2c-1.648-4.137-5.554-2.811-8.6-3.56a1.66,1.66,0,0,1,.061-1.367c1.318-.219,3.351.025,3.842-.732C15.962,125.316,20.932,126.878,26.029,128.689Z" transform="translate(175.257 -71.745)" fill="#ae2b42"/>
      <path id="Path_8698" data-name="Path 8698" d="M9.04,130.823c3.05.748,6.957-.577,8.6,3.558q-.393,3.214-.777,6.431L8.67,138.448q-.889-2.753-1.777-5.5Z" transform="translate(174.451 -69.256)" fill="#fa8f8f"/>
      <path id="Path_8699" data-name="Path 8699" d="M8.1,117.787c-.546-2.6-.348-5.017,1.771-6.94C13.891,114.337,10.6,115.962,8.1,117.787Z" transform="translate(175.075 -82.43)" fill="#624cd4"/>
      <path id="Path_8700" data-name="Path 8700" d="M8.092,106.349q-.017-1.481-.035-2.959c1.07-.329,2.232-.214,2.318,1C10.467,105.655,9.872,106.887,8.092,106.349Z" transform="translate(175.219 -87.452)" fill="#f46163"/>
      <path id="Path_8771" data-name="Path 8771" d="M-54.519,174.144c-.168-8.037,5.178-9.424,11.547-9.577q1.068.241,2.142.481c4.864,6.978,3.945,9.831-3.891,11.56-2.124.468-4.24.714-5.707,2.542C-54.689,179.851-50.731,173.829-54.519,174.144Z" transform="translate(133.948 -47.003)" fill="#fa8f8f"/>
      <path id="Path_8772" data-name="Path 8772" d="M-45.421,167.135q-1.073-.241-2.142-.481c.119-.747.237-1.5.358-2.245l2.768-2.108c4.7.889,9.311-2.056,14.038-.362.509,6.638-2.2,8.513-8.316,5.8C-40.8,166.815-42.975,164.863-45.421,167.135Z" transform="translate(138.538 -49.089)" fill="#ae2b42"/>
      <path id="Path_8773" data-name="Path 8773" d="M-50.935,170.343c3.789-.315-.169,5.707,4.091,5.007q-.819,2.181-1.635,4.355-5.74-.207-11.48-.415Q-55.451,174.816-50.935,170.343Z" transform="translate(130.363 -43.201)" fill="#8674ef"/>
      <path id="Path_8774" data-name="Path 8774" d="M-30.8,164.037c-4.726-1.694-9.333,1.251-14.038.362q-1.05-.8-2.1-1.59l-.023.141c4.167.193,5.851-7.773,11.281-3.433l4.379,1.58C-31.136,162.078-30.965,163.057-30.8,164.037Z" transform="translate(138.935 -51.188)" fill="#f46163"/>
      <path id="Path_8775" data-name="Path 8775" d="M-61.009,139.491l2.816-1.3c.106,9.784,3.863,19.549.174,29.355-3.073-.373-2.839-3.711-4.663-5.2Q-61.843,150.921-61.009,139.491Z" transform="translate(128.567 -64.397)" fill="#2f87bf"/>
      <path id="Path_8776" data-name="Path 8776" d="M-66.924,169.07q6.957-4.112,13.913-8.224c3.462,2.094,1.907,5.571,2.333,8.5q-2.539,1.491-5.08,2.984c-4.124-.412-8.178-.523-11.426,2.715C-71.068,172.886-66.4,171.087-66.924,169.07Z" transform="translate(124.572 -49.457)" fill="#ae2b42"/>
      <path id="Path_8777" data-name="Path 8777" d="M-57.72,161.041c3.5-2.114,4.665-7.388,9.822-7.27,5.642,2.071,10.51,4.665,8.185,12.116l.023-.141c-6.913,4.222-12.212-1.7-18.263-2.9Q-57.835,161.946-57.72,161.041Z" transform="translate(131.687 -54.124)" fill="#fa8f8f"/>
      <path id="Path_8778" data-name="Path 8778" d="M.061,143.988q9.887,2.517,19.774,5.03,1.7,15.371,3.4,30.74l-13.274-.007-1.572-.02-3.254.237C4.792,167.785,4.719,155.563.061,143.988Z" transform="translate(169.945 -60.574)" fill="#1f1441"/>
      <path id="Path_8779" data-name="Path 8779" d="M-43.708,166.786c2.325-7.451-2.542-10.045-8.185-12.116,1.482-4.559,4.335-.928,5.589-.343,5,2.33,10.667,3.882,13.878,9.026C-37.857,159.013-39.541,166.979-43.708,166.786Z" transform="translate(135.683 -55.024)" fill="#2f87bf"/>
      <path id="Path_8780" data-name="Path 8780" d="M41.6,138.078c1.328,5.544,1.075,9.4-6.575,8.294-10.68-1.548-21.6-1.123-32.181-3.677,9.459-1.761,19.006-1.621,28.568-1.424C35.1,141.347,39.253,142.469,41.6,138.078Z" transform="translate(171.779 -64.472)" fill="#f46163"/>
      <path id="Path_8781" data-name="Path 8781" d="M12.9,139.873q.386-3.216.777-6.431,2.766-.6,5.526-1.2,1.013.652,2.025,1.3C23.911,140.573,22.907,141.337,12.9,139.873Z" transform="translate(178.414 -68.318)" fill="#f46163"/>
      <path id="Path_8782" data-name="Path 8782" d="M15.372,177.759q-1.7-15.369-3.4-30.74,2.489.212,4.98.426c1.711,10.134,8.178,19.2,6.741,30.03C20.958,178.629,18.172,178.355,15.372,177.759Z" transform="translate(177.804 -58.575)" fill="#fa8f8f"/>
      <path id="Path_8783" data-name="Path 8783" d="M5.077,165.527l1.572.02-.788.254Z" transform="translate(173.253 -46.369)" fill="#311f68"/>
    </g>
  </g>
</svg>
